<svg width="18" height="10" viewBox="0 0 18 10" fill="none" xmlns="http://www.w3.org/2000/svg">
<path d="M17.5005 0.989236C17.3666 0.858402 17.1867 0.785156 16.9995 0.785156C16.8123 0.785156 16.6324 
0.858402 16.4985 0.989236L9 8.29874L1.503 0.989235C1.36905 0.858402 1.18924 0.785156 1.002 
0.785156C0.814756 0.785156 0.634943 0.858402 0.500998 0.989235C0.435682 1.05283 0.383768 1.12886 0.348322 
1.21285C0.312874 1.29684 0.294613 1.38707 0.294613 1.47823C0.294613 1.5694 0.312874 1.65963 0.348322 
1.74362C0.383768 1.82761 0.435682 1.90364 0.500997 1.96724L8.4765 9.74024C8.61656 9.87676 8.80441 9.95316 
9 9.95316C9.19559 9.95316 9.38344 9.87676 9.5235 9.74024L17.499 1.96724C17.5643 1.90364 17.6162 1.82761 
17.6517 1.74362C17.6871 1.65963 17.7054 1.5694 17.7054 1.47824C17.7054 1.38707 17.6871 1.29684 17.6517 
1.21285C17.6162 1.12886 17.5643 1.05283 17.499 0.989236L17.5005 0.989236Z" fill="#454C47"/>
</svg>

