<svg width="120" height="120" viewBox="0 0 120 120" fill="none" 
xmlns="http://www.w3.org/2000/svg">
<path d="M88.125 116.25C103.658 116.25 116.25 103.658 116.25 88.125C116.25 
72.592 103.658 60 88.125 60C72.592 60 60 72.592 60 88.125C60 103.658 
72.592 116.25 88.125 116.25Z" fill="#F48734"/>
<path opacity="0.25" d="M88.1248 60C83.9771 59.9795 79.8762 60.8766 76.116 
62.6271C72.3558 64.3775 69.0292 66.938 66.3748 70.125C71.7063 65.157 
78.7581 62.4524 86.0443 62.581C93.3306 62.7095 100.283 65.6612 105.436 
70.8142C110.589 75.9672 113.54 82.9191 113.669 90.2054C113.797 97.4917 
111.093 104.543 106.125 109.875C110.621 106.189 113.864 101.201 115.409 
95.5959C116.953 89.9911 116.723 84.0454 114.749 78.5769C112.775 73.1084 
109.156 68.3859 104.388 65.0592C99.62 61.7325 93.9384 59.965 88.1248 60Z" 
fill="white"/>
<path d="M88.125 60C94.2126 59.9864 100.138 61.9615 105 
65.625V22.5H3.75V90H60.1875C60.1875 89.4375 60 88.6875 60 88.125C60 
80.6658 62.9632 73.5121 68.2376 68.2376C73.5121 62.9632 80.6658 60 88.125 
60Z" fill="#FEF6F6"/>
<path opacity="0.14" d="M48.75 90H60.1875C60.1875 89.4375 60 88.6875 60 
88.125C59.9978 82.4435 61.7164 76.8945 64.9295 72.2088C68.1426 67.5231 
72.6994 63.9203 78 61.875H76.875C69.4158 61.875 62.2621 64.8382 56.9876 
70.1126C51.7132 75.3871 48.75 82.5408 48.75 90Z" fill="#000064"/>
<path opacity="0.14" d="M3.75 22.5L54.375 61.125L105 22.5V25.3125L48.75 
75L3.75 30.9375V22.5Z" fill="#000064"/>
<path d="M60 90H3.75V22.5H105V65.625" stroke="#F48734" stroke-width="3.75" 
stroke-miterlimit="10" stroke-linecap="round" stroke-linejoin="round"/>
<path d="M99.375 82.5L84.375 97.5L76.875 90M3.75 22.5L54.375 61.125L105 
22.5H3.75Z" stroke="white" stroke-width="3.75" stroke-miterlimit="10" 
stroke-linecap="round" stroke-linejoin="round"/>
<path d="M88.125 116.25C103.658 116.25 116.25 103.658 116.25 88.125C116.25 
72.592 103.658 60 88.125 60C72.592 60 60 72.592 60 88.125C60 103.658 
72.592 116.25 88.125 116.25Z" stroke="white" stroke-width="3.75" 
stroke-miterlimit="10" stroke-linecap="round" stroke-linejoin="round"/>
</svg>

