<svg width="29" height="19" viewBox="0 0 29 19" fill="none" xmlns="http://www.w3.org/2000/svg">
<path fill-rule="evenodd" clip-rule="evenodd" d="M29 9.9998C29 10.265 28.8946 10.5194 28.7071 
10.7069C28.5196 10.8944 28.2652 10.9998 28 10.9998L4.414 10.9998L10.708 17.2918C10.8958 17.4796 11.0013 
17.7342 11.0013 17.9998C11.0013 18.2653 10.8958 18.52 10.708 18.7078C10.5202 18.8956 10.2655 19.0011 10 
19.0011C9.73445 19.0011 9.47977 18.8956 9.292 18.7078L1.292 10.7078C1.19887 10.6149 1.12499 10.5046 
1.07458 10.3831C1.02416 10.2616 0.998212 10.1313 0.998212 9.9998C0.998212 9.86826 1.02416 9.73802 1.07458 
9.61653C1.12499 9.49504 1.19887 9.38469 1.292 9.2918L9.292 1.2918C9.47977 1.10402 9.73445 0.998534 10 
0.998534C10.2656 0.998534 10.5202 1.10402 10.708 1.2918C10.8958 1.47957 11.0013 1.73425 11.0013 
1.9998C11.0013 2.26535 10.8958 2.52002 10.708 2.7078L4.414 8.9998L28 8.9998C28.2652 8.9998 28.5196 
9.10516 28.7071 9.29269C28.8946 9.48023 29 9.73458 29 9.9998Z" fill="black"/>
</svg>

