<svg width="17" height="16" viewBox="0 0 17 16" fill="none" xmlns="http://www.w3.org/2000/svg">
<path fill-rule="evenodd" clip-rule="evenodd" d="M8.12492 13.3334C11.0704 13.3334 13.4583 10.9456 13.4583 
8.00004C13.4583 5.05452 11.0704 2.66671 8.12492 2.66671C5.1794 2.66671 2.79159 5.05452 2.79159 
8.00004C2.79159 10.9456 5.1794 13.3334 8.12492 13.3334ZM8.12492 14.6667C11.8068 14.6667 14.7916 11.6819 
14.7916 8.00004C14.7916 4.31814 11.8068 1.33337 8.12492 1.33337C4.44302 1.33337 1.45825 4.31814 1.45825 
8.00004C1.45825 11.6819 4.44302 14.6667 8.12492 14.6667Z" fill="#777E91"/>
<path fill-rule="evenodd" clip-rule="evenodd" d="M8.12492 4C8.49311 4 8.79159 4.29848 8.79159 
4.66667V7.72386L10.263 9.19526C10.5233 9.45561 10.5233 9.87772 10.263 10.1381C10.0026 10.3984 9.58053 
10.3984 9.32018 10.1381L7.65351 8.4714C7.52849 8.34638 7.45825 8.17681 7.45825 8V4.66667C7.45825 4.29848 
7.75673 4 8.12492 4Z" fill="#777E91"/>
</svg>


