<svg width="14" height="16" viewBox="0 0 14 16" fill="none" xmlns="http://www.w3.org/2000/svg">
<path d="M2.23503 6.01531L2.76628 5.48406C2.90693 5.34342 3.09769 5.2644 3.2966 5.2644C3.4955 5.2644 
3.68626 5.34342 3.82691 5.48406L7.00003 8.65906L10.1741 5.48468C10.2437 5.415 10.3264 5.35972 10.4175 
5.322C10.5085 5.28429 10.606 5.26487 10.7046 5.26487C10.8031 5.26487 10.9006 5.28429 10.9917 
5.322C11.0827 5.35972 11.1654 5.415 11.235 5.48468L11.7663 6.01593C11.8362 6.08561 11.8917 6.1684 11.9295 
6.25957C11.9674 6.35073 11.9869 6.44847 11.9869 6.54718C11.9869 6.64589 11.9674 6.74363 11.9295 
6.8348C11.8917 6.92596 11.8362 7.00875 11.7663 7.07843L7.53128 11.3106C7.39063 11.4513 7.19987 11.5303 
7.00097 11.5303C6.80207 11.5303 6.61131 11.4513 6.47066 11.3106L2.23503 7.07593C2.09439 6.93528 2.01538 
6.74452 2.01538 6.54562C2.01538 6.34672 2.09439 6.15596 2.23503 6.01531Z" fill="#444854"/>
</svg>

