<svg width="25" height="24" viewBox="0 0 25 24" fill="none" xmlns="http://www.w3.org/2000/svg">
    <g clip-path="url(#clip0_178_10287)">
        <path fill-rule="evenodd" clip-rule="evenodd"
            d="M11.9693 24.1987C12.1099 24.3394 12.3007 24.4184 12.4996 24.4184C12.6985 24.4184 12.8893 24.3394 13.0299 24.1987L19.3939 17.8348C19.5345 17.6941 19.6135 17.5034 19.6135 17.3045C19.6135 17.1055 19.5345 16.9148 19.3939 16.7741C19.2532 16.6335 19.0625 16.5545 18.8635 16.5545C18.6646 16.5545 18.4739 16.6335 18.3332 16.7741L13.2495 21.8579L13.2505 0.333897C13.2505 0.134732 13.1714 -0.0562737 13.0306 -0.197104C12.8898 -0.337934 12.6988 -0.417052 12.4996 -0.417051C12.3004 -0.417051 12.1094 -0.337933 11.9686 -0.197103C11.8278 -0.0562733 11.7486 0.134732 11.7486 0.333897L11.7497 21.8579L6.66596 16.7741C6.5253 16.6335 6.33454 16.5545 6.13563 16.5545C5.93671 16.5545 5.74595 16.6335 5.6053 16.7741C5.46464 16.9148 5.38563 17.1055 5.38563 17.3045C5.38563 17.5034 5.46464 17.6941 5.6053 17.8348L11.9693 24.1987Z"
            fill="black" />
    </g>
    <defs>
        <clipPath id="clip0_178_10287">
            <rect width="24" height="24" fill="white" transform="translate(24.5 24) rotate(-180)" />
        </clipPath>
    </defs>
</svg>