<svg width="14" height="14" viewBox="0 0 14 14" fill="none" 
xmlns="http://www.w3.org/2000/svg">
<path d="M13.8983 5.78766H7.53499V8.51516H11.1417C10.565 10.3335 9.14082 
10.9393 7.50582 10.9393C6.87224 10.9401 6.24781 10.7881 5.68551 
10.4961C5.12322 10.2041 4.63965 9.78079 4.27584 9.26207C3.91203 8.74334 
3.67871 8.14452 3.59568 7.51639C3.51264 6.88827 3.58235 6.24938 3.79888 
5.65394C4.01541 5.05851 4.37237 4.52408 4.83949 4.09602C5.3066 3.66795 
5.87007 3.35888 6.4821 3.19502C7.09413 3.03115 7.73666 3.01734 8.35517 
3.15475C8.97368 3.29216 9.54991 3.57673 10.035 3.98433L12.0167 
2.09683C11.2186 1.36169 10.2532 0.832452 9.20423 0.555052C8.15526 0.277652 
7.05443 0.260477 5.99732 0.505018C4.9402 0.749558 3.95875 1.24842 3.13817 
1.9583C2.31758 2.66819 1.68266 3.56763 1.28853 4.57854C0.894402 5.58946 
0.752973 6.6813 0.876522 7.75928C1.00007 8.83725 1.38486 9.86878 1.9975 
10.7643C2.61013 11.6598 3.43208 12.3923 4.392 12.8981C5.35192 13.4039 
6.42079 13.6678 7.50582 13.6668C11.1817 13.6668 14.5058 11.2427 13.8983 
5.78766Z" fill="#1F2722"/>
</svg>

