<svg width="169" height="33" viewBox="0 0 169 33"  xmlns="http://www.w3.org/2000/svg">
<path fill-rule="evenodd" clip-rule="evenodd" d="M22.3289 24.0215C21.0372 24.0215 20.0833 23.201 19.549 
22.0792C19.0141 20.9559 19.3902 19.5904 20.303 18.6721C20.872 18.0994 21.6214 17.7833 22.5042 
17.7833H29.85C30.1319 17.7833 30.3165 17.9679 30.3165 18.2499V23.4968C30.3165 23.7631 30.2012 24.0215 
29.9667 24.0215H22.3293H22.3289ZM17.7815 20.757C17.7815 21.6228 17.8997 22.2688 18.2462 22.974C18.4742 
23.4382 18.6491 23.6574 18.9606 24.0086C19.0653 24.1267 19.1092 24.2236 19.2287 24.3238C20.0824 25.0381 
21.0681 25.5961 22.6201 25.5961H28.6834V29.7355C28.6834 30.7078 27.9653 31.4845 26.9925 
31.4845H3.20632C2.2783 31.4845 1.51548 30.7143 1.51548 29.7936V12.0126C1.51548 11.4597 1.80114 11.0093 
2.11448 10.7463C2.33737 10.5585 2.44304 10.5188 2.71347 10.4389L26.6427 10.3217C27.3336 10.3217 27.6921 
10.4168 28.0839 10.7458C28.4171 11.0255 28.6829 11.4856 28.6829 12.0703V16.0929C28.6829 16.1681 28.7508 
16.2166 28.5043 16.2549C27.6289 16.3915 22.4244 16.0657 21.2846 16.3901C20.0197 16.7501 19.1636 17.3703 
18.4691 18.4718C18.327 18.697 18.2379 18.8821 18.1313 19.1253C17.9643 19.5074 17.7811 20.2097 17.7811 
20.757H17.7815ZM13.817 8.8058C13.9541 8.68674 14.2092 8.6355 14.4003 8.57274L18.6634 7.12234C19.4931 
6.84592 20.267 6.56764 21.0972 6.29121C23.8947 5.35904 23.6316 5.15692 23.969 6.17447C24.0954 6.55657 
24.8148 8.55013 24.8361 8.80532H13.8175L13.817 8.8058ZM11.1021 6.38259C11.7764 5.9788 17.1382 2.54682 
17.548 2.45129C17.7584 2.5925 17.7091 2.52606 17.8443 2.73834L19.4138 5.25013L14.961 6.74392C13.493 
7.23355 12.0565 7.77301 10.5659 8.2368C8.34298 8.92854 9.67619 8.80625 7.22946 8.80625L11.1026 
6.38306L11.1021 6.38259ZM0 11.8958V30.0853C0 30.4711 0.177666 30.9455 0.310109 31.232C0.753585 32.1914 
1.89805 32.9999 2.91468 32.9999H27.2256C28.4919 32.9999 29.7355 31.9967 30.0955 30.6815C30.3373 29.7982 
30.1989 26.8287 30.1989 25.5961C30.8177 25.2993 31.2187 25.3464 31.659 24.4908C31.7591 24.2961 31.8315 
24.0916 31.8315 23.7889V18.0754C31.8315 17.1391 31.0263 16.337 30.1993 16.2678C30.1993 15.2092 30.3258 
11.6309 30.024 10.905C29.97 10.7758 29.8846 10.5497 29.8117 10.4177C29.7323 10.2747 29.6174 10.1487 
29.5168 10.013C29.4005 9.8561 29.3419 9.76703 29.1845 9.64567C29.0198 9.51922 28.9432 9.42601 28.7987 
9.33187C28.1282 8.89486 27.6266 8.80532 26.5269 8.80532C26.2348 8.25248 26.0673 7.38491 25.9782 
7.19109C25.9718 7.17724 25.9487 7.13665 25.9413 7.12142L25.5449 5.99817C25.3169 5.38857 25.2237 4.63084 
24.4484 4.17952C23.3626 3.54776 22.0501 4.45041 20.872 4.72452C20.8088 4.48686 20.3999 3.91093 20.249 
3.65619L18.8655 1.48404C18.8526 1.47251 18.8148 1.44205 18.8018 1.43098L18.4008 1.1324C18.0335 0.924733 
17.7746 0.934895 17.374 0.934895C16.7164 0.934895 15.6477 1.72862 15.0537 2.1121L12.8608 3.4753C12.0999 
3.93954 11.4035 4.36087 10.6587 4.82973C8.80815 5.99449 6.4731 7.35769 4.68858 8.53768C4.46938 8.68258 
4.34985 8.80165 4.02821 8.80949C3.33369 8.82657 2.9479 8.77026 2.37844 8.9087C1.55055 9.10945 0.772046 
9.70844 0.369641 10.4565C0.157825 10.8501 0.00138577 11.3125 0.00138577 11.8954L0 11.8958Z" 
fill="white"/>
<path fill-rule="evenodd" clip-rule="evenodd" d="M20.8716 20.8738C20.8716 22.7196 23.0493 23.7298 24.472 
22.3173C24.8038 21.9878 25.096 21.4054 25.0544 20.8895C24.8205 17.9789 20.8712 18.3573 20.8712 
20.8738H20.8716Z" fill="white"/>
<path d="M38.881 29V14.1813H45.2954C46.6221 14.1813 47.7652 14.4 48.7249 14.8375C49.6846 15.2609 50.4255 
15.8748 50.9477 16.6793C51.4699 17.4837 51.731 18.4434 51.731 19.5583C51.731 20.6592 51.4699 21.6118 
50.9477 22.4162C50.4255 23.2207 49.6846 23.8417 48.7249 24.2792C47.7652 24.7026 46.6221 24.9143 45.2954 
24.9143H40.7863L42.3105 23.3689V29H38.881ZM42.3105 23.7499L40.7863 22.1199H45.1049C46.1634 22.1199 
46.9537 21.8941 47.4759 21.4424C47.9981 20.9908 48.2592 20.3628 48.2592 19.5583C48.2592 18.7398 47.9981 
18.1047 47.4759 17.6531C46.9537 17.2015 46.1634 16.9756 45.1049 16.9756H40.7863L42.3105 
15.3456V23.7499ZM59.3453 29.1694C58.1316 29.1694 57.0519 28.9153 56.1063 28.4073C55.1749 27.8992 54.4339 
27.2076 53.8835 26.3326C53.3472 25.4435 53.0791 24.4344 53.0791 23.3054C53.0791 22.1622 53.3472 21.1531 
53.8835 20.2781C54.4339 19.389 55.1749 18.6974 56.1063 18.2035C57.0519 17.6954 58.1316 17.4414 59.3453 
17.4414C60.5449 17.4414 61.6175 17.6954 62.5631 18.2035C63.5087 18.6974 64.2496 19.3819 64.7859 
20.2569C65.3222 21.132 65.5903 22.1481 65.5903 23.3054C65.5903 24.4344 65.3222 25.4435 64.7859 
26.3326C64.2496 27.2076 63.5087 27.8992 62.5631 28.4073C61.6175 28.9153 60.5449 29.1694 59.3453 
29.1694ZM59.3453 26.4596C59.8957 26.4596 60.3897 26.3326 60.8272 26.0786C61.2647 25.8246 61.6104 25.4647 
61.8645 24.9989C62.1185 24.5191 62.2455 23.9546 62.2455 23.3054C62.2455 22.6421 62.1185 22.0775 61.8645 
21.6118C61.6104 21.1461 61.2647 20.7862 60.8272 20.5321C60.3897 20.2781 59.8957 20.1511 59.3453 
20.1511C58.7949 20.1511 58.3009 20.2781 57.8634 20.5321C57.4259 20.7862 57.0731 21.1461 56.8049 
21.6118C56.5509 22.0775 56.4239 22.6421 56.4239 23.3054C56.4239 23.9546 56.5509 24.5191 56.8049 
24.9989C57.0731 25.4647 57.4259 25.8246 57.8634 26.0786C58.3009 26.3326 58.7949 26.4596 59.3453 
26.4596ZM73.3019 29.1694C72.074 29.1694 70.9803 28.9224 70.0206 28.4284C69.0609 27.9203 68.3058 27.2218 
67.7554 26.3326C67.2191 25.4435 66.951 24.4344 66.951 23.3054C66.951 22.1622 67.2191 21.1531 67.7554 
20.2781C68.3058 19.389 69.0609 18.6974 70.0206 18.2035C70.9803 17.6954 72.074 17.4414 73.3019 
17.4414C74.5015 17.4414 75.5458 17.6954 76.435 18.2035C77.3241 18.6974 77.9804 19.4102 78.4037 
20.3416L75.8422 21.7176C75.5458 21.1813 75.1719 20.7862 74.7202 20.5321C74.2827 20.2781 73.8029 20.1511 
73.2807 20.1511C72.7162 20.1511 72.2081 20.2781 71.7565 20.5321C71.3049 20.7862 70.945 21.1461 70.6768 
21.6118C70.4228 22.0775 70.2958 22.6421 70.2958 23.3054C70.2958 23.9687 70.4228 24.5332 70.6768 
24.9989C70.945 25.4647 71.3049 25.8246 71.7565 26.0786C72.2081 26.3326 72.7162 26.4596 73.2807 
26.4596C73.8029 26.4596 74.2827 26.3397 74.7202 26.0998C75.1719 25.8457 75.5458 25.4435 75.8422 
24.8931L78.4037 26.2903C77.9804 27.2076 77.3241 27.9203 76.435 28.4284C75.5458 28.9224 74.5015 29.1694 
73.3019 29.1694ZM82.9741 26.6713L83.0588 22.6491L88.3723 17.6107H92.3099L87.208 22.7973L85.4933 
24.1945L82.9741 26.6713ZM80.2432 29V13.2921H83.5457V29H80.2432ZM88.7322 29L84.8793 24.2157L86.954 
21.6541L92.7333 29H88.7322ZM99.3953 29.1694C98.0969 29.1694 96.9537 28.9153 95.9658 28.4073C94.992 
27.8992 94.2369 27.2076 93.7006 26.3326C93.1643 25.4435 92.8962 24.4344 92.8962 23.3054C92.8962 22.1622 
93.1573 21.1531 93.6795 20.2781C94.2158 19.389 94.9426 18.6974 95.8599 18.2035C96.7773 17.6954 97.8146 
17.4414 98.9719 17.4414C100.087 17.4414 101.089 17.6813 101.978 18.1611C102.881 18.6269 103.594 19.3043 
104.116 20.1934C104.638 21.0684 104.899 22.1199 104.899 23.3477C104.899 23.4747 104.892 23.6229 104.878 
23.7923C104.864 23.9475 104.85 24.0957 104.836 24.2368H95.5847V22.3104H103.1L101.83 22.882C101.83 22.2892 
101.71 21.7741 101.47 21.3366C101.23 20.8991 100.898 20.5604 100.475 20.3205C100.052 20.0664 99.5576 
19.9394 98.993 19.9394C98.4285 19.9394 97.9275 20.0664 97.49 20.3205C97.0666 20.5604 96.7349 20.9061 
96.495 21.3578C96.2551 21.7953 96.1351 22.3175 96.1351 22.9243V23.4324C96.1351 24.0534 96.2692 24.6038 
96.5374 25.0836C96.8196 25.5494 97.2077 25.9092 97.7017 26.1633C98.2098 26.4032 98.8025 26.5232 99.4799 
26.5232C100.087 26.5232 100.616 26.4314 101.068 26.2479C101.533 26.0645 101.957 25.7893 102.338 
25.4223L104.095 27.3276C103.573 27.9203 102.916 28.379 102.126 28.7036C101.336 29.0141 100.426 29.1694 
99.3953 29.1694ZM111.755 29.1694C110.415 29.1694 109.37 28.8306 108.622 28.1532C107.874 27.4617 107.5 
26.4385 107.5 25.0836V15.0916H110.803V25.0413C110.803 25.5211 110.93 25.8951 111.184 26.1633C111.438 
26.4173 111.784 26.5443 112.221 26.5443C112.743 26.5443 113.188 26.4032 113.555 26.1209L114.444 
28.4496C114.105 28.6895 113.696 28.873 113.216 29C112.75 29.1129 112.263 29.1694 111.755 29.1694ZM105.743 
20.4051V17.8648H113.639V20.4051H105.743ZM116.531 29V14.1813H123.771C125.634 14.1813 127.031 14.5341 
127.962 15.2397C128.908 15.9454 129.381 16.8769 129.381 18.0341C129.381 18.8104 129.19 19.4878 128.809 
20.0664C128.428 20.6309 127.906 21.0684 127.242 21.3789C126.579 21.6894 125.817 21.8447 124.956 
21.8447L125.358 20.9767C126.29 20.9767 127.115 21.132 127.835 21.4424C128.555 21.7388 129.112 22.1834 
129.508 22.7761C129.917 23.3689 130.121 24.0957 130.121 24.9566C130.121 26.2268 129.62 27.2218 128.618 
27.9415C127.616 28.6472 126.142 29 124.194 29H116.531ZM119.939 26.4173H123.94C124.829 26.4173 125.499 
26.2762 125.951 25.9939C126.417 25.6975 126.65 25.2318 126.65 24.5967C126.65 23.9757 126.417 23.5171 
125.951 23.2207C125.499 22.9102 124.829 22.755 123.94 22.755H119.685V20.2569H123.347C124.18 20.2569 
124.815 20.1158 125.252 19.8335C125.704 19.5372 125.93 19.0926 125.93 18.4999C125.93 17.9212 125.704 
17.4908 125.252 17.2085C124.815 16.9121 124.18 16.764 123.347 16.764H119.939V26.4173Z" fill="white"/>
<path fill-rule="evenodd" clip-rule="evenodd" d="M139.826 26.1089C138.106 26.1089 136.836 25.0167 136.124 
23.5225C135.411 22.0265 135.912 20.2086 137.127 18.9862C137.885 18.224 138.883 17.8024 140.058 
17.8024H149.84C150.215 17.8024 150.461 18.0481 150.461 18.4235V25.4103C150.461 25.7644 150.308 26.1089 
149.995 26.1089H139.826ZM150.306 15.7845H147.901C147.329 15.8356 146.044 15.8115 144.586 
15.7845H139.808C139.207 15.8139 138.723 15.865 138.435 15.9469C136.751 16.4259 135.611 17.2522 134.687 
18.7188C134.497 19.019 134.379 19.2652 134.237 19.589C134.014 20.0978 133.77 21.033 133.77 21.762C133.77 
22.9145 133.928 23.775 134.389 24.7136C134.693 25.3313 134.926 25.6233 135.34 26.0911C135.48 26.2482 
135.538 26.3773 135.697 26.5103C136.835 27.4619 138.147 28.2048 140.213 
28.2048H148.286V28.2154H150.305V28.2048C151.129 27.8093 151.663 27.8719 152.249 26.7334C152.382 26.4737 
152.478 26.2014 152.478 25.7982V18.1907C152.478 16.9438 151.406 15.8761 150.305 15.7845H150.306Z" 
fill="#F48734"/>
<path fill-rule="evenodd" clip-rule="evenodd" d="M137.885 21.9166C137.885 24.3754 140.785 25.7196 142.679 
23.8391C143.121 23.4006 143.51 22.6249 143.455 21.9378C143.143 18.0621 137.885 18.5661 137.885 21.9166Z" 
fill="#F48734"/>
<path d="M159.803 29H156.627V13.2921H159.803V21.3578L163.338 17.5896H167.339L162.999 22.2045L167.509 
29H163.74L160.84 24.6391L159.803 25.7187V29Z" fill="white"/>
</svg>

