<svg width="165" height="34" viewBox="0 0 165 34" 
xmlns="http://www.w3.org/2000/svg">
<path fill-rule="evenodd" clip-rule="evenodd" d="M22.3289 24.054C21.0372 
24.054 20.0833 23.2335 19.549 22.1116C19.0141 20.9884 19.3902 19.6229 
20.303 18.7046C20.872 18.1319 21.6214 17.8158 22.5042 
17.8158H29.85C30.1319 17.8158 30.3165 18.0004 30.3165 
18.2823V23.5293C30.3165 23.7956 30.2012 24.054 29.9667 
24.054H22.3293H22.3289ZM17.7815 20.7895C17.7815 21.6552 17.8997 22.3013 
18.2462 23.0064C18.4742 23.4707 18.6491 23.6899 18.9606 24.0411C19.0653 
24.1592 19.1092 24.2561 19.2287 24.3562C20.0824 25.0706 21.0681 25.6285 
22.6201 25.6285H28.6834V29.768C28.6834 30.7403 27.9653 31.5169 26.9925 
31.5169H3.20632C2.2783 31.5169 1.51548 30.7467 1.51548 
29.8261V12.045C1.51548 11.4922 1.80114 11.0418 2.11448 10.7788C2.33737 
10.5909 2.44304 10.5512 2.71347 10.4714L26.6427 10.3542C27.3336 10.3542 
27.6921 10.4493 28.0839 10.7783C28.4171 11.058 28.6829 11.518 28.6829 
12.1027V16.1254C28.6829 16.2006 28.7508 16.2491 28.5043 16.2874C27.6289 
16.424 22.4244 16.0982 21.2846 16.4226C20.0197 16.7825 19.1636 17.4028 
18.4691 18.5043C18.327 18.7295 18.2379 18.9145 18.1313 19.1577C17.9643 
19.5398 17.7811 20.2422 17.7811 20.7895H17.7815ZM13.817 8.83827C13.9541 
8.71921 14.2092 8.66797 14.4003 8.60521L18.6634 7.15481C19.4931 6.87839 
20.267 6.60011 21.0972 6.32369C23.8947 5.39151 23.6316 5.18939 23.969 
6.20694C24.0954 6.58904 24.8148 8.5826 24.8361 8.83779H13.8175L13.817 
8.83827ZM11.1021 6.41506C11.7764 6.01127 17.1382 2.57929 17.548 
2.48376C17.7584 2.62497 17.7091 2.55853 17.8443 2.77081L19.4138 
5.2826L14.961 6.77639C13.493 7.26602 12.0565 7.80549 10.5659 
8.26927C8.34298 8.96102 9.67619 8.83872 7.22946 8.83872L11.1026 
6.41553L11.1021 6.41506ZM0 11.9283V30.1177C0 30.5035 0.177666 30.9779 
0.310109 31.2645C0.753585 32.2239 1.89805 33.0324 2.91468 
33.0324H27.2256C28.4919 33.0324 29.7355 32.0292 30.0955 30.714C30.3373 
29.8307 30.1989 26.8611 30.1989 25.6285C30.8177 25.3318 31.2187 25.3789 
31.659 24.5233C31.7591 24.3285 31.8315 24.1241 31.8315 
23.8214V18.1079C31.8315 17.1715 31.0263 16.3695 30.1993 16.3003C30.1993 
15.2417 30.3258 11.6634 30.024 10.9375C29.97 10.8083 29.8846 10.5822 
29.8117 10.4502C29.7323 10.3071 29.6174 10.1811 29.5168 10.0455C29.4005 
9.88857 29.3419 9.7995 29.1845 9.67814C29.0198 9.55169 28.9432 9.45848 
28.7987 9.36434C28.1282 8.92733 27.6266 8.83779 26.5269 8.83779C26.2348 
8.28495 26.0673 7.41738 25.9782 7.22356C25.9718 7.20971 25.9487 7.16912 
25.9413 7.15389L25.5449 6.03064C25.3169 5.42104 25.2237 4.66331 24.4484 
4.21199C23.3626 3.58023 22.0501 4.48288 20.872 4.75699C20.8088 4.51934 
20.3999 3.9434 20.249 3.68866L18.8655 1.51652C18.8526 1.50498 18.8148 
1.47453 18.8018 1.46345L18.4008 1.16487C18.0335 0.957204 17.7746 0.967366 
17.374 0.967366C16.7164 0.967366 15.6477 1.76109 15.0537 2.14457L12.8608 
3.50777C12.0999 3.97201 11.4035 4.39334 10.6587 4.8622C8.80815 6.02696 
6.4731 7.39016 4.68858 8.57015C4.46938 8.71505 4.34985 8.83412 4.02821 
8.84196C3.33369 8.85904 2.9479 8.80273 2.37844 8.94117C1.55055 9.14192 
0.772046 9.74091 0.369641 10.489C0.157825 10.8826 0.00138577 11.345 
0.00138577 11.9278L0 11.9283Z" fill="#23a8f2"/>
<path fill-rule="evenodd" clip-rule="evenodd" d="M20.8716 20.9065C20.8716 
22.7524 23.0493 23.7625 24.472 22.35C24.8038 22.0205 25.096 21.4381 
25.0544 20.9222C24.8205 18.0117 20.8712 18.3901 20.8712 20.9065H20.8716Z" 
fill="#23a8f2"/>
<path d="M44.2581 14.2347C46.5021 14.2347 48.1392 14.6651 49.1695 
15.526C50.1997 16.3869 50.7149 17.7135 50.7149 19.5059C50.7149 21.2983 
50.1856 22.6108 49.1271 23.4434C48.0828 24.2761 46.4739 24.6925 44.3005 
24.6925H41.6754V29.0322H39.1774V14.2347H44.2581ZM44.5757 22.4273C45.9588 
22.4273 46.8973 22.1662 47.3912 21.644C47.8993 21.1077 48.1533 20.3315 
48.1533 19.3154C48.1533 18.2851 47.8358 17.5583 47.2007 17.1349C46.5656 
16.7115 45.5706 16.4998 44.2158 16.4998H41.6754V22.4273H44.5757ZM55.8111 
26.0685C56.4886 26.7459 57.3424 27.0846 58.3726 27.0846C59.4029 27.0846 
60.2497 26.7459 60.913 26.0685C61.5904 25.3769 61.9291 24.4878 61.9291 
23.4011C61.9291 22.3144 61.5904 21.4323 60.913 20.7549C60.2497 20.0634 
59.4029 19.7176 58.3726 19.7176C57.3424 19.7176 56.4886 20.0634 55.8111 
20.7549C55.1478 21.4323 54.8162 22.3144 54.8162 23.4011C54.8162 24.4878 
55.1478 25.3769 55.8111 26.0685ZM62.6066 27.5292C61.4775 28.6441 60.0662 
29.2016 58.3726 29.2016C56.6791 29.2016 55.2678 28.6441 54.1387 
27.5292C53.0097 26.4001 52.4452 25.0241 52.4452 23.4011C52.4452 21.7781 
53.0097 20.4091 54.1387 19.2942C55.2678 18.1651 56.6791 17.6006 58.3726 
17.6006C60.0662 17.6006 61.4775 18.1651 62.6066 19.2942C63.7356 20.4091 
64.3001 21.7781 64.3001 23.4011C64.3001 25.0241 63.7356 26.4001 62.6066 
27.5292ZM71.992 29.2016C70.4254 29.2016 69.0776 28.6723 67.9486 
27.6139C66.8195 26.5413 66.255 25.1441 66.255 23.4223C66.255 21.7005 
66.8407 20.3033 68.0121 19.2307C69.1976 18.144 70.6371 17.6006 72.3307 
17.6006C74.0243 17.6006 75.4568 18.1863 76.6281 19.3577L75.231 
21.0724C74.2571 20.2257 73.2763 19.8023 72.2884 19.8023C71.3005 19.8023 
70.4396 20.1339 69.7057 20.7972C68.9859 21.4464 68.626 22.2932 68.626 
23.3376C68.626 24.3679 68.9859 25.2429 69.7057 25.9626C70.4254 26.6824 
71.3075 27.0423 72.3519 27.0423C73.4104 27.0423 74.4053 26.5624 75.3368 
25.6027L76.734 27.127C75.365 28.51 73.7844 29.2016 71.992 29.2016ZM81.5643 
29.0322H79.1933V13.3244H81.5643V22.5543L86.1369 17.77H89.1854L84.9091 
22.2368L89.5029 29.0322H86.6238L83.279 24.0997L81.5643 
25.8356V29.0322ZM101.973 24.4384H93.1453C93.2017 25.257 93.5757 25.9203 
94.2672 26.4284C94.9588 26.9223 95.7491 27.1693 96.6382 27.1693C98.0496 
27.1693 99.1221 26.7247 99.856 25.8356L101.211 27.3175C99.9972 28.5736 
98.4165 29.2016 96.4689 29.2016C94.8882 29.2016 93.5404 28.6794 92.4255 
27.635C91.3247 26.5765 90.7743 25.1652 90.7743 23.4011C90.7743 21.6229 
91.3388 20.2115 92.4678 19.1672C93.5969 18.1228 94.9235 17.6006 96.4477 
17.6006C97.986 17.6006 99.2915 18.0664 100.364 18.9978C101.437 19.9152 
101.973 21.1854 101.973 22.8084V24.4384ZM93.1453 22.5755H99.602C99.602 
21.6299 99.3056 20.9031 98.7129 20.395C98.1201 19.8869 97.3862 19.6329 
96.5112 19.6329C95.6503 19.6329 94.8741 19.9011 94.1826 20.4374C93.491 
20.9595 93.1453 21.6723 93.1453 22.5755ZM107.419 19.6752V25.3911C107.419 
25.9273 107.56 26.3578 107.842 26.6824C108.125 26.9929 108.52 27.1481 
109.028 27.1481C109.536 27.1481 110.023 26.9012 110.489 26.4072L111.462 
28.0796C110.63 28.8276 109.705 29.2016 108.689 29.2016C107.687 29.2016 
106.826 28.8558 106.107 28.1643C105.401 27.4586 105.048 26.513 105.048 
25.3275V19.6752H103.63V17.77H105.048V14.2347H107.419V17.77H110.383V19.6752H107.419ZM120.162 
29.0322H113.685V14.2347H119.443C120.445 14.2347 121.306 14.3546 122.025 
14.5945C122.759 14.8345 123.303 15.1591 123.655 15.5683C124.333 16.3304 
124.672 17.1913 124.672 18.151C124.672 19.3083 124.305 20.1692 123.571 
20.7337C123.303 20.9313 123.119 21.0583 123.02 21.1148C122.922 21.1571 
122.745 21.2347 122.491 21.3477C123.409 21.5452 124.135 21.9616 124.672 
22.5967C125.222 23.2176 125.497 23.9939 125.497 24.9253C125.497 25.9556 
125.144 26.8659 124.439 27.6562C123.606 28.5736 122.181 29.0322 120.162 
29.0322ZM116.183 20.3738H119.358C121.165 20.3738 122.068 19.7599 122.068 
18.5321C122.068 17.8264 121.849 17.3184 121.412 17.0079C120.974 16.6974 
120.297 16.5421 119.379 16.5421H116.183V20.3738ZM116.183 
26.7247H120.099C121.016 26.7247 121.715 26.5836 122.195 26.3013C122.689 
26.005 122.936 25.4546 122.936 24.6501C122.936 23.3376 121.884 22.6813 
119.781 22.6813H116.183V26.7247Z" fill="#177A2F"/>
<path fill-rule="evenodd" clip-rule="evenodd" d="M135.826 26.1413C134.106 
26.1413 132.836 25.049 132.124 23.5549C131.411 22.0588 131.912 20.2409 
133.127 19.0186C133.885 18.2563 134.883 17.8347 136.058 
17.8347H145.84C146.215 17.8347 146.461 18.0805 146.461 
18.4558V25.4426C146.461 25.7968 146.308 26.1413 145.995 
26.1413H135.826ZM146.306 15.8169H143.901C143.329 15.868 142.044 15.8439 
140.586 15.8169H135.808C135.207 15.8463 134.723 15.8974 134.435 
15.9793C132.751 16.4582 131.611 17.2845 130.687 18.7512C130.497 19.0513 
130.379 19.2975 130.237 19.6213C130.014 20.1301 129.77 21.0653 129.77 
21.7943C129.77 22.9468 129.928 23.8074 130.389 24.7459C130.693 25.3636 
130.926 25.6556 131.34 26.1235C131.48 26.2805 131.538 26.4097 131.697 
26.5426C132.835 27.4942 134.147 28.2372 136.213 
28.2372H144.286V28.2478H146.305V28.2372C147.129 27.8416 147.663 27.9042 
148.249 26.7657C148.382 26.506 148.478 26.2338 148.478 
25.8305V18.2231C148.478 16.9761 147.406 15.9084 146.305 15.8169H146.306Z" 
fill="#F48734"/>
<path fill-rule="evenodd" clip-rule="evenodd" d="M133.885 21.9489C133.885 
24.4076 136.785 25.7518 138.679 23.8713C139.121 23.4329 139.51 22.6571 
139.455 21.9701C139.143 18.0943 133.885 18.5983 133.885 21.9489Z" 
fill="#F48734"/>
<path d="M155.21 29.0322H152.839V13.3244H155.21V22.5543L159.783 
17.77H162.831L158.555 22.2368L163.149 29.0322H160.27L156.925 
24.0997L155.21 25.8356V29.0322Z" fill="#177A2F"/>
</svg>

