<svg width="119" height="32" viewBox="0 0 119 32" fill="none" xmlns="http://www.w3.org/2000/svg">
<path d="M0 0L0 31.469H5.79594V16.7596C5.79594 15.6267 6.04183 14.6178 6.53361 13.7327C7.02539 12.8477 7.71036 12.1574 8.58853 11.6617C9.46671 11.1661 10.4678 10.9183 11.5919 10.9183C13.278 10.9183 14.6479 11.467 15.7017 12.5645C16.7907 13.6619 17.3351 15.0603 17.3351 16.7596V31.469H23.1311V15.4851C23.1311 13.5026 22.7096 11.7679 21.8665 10.2811C21.0235 8.7588 19.8643 7.57284 18.3889 6.7232C16.9136 5.87356 15.2275 5.44874 13.3307 5.44874C11.4689 5.44874 9.78285 5.89126 8.27239 6.7763C7.3133 7.32864 6.48782 8.02311 5.79594 8.8597V0H0Z" fill="black"/>
<path d="M95.5528 0V31.469H101.349V18.9716L111.623 31.469H119L107.817 18.2009L118.473 5.97977H111.571L101.349 17.9646V0H95.5528Z" fill="black"/>
<path d="M29.0736 5.97977V31.469H34.8695V5.97977H29.0736Z" fill="black"/>
<path d="M49.906 31.469L38.3668 5.97977H44.7951L51.7032 22.2803L58.6526 5.97977H64.8174L53.2782 31.469H49.906Z" fill="black"/>
<path fill-rule="evenodd" clip-rule="evenodd" d="M72.3069 30.3007C74.3442 31.4336 76.6275 32 79.1566 32C80.9829 32 82.7184 31.6796 84.3631 31.0388V24.9022C83.8561 25.2775 83.2974 25.5901 82.6869 25.8401C81.5979 26.3003 80.4036 26.5304 79.1039 26.5304C77.5935 26.5304 76.2586 26.2118 75.0994 25.5746C73.9403 24.902 73.0445 23.9638 72.4122 22.7602C72.1101 22.1851 71.8802 21.5655 71.7225 20.9016H90.5904C90.6958 20.3706 90.7661 19.8926 90.8012 19.4678C90.8714 19.0076 90.9066 18.5651 90.9066 18.1402C90.9066 15.6975 90.3797 13.5203 89.3259 11.6086C88.3072 9.69694 86.8845 8.19237 85.0579 7.09492C83.2665 5.99747 81.194 5.44874 78.8405 5.44874C76.4167 5.44874 74.2037 6.03287 72.2015 7.20112C70.2344 8.36938 68.6712 9.96245 67.512 11.9804C66.3528 13.9628 65.7732 16.2109 65.7732 18.7244C65.7732 21.2379 66.3528 23.5036 67.512 25.5215C68.7063 27.5394 70.3046 29.1325 72.3069 30.3007ZM71.7404 16.1223C71.8879 15.5282 72.0942 14.9795 72.3596 14.4762C72.9567 13.3079 73.7998 12.4052 74.8887 11.7679C75.9776 11.1307 77.2598 10.8121 78.7351 10.8121C80.1402 10.8121 81.3169 11.0953 82.2653 11.6617C83.2489 12.2282 84.0041 13.0424 84.531 14.1045C84.8262 14.6993 85.0497 15.372 85.2015 16.1223H71.7404Z" fill="black"/>
</svg>
