<svg width="64" height="64" viewBox="0 0 64 64" fill="none" xmlns="http://www.w3.org/2000/svg">
<path d="M0 32C0 40.4869 3.37142 48.6263 9.37258 54.6274C15.3737 60.6286 23.5131 64 32 64C40.4869 64 48.6263 60.6286 54.6274 54.6274C60.6286 
48.6263 64 40.4869 64 32C64 23.5131 60.6286 15.3737 54.6274 9.37258C48.6263 3.37142 40.4869 0 32 0C23.5131 0 15.3737 3.37142 9.37258 
9.37258C3.37142 15.3737 0 23.5131 0 32Z" fill="#F1F2F6"/>
<path d="M4.5466 11.5662L37.3942 1.92107L49.9751 44.7666L17.1275 54.4117L4.5466 11.5662Z" fill="white" stroke="#1D1E2C" stroke-width="1.3175" 
stroke-linecap="round" stroke-linejoin="round"/>
<path d="M11.0403 4.77014H45.2754V49.4237H11.0403V4.77014Z" fill="white" stroke="#1D1E2C" stroke-width="1.3175" stroke-linecap="round" 
stroke-linejoin="round"/>
<path d="M15.5063 9.23627H40.8103V13.7019H15.5063V9.23627Z" fill="#E5E9F2" stroke="#1D1E2C" stroke-width="1.3175" stroke-linecap="round" 
stroke-linejoin="round"/>
<path d="M24.4364 21.143H30.3908" stroke="#1D1E2C" stroke-width="1.3175" stroke-linecap="round" stroke-linejoin="round"/>
<path d="M24.4364 24.1207H37.8332" stroke="#1D1E2C" stroke-width="1.3175" stroke-linecap="round" stroke-linejoin="round"/>
<path d="M24.4364 27.0975H34.1228" stroke="#1D1E2C" stroke-width="1.3175" stroke-linecap="round" stroke-linejoin="round"/>
<path d="M24.4364 36.0281H31.8788" stroke="#1D1E2C" stroke-width="1.3175" stroke-linecap="round" stroke-linejoin="round"/>
<path d="M24.4364 39.0048H39.3212" stroke="#1D1E2C" stroke-width="1.3175" stroke-linecap="round" stroke-linejoin="round"/>
<path d="M24.4364 41.9825H36.3444" stroke="#1D1E2C" stroke-width="1.3175" stroke-linecap="round" stroke-linejoin="round"/>
<path d="M16.919 26.6038V24.63H16.3199V24.1385H16.919V23.5087H16.3199V23.0172H16.919V21.1202H17.7177L18.4473 
23.0172H19.3535V21.1202H19.9602V23.0172H20.5593V23.5087H19.9602V24.1385H20.5593V24.63H19.9602V26.6038H19.1538L18.4242 
24.63H17.518V26.6038H16.919ZM17.5026 23.0172H17.8252L17.5026 22.0649H17.4719L17.5026 23.0172ZM17.518 24.1385H18.2399L18.0095 
23.5087H17.5026L17.518 24.1385ZM18.8543 24.1385H19.3689L19.3535 23.5087H18.6239L18.8543 24.1385ZM19.3535 25.5209H19.3842L19.3612 
24.63H19.0386L19.3535 25.5209Z" fill="#1D1E2C"/>
<path d="M16.919 41.9634V39.9896H16.3199V39.4981H16.919V38.8683H16.3199V38.3768H16.919V36.4799H17.7177L18.4473 
38.3768H19.3535V36.4799H19.9602V38.3768H20.5593V38.8683H19.9602V39.4981H20.5593V39.9896H19.9602V41.9634H19.1538L18.4242 
39.9896H17.518V41.9634H16.919ZM17.5026 38.3768H17.8252L17.5026 37.4245H17.4719L17.5026 38.3768ZM17.518 39.4981H18.2399L18.0095 
38.8683H17.5026L17.518 39.4981ZM18.8543 39.4981H19.3689L19.3535 38.8683H18.6239L18.8543 39.4981ZM19.3535 40.8805H19.3842L19.3612 
39.9896H19.0386L19.3535 40.8805Z" fill="#1D1E2C"/>
<path d="M60.7755 56.1768C61.0387 56.4332 61.2483 56.7393 61.3923 57.0774C61.5362 57.4155 61.6115 57.7788 61.6139 58.1463C61.6163 58.5137 61.5458 
58.878 61.4063 59.2179C61.2668 59.5579 61.0612 59.8667 60.8014 60.1266C60.5416 60.3864 60.2327 60.5921 59.8928 60.7317C59.5529 60.8712 59.1887 
60.9419 58.8212 60.9396C58.4538 60.9372 58.0904 60.862 57.7523 60.7181C57.4142 60.5743 57.108 60.3647 56.8515 60.1016L49.4915 52.7416L53.4163 
48.8168L60.7755 56.1768Z" fill="#E5E9F2"/>
<path d="M60.7755 56.1768C61.0387 56.4332 61.2483 56.7393 61.3923 57.0774C61.5362 57.4155 61.6115 57.7788 61.6139 58.1463C61.6163 58.5137 61.5458 
58.878 61.4063 59.2179C61.2668 59.5579 61.0612 59.8667 60.8014 60.1266C60.5416 60.3864 60.2327 60.5921 59.8928 60.7317C59.5529 60.8712 59.1887 
60.9419 58.8212 60.9396C58.4538 60.9372 58.0904 60.862 57.7523 60.7181C57.4142 60.5743 57.108 60.3647 56.8515 60.1016L49.4915 52.7416L53.4163 
48.8168L60.7755 56.1768Z" stroke="#1D1E2C" stroke-width="1.3175" stroke-linecap="round" stroke-linejoin="round"/>
<path d="M45.5657 46.856L47.5278 44.8933L52.4346 49.7988L50.4725 51.7615L45.5657 46.856Z" fill="white" stroke="#1D1E2C" stroke-width="1.3175" 
stroke-linecap="round" stroke-linejoin="round"/>
<path d="M48.0209 29.6846C49.7675 31.4312 50.957 33.6565 51.4389 36.0791C51.9208 38.5017 51.6735 41.0128 50.7283 43.2949C49.783 45.5769 48.1823 
47.5274 46.1285 48.8997C44.0747 50.272 41.6601 51.0045 39.1901 51.0045C36.72 51.0045 34.3054 50.272 32.2516 48.8997C30.1978 47.5274 28.5971 
45.5769 27.6519 43.2949C26.7067 41.0128 26.4594 38.5017 26.9413 36.0791C27.4232 33.6565 28.6126 31.4312 30.3593 29.6846C32.7016 27.343 35.878 
26.0275 39.1901 26.0275C42.5021 26.0275 45.6786 27.343 48.0209 29.6846Z" fill="white" stroke="#1D1E2C" stroke-width="1.3175" 
stroke-linecap="round" stroke-linejoin="round"/>
<path d="M45.5663 32.1383C46.8276 33.3997 47.6866 35.0068 48.0346 36.7563C48.3826 38.5059 48.204 40.3193 47.5213 41.9673C46.8387 43.6154 45.6827 
45.024 44.1995 46.015C42.7163 47.006 40.9725 47.535 39.1887 47.535C37.4049 47.535 35.6611 47.006 34.1779 46.015C32.6947 45.024 31.5387 43.6154 
30.8561 41.9673C30.1734 40.3193 29.9948 38.5059 30.3428 36.7563C30.6908 35.0068 31.5498 33.3997 32.8111 32.1383C33.6486 31.3007 34.6428 30.6363 
35.7371 30.1829C36.8314 29.7296 38.0042 29.4963 39.1887 29.4963C40.3732 29.4963 41.546 29.7296 42.6403 30.1829C43.7346 30.6363 44.7288 31.3007 
45.5663 32.1383Z" fill="#E5E9F2"/>
<path d="M45.5663 32.1383C46.8276 33.3997 47.6866 35.0068 48.0346 36.7563C48.3826 38.5059 48.204 40.3193 47.5213 41.9673C46.8387 43.6154 45.6827 
45.024 44.1995 46.015C42.7163 47.006 40.9725 47.535 39.1887 47.535C37.4049 47.535 35.6611 47.006 34.1779 46.015C32.6947 45.024 31.5387 43.6154 
30.8561 41.9673C30.1734 40.3193 29.9948 38.5059 30.3428 36.7563C30.6908 35.0068 31.5498 33.3997 32.8111 32.1383C33.6486 31.3007 34.6428 30.6363 
35.7371 30.1829C36.8314 29.7296 38.0042 29.4963 39.1887 29.4963C40.3732 29.4963 41.546 29.7296 42.6403 30.1829C43.7346 30.6363 44.7288 31.3007 
45.5663 32.1383Z" stroke="#1D1E2C" stroke-width="1.3175" stroke-linecap="round" stroke-linejoin="round"/>
<path d="M20.6187 59.9848C20.6187 60.4297 21.9146 60.8564 24.2215 61.171C26.5283 61.4856 29.6571 61.6624 32.9195 61.6624C36.1818 61.6624 39.3106 
61.4856 41.6174 61.171C43.9243 60.8564 45.2203 60.4297 45.2203 59.9848C45.2203 59.5399 43.9243 59.1132 41.6174 58.7985C39.3106 58.4839 36.1818 
58.3072 32.9195 58.3072C29.6571 58.3072 26.5283 58.4839 24.2215 58.7985C21.9146 59.1132 20.6187 59.5399 20.6187 59.9848Z" fill="#E5E9F2"/>
</svg>

