<svg width="25" height="24" viewBox="0 0 25 24" fill="none" xmlns="http://www.w3.org/2000/svg">
<path fill-rule="evenodd" clip-rule="evenodd" d="M11.1997 20.106C11.7177 20.683 12.3827 21 13.0727 
21H13.0737C13.7667 21 14.4347 20.683 14.9537 20.105C15.2317 19.798 15.7057 19.773 16.0127 20.05C16.3207 
20.327 16.3457 20.802 16.0687 21.109C15.2607 22.006 14.1977 22.5 13.0737 22.5H13.0717C11.9507 22.499 
10.8897 22.005 10.0847 21.108C9.80771 20.801 9.83271 20.326 10.1407 20.05C10.4487 19.772 10.9227 19.797 
11.1997 20.106ZM13.1225 1C17.5675 1 20.5535 4.462 20.5535 7.695C20.5535 9.358 20.9765 10.063 21.4255 
10.811C21.8695 11.549 22.3725 12.387 22.3725 13.971C22.0235 18.018 17.7985 18.348 13.1225 18.348C8.44651 
18.348 4.22051 18.018 3.8755 14.035C3.87251 12.387 4.37551 11.549 4.81951 10.811L4.97626 10.5472C5.36219 
9.88386 5.69151 9.16235 5.69151 7.695C5.69151 4.462 8.67751 1 13.1225 1ZM13.1225 2.5C9.62751 2.5 7.19151 
5.238 7.19151 7.695C7.19151 9.774 6.61451 10.735 6.10451 11.583C5.69551 12.264 5.37251 12.802 5.37251 
13.971C5.53951 15.857 6.78451 16.848 13.1225 16.848C19.4255 16.848 20.7095 15.813 20.8755 13.906C20.8725 
12.802 20.5495 12.264 20.1405 11.583C19.6305 10.735 19.0535 9.774 19.0535 7.695C19.0535 5.238 16.6175 2.5 
13.1225 2.5Z" fill="black"/>
</svg>

