<svg width="14" height="14" viewBox="0 0 14 14" fill="none" xmlns="http://www.w3.org/2000/svg">
<path d="M7.00004 0.333374C3.32404 0.333374 0.333374 3.32404 0.333374 7.00004C0.333374 10.676 3.32404 
13.6667 7.00004 13.6667C10.676 13.6667 13.6667 10.676 13.6667 7.00004C13.6667 3.32404 10.676 0.333374 
7.00004 0.333374ZM7.66671 11H6.33337V9.66671H7.66671V11ZM8.31737 7.74337C8.18671 7.84871 8.06071 7.94937 
7.96071 8.04937C7.68871 8.32071 7.66737 8.56737 7.66671 8.57804V8.66671H6.33337V8.55537C6.33337 8.47671 
6.35271 7.77071 7.01737 7.10604C7.14737 6.97604 7.30871 6.84404 7.47804 6.70671C7.96737 6.31004 8.28871 
6.02071 8.28871 5.62204C8.28096 5.28525 8.14171 4.96487 7.90075 4.72945C7.65979 4.49403 7.33626 4.36227 
6.99938 4.36235C6.66251 4.36244 6.33904 4.49437 6.0982 4.72992C5.85737 4.96547 5.71828 5.28592 5.71071 
5.62271H4.37737C4.37737 4.17671 5.55404 3.00004 7.00004 3.00004C8.44604 3.00004 9.62271 4.17671 9.62271 
5.62271C9.62271 6.68737 8.83671 7.32271 8.31737 7.74337Z" fill="#59605B"/>
</svg>

