<svg width="25" height="24" viewBox="0 0 25 24" fill="none" 
xmlns="http://www.w3.org/2000/svg">
<path fill-rule="evenodd" clip-rule="evenodd" d="M3.1665 20.25C3.1665 
20.4489 3.24552 20.6397 3.38617 20.7803C3.52683 20.921 3.71759 21 3.9165 
21H12.9165C13.1154 21 13.3062 20.921 13.4468 20.7803C13.5875 20.6397 
13.6665 20.4489 13.6665 20.25C13.6665 20.0511 13.5875 19.8603 13.4468 
19.7197C13.3062 19.579 13.1154 19.5 12.9165 19.5H5.727L20.9475 
4.281C21.0883 4.14017 21.1674 3.94916 21.1674 3.75C21.1674 3.55084 21.0883 
3.35983 20.9475 3.219C20.8067 3.07817 20.6157 2.99905 20.4165 
2.99905C20.2173 2.99905 20.0263 3.07817 19.8855 3.219L4.6665 
18.4395V11.25C4.6665 11.0511 4.58749 10.8603 4.44683 10.7197C4.30618 
10.579 4.11542 10.5 3.9165 10.5C3.71759 10.5 3.52683 10.579 3.38617 
10.7197C3.24552 10.8603 3.1665 11.0511 3.1665 11.25V20.25Z" fill="black"/>
</svg>

