<svg width="18" height="18" viewBox="0 0 18 18" fill="none" xmlns="http://www.w3.org/2000/svg">
<path fill-rule="evenodd" clip-rule="evenodd" d="M11.4214 12.5998C10.2925 13.4774 8.87393 14 7.33334 
14C3.65144 14 0.666672 11.0152 0.666672 7.33329C0.666672 3.65139 3.65144 0.666626 7.33334 
0.666626C11.0152 0.666626 14 3.65139 14 7.33329C14 8.87389 13.4774 10.2924 12.5999 11.4213L17.0893 
15.9107C17.4147 16.2361 17.4147 16.7638 17.0893 17.0892C16.7638 17.4147 16.2362 17.4147 15.9107 
17.0892L11.4214 12.5998ZM12.3333 7.33329C12.3333 10.0947 10.0948 12.3333 7.33334 12.3333C4.57191 12.3333 
2.33334 10.0947 2.33334 7.33329C2.33334 4.57187 4.57191 2.33329 7.33334 2.33329C10.0948 2.33329 12.3333 
4.57187 12.3333 7.33329Z" fill="#777E91"/>
</svg>

