<svg width="19" height="18" viewBox="0 0 19 18" fill="none" 
xmlns="http://www.w3.org/2000/svg">
<path fill-rule="evenodd" clip-rule="evenodd" d="M18.5 0.75C18.5 0.551088 
18.421 0.360323 18.2803 0.219669C18.1397 0.0790176 17.9489 0 17.75 
0H8.75C8.55109 0 8.36032 0.0790176 8.21967 0.219669C8.07902 0.360323 8 
0.551088 8 0.75C8 0.948914 8.07902 1.13968 8.21967 1.28033C8.36032 1.42098 
8.55109 1.5 8.75 1.5H15.9395L0.719002 16.719C0.578171 16.8598 0.499054 
17.0508 0.499054 17.25C0.499054 17.4492 0.578171 17.6402 0.719002 
17.781C0.859831 17.9218 1.05084 18.0009 1.25 18.0009C1.44917 18.0009 
1.64017 17.9218 1.781 17.781L17 2.5605V9.75C17 9.94891 17.079 10.1397 
17.2197 10.2803C17.3603 10.421 17.5511 10.5 17.75 10.5C17.9489 10.5 
18.1397 10.421 18.2803 10.2803C18.421 10.1397 18.5 9.94891 18.5 
9.75V0.75Z" fill="black"/>
</svg>

