<svg width="24" height="24" viewBox="0 0 24 24" fill="none" xmlns="http://www.w3.org/2000/svg">
    <g clip-path="url(#clip0_181_12165)">
        <path fill-rule="evenodd" clip-rule="evenodd"
            d="M12.5298 -0.197772C12.3891 -0.338424 12.1983 -0.417442 11.9994 -0.417443C11.8005 -0.417442 11.6098 -0.338425 11.4691 -0.197772L5.10515 6.16619C4.96449 6.30684 4.88548 6.49761 4.88548 6.69652C4.88548 6.89543 4.96449 7.0862 5.10515 7.22685C5.2458 7.3675 5.43656 7.44652 5.63548 7.44652C5.83439 7.44652 6.02515 7.3675 6.16581 7.22685L11.2495 2.1431L11.2485 23.6671C11.2485 23.8662 11.3276 24.0572 11.4684 24.1981C11.6093 24.3389 11.8003 24.418 11.9994 24.418C12.1986 24.418 12.3896 24.3389 12.5304 24.1981C12.6713 24.0572 12.7504 23.8662 12.7504 23.6671L12.7493 2.1431L17.8331 7.22685C17.9737 7.3675 18.1645 7.44652 18.3634 7.44652C18.5623 7.44652 18.7531 7.3675 18.8937 7.22685C19.0344 7.0862 19.1134 6.89543 19.1134 6.69652C19.1134 6.49761 19.0344 6.30684 18.8937 6.16619L12.5298 -0.197772Z"
            fill="black" />
    </g>
    <defs>
        <clipPath id="clip0_181_12165">
            <rect width="24" height="24" fill="white" transform="translate(24 24) rotate(-180)" />
        </clipPath>
    </defs>
</svg>