<svg width="17" height="16" viewBox="0 0 17 16" fill="none" xmlns="http://www.w3.org/2000/svg">
<path fill-rule="evenodd" clip-rule="evenodd" d="M4.98701 6.80478C5.24736 7.06513 5.66947 7.06513 5.92982 
6.80478L7.79175 4.94285L9.65368 6.80478C9.91403 7.06513 10.3361 7.06513 10.5965 6.80478C10.8568 6.54443 
10.8568 6.12232 10.5965 5.86197L8.26315 3.52864C8.0028 3.26829 7.58069 3.26829 7.32034 3.52864L4.98701 
5.86197C4.72666 6.12232 4.72666 6.54443 4.98701 6.80478Z" fill="#59605B"/>
<path fill-rule="evenodd" clip-rule="evenodd" d="M4.98701 9.1951C5.24736 8.93475 5.66947 8.93475 5.92982 
9.1951L7.79175 11.057L9.65368 9.1951C9.91403 8.93475 10.3361 8.93475 10.5965 9.1951C10.8568 9.45545 
10.8568 9.87756 10.5965 10.1379L8.26315 12.4712C8.0028 12.7316 7.58069 12.7316 7.32034 12.4712L4.98701 
10.1379C4.72666 9.87756 4.72666 9.45545 4.98701 9.1951Z" fill="#59605B"/>
</svg>

