<svg width="94" height="94" viewBox="0 0 94 94" fill="none" xmlns="http://www.w3.org/2000/svg">
<path opacity="0.1" d="M82.875 0H10.625C4.75697 0 0 4.75697 0 10.625V65.875C0 71.743 4.75697 76.5 10.625 76.5H82.875C88.743 76.5 93.5 71.743 93.5 65.875V10.625C93.5 4.75697 88.743 0 82.875 0Z" fill="black"/>
<path d="M48.5011 56.1722C48.3253 55.9422 48.106 55.7491 47.8556 55.6039C47.6052 55.4587 47.3286 55.3643 47.0416 55.326C46.7547 55.2877 46.4631 55.3063 46.1833 55.3808C45.9036 55.4553 45.6413 55.5841 45.4114 55.76C45.256 55.8782 45.1173 56.0169 44.9991 56.1722L21.6241 90.1722C21.4051 90.4913 21.2773 90.8641 21.2546 91.2505C21.2319 91.6368 21.3152 92.022 21.4954 92.3645C21.6756 92.707 21.946 92.9938 22.2772 93.1939C22.6085 93.394 22.9881 93.4998 23.3751 93.5H70.1251C70.5121 93.4998 70.8917 93.394 71.223 93.1939C71.5543 92.9938 71.8246 92.707 72.0048 92.3645C72.185 92.022 72.2683 91.6368 72.2456 91.2505C72.2229 90.8641 72.0952 90.4913 71.8761 90.1722L48.5011 56.1722Z" fill="black"/>
</svg>
