<svg width="20" height="20" viewBox="0 0 20 20" fill="none" xmlns="http://www.w3.org/2000/svg">
<path d="M12.5 12.9167C12.5 15.9083 10.075 18.3333 7.08332 18.3333C4.09166 18.3333 1.66666 15.9083 
1.66666 12.9167C1.66666 9.925 4.09166 7.5 7.08332 7.5C7.22499 7.5 7.37499 7.50833 7.51666 7.51667C10.1583 
7.725 12.275 9.84167 12.4833 12.4833C12.4917 12.625 12.5 12.775 12.5 12.9167Z" fill="white"/>
<path d="M18.3333 7.08329C18.3333 9.79996 16.3333 12.0416 13.7333 12.4333V12.3833C13.475 9.14996 10.85 
6.52496 7.59168 6.26663H7.56668C7.95835 3.66663 10.2 1.66663 12.9167 1.66663C15.9083 1.66663 18.3333 
4.09163 18.3333 7.08329Z" fill="white"/>
<path d="M4.65832 1.66663H2.49999C2.04166 1.66663 1.66666 2.04163 1.66666 2.49996V4.65829C1.66666 5.39996 
2.56666 5.77496 3.09166 5.24996L5.24999 3.09163C5.76666 2.56663 5.39999 1.66663 4.65832 1.66663Z" 
fill="white"/>
<path d="M15.3417 18.3333H17.5C17.9583 18.3333 18.3333 17.9583 18.3333 17.5V15.3417C18.3333 14.6 17.4333 
14.225 16.9083 14.75L14.75 16.9083C14.2333 17.4333 14.6 18.3333 15.3417 18.3333Z" fill="white"/>
</svg>

