<svg width="20" height="20" viewBox="0 0 20 20" fill="none" xmlns="http://www.w3.org/2000/svg">
<path d="M12.475 18.9583H7.475C2.95 18.9583 1.01666 17.025 1.01666 12.5V7.49996C1.01666 2.97496 2.95 
1.04163 7.475 1.04163H12.475C17 1.04163 18.9333 2.97496 18.9333 7.49996V12.5C18.9333 17.025 17.0083 
18.9583 12.475 18.9583ZM7.475 2.29163C3.63333 2.29163 2.26666 3.65829 2.26666 7.49996V12.5C2.26666 
16.3416 3.63333 17.7083 7.475 17.7083H12.475C16.3167 17.7083 17.6833 16.3416 17.6833 12.5V7.49996C17.6833 
3.65829 16.3167 2.29163 12.475 2.29163H7.475Z" fill="white"/>
<path d="M9.54166 15.0499C9.34166 15.0499 8.85833 14.9749 8.57499 14.2499L7.62499 11.8499C7.49166 11.5083 
7.01666 11.1916 6.65833 11.1916L1.65833 11.2083C1.31666 11.2083 1.03333 10.9333 1.03333 10.5833C1.03333 
10.2416 1.30833 9.95828 1.65833 9.95828L6.65833 9.94161H6.66666C7.54166 9.94161 8.47499 10.5749 8.79999 
11.3916L9.55833 13.3083L11.275 8.95828C11.5333 8.30828 11.9917 8.21661 12.1833 8.19995C12.375 8.19161 
12.8417 8.23328 13.1667 8.84994L14.0333 10.4916C14.1833 10.7749 14.6333 11.0499 14.9583 
11.0499H18.3417C18.6833 11.0499 18.9667 11.3333 18.9667 11.6749C18.9667 12.0166 18.6833 12.2999 18.3417 
12.2999H14.9583C14.1667 12.2999 13.3 11.7749 12.9333 11.0749L12.2833 9.84161L10.5333 14.2499C10.225 
14.9666 9.73333 15.0499 9.54166 15.0499Z" fill="white"/>
</svg>

