<svg width="20" height="20" viewBox="0 0 20 20" fill="none" xmlns="http://www.w3.org/2000/svg">
<path d="M9.58353 18.9584C8.92519 18.9584 8.3002 18.6167 7.86686 18.0334L7.01685 16.9167C6.84185 16.6834 
6.60853 16.55 6.35853 16.5334C6.11686 16.5167 5.85855 16.6334 5.65022 16.8417C4.93355 17.6084 4.23351 
17.9751 3.57517 17.9584C3.12517 17.9417 2.73351 17.7417 2.43351 17.375C2.40018 17.3334 2.36686 17.2751 
2.34186 17.2167C2.01686 16.5167 1.86685 15.5667 1.86685 14.1417V5.87505C1.86685 4.45005 2.01686 3.50838 
2.34186 2.80005C2.36686 2.75005 2.39185 2.70005 2.43351 2.65838C2.72518 2.28338 3.11688 2.08338 3.56688 
2.05838C4.23355 2.03338 4.94188 2.41672 5.64188 3.16672C5.85021 3.39172 6.10019 3.50005 6.35019 
3.48338C6.60019 3.46672 6.8335 3.33338 7.0085 3.10005L7.85852 1.97505C8.29185 1.39172 8.91685 1.05005 
9.57518 1.05005C10.2335 1.05005 10.8585 1.39172 11.2918 1.97505L12.1335 3.09172C12.3085 3.33338 12.5502 
3.46672 12.8085 3.48338C13.0502 3.50005 13.3085 3.38338 13.5168 3.16672C14.2002 2.43338 14.8752 2.05838 
15.5252 2.05838C15.9919 2.05838 16.4252 2.26672 16.7252 2.65838C16.7585 2.70005 16.7919 2.75005 16.8169 
2.80838C17.1419 3.50838 17.2919 4.45838 17.2919 5.88338V14.15C17.2919 15.575 17.1419 16.5167 16.8169 
17.225C16.7835 17.3 16.7419 17.3667 16.6835 17.4251C16.4252 17.7584 16.0002 17.9667 15.5252 
17.9667C14.8752 17.9667 14.2002 17.5917 13.5168 16.8584C13.3168 16.6417 13.0419 16.525 12.8085 
16.5417C12.5502 16.5584 12.3169 16.6917 12.1335 16.9334L11.2918 18.0501C10.8668 18.6167 10.2419 18.9584 
9.58353 18.9584ZM6.31687 15.2751C6.35021 15.2751 6.39188 15.2751 6.42521 15.2751C7.04188 15.3084 7.61685 
15.6334 8.00851 16.1584L8.85853 17.2834C9.26686 17.8334 9.88351 17.8334 10.2918 17.2917L11.1335 
16.175C11.5335 15.6417 12.1169 15.325 12.7336 15.2917C13.3502 15.2584 13.9668 15.5167 14.4168 
16.0001C15.0335 16.6584 15.4085 16.7084 15.5085 16.7084C15.5752 16.7084 15.6335 16.6917 15.6919 
16.6417C15.9252 16.1167 16.0252 15.3251 16.0252 14.1417V5.87505C16.0252 4.70838 15.9169 3.91672 15.6919 
3.39172C15.6252 3.31672 15.5585 3.30838 15.5085 3.30838C15.4085 3.30838 15.0335 3.35838 14.4168 
4.01672C13.9668 4.50005 13.3502 4.75838 12.7336 4.72505C12.1086 4.69172 11.5252 4.36672 11.1252 
3.84172L10.2835 2.72505C9.87522 2.17505 9.25852 2.17505 8.85019 2.72505L8.00017 3.85838C7.60851 4.38338 
7.03354 4.70005 6.41687 4.73338C5.8002 4.76672 5.18352 4.50838 4.73352 4.03338C4.22519 3.48338 3.83355 
3.30005 3.61688 3.30838C3.56688 3.30838 3.50853 3.32505 3.44186 3.39172C3.21686 3.91672 3.10851 4.70838 
3.10851 5.87505V14.1417C3.10851 15.3167 3.21686 16.1084 3.44186 16.6334C3.51686 16.7 3.56688 16.7084 
3.61688 16.7167C3.82522 16.725 4.21685 16.5417 4.72518 16.0001C5.16685 15.5251 5.74187 15.2751 6.31687 
15.2751Z" fill="white"/>
<path d="M13.3333 9.16663H6.66666C6.32499 9.16663 6.04166 8.88329 6.04166 8.54163C6.04166 8.19996 6.32499 
7.91663 6.66666 7.91663H13.3333C13.675 7.91663 13.9583 8.19996 13.9583 8.54163C13.9583 8.88329 13.675 
9.16663 13.3333 9.16663Z" fill="white"/>
<path d="M11.6667 12.0834H6.66666C6.32499 12.0834 6.04166 11.8 6.04166 11.4584C6.04166 11.1167 6.32499 
10.8334 6.66666 10.8334H11.6667C12.0083 10.8334 12.2917 11.1167 12.2917 11.4584C12.2917 11.8 12.0083 
12.0834 11.6667 12.0834Z" fill="white"/>
</svg>

