<svg width="0" height="0" class="hidden">
      <symbol fill="none" xmlns="http://www.w3.org/2000/svg" viewBox="0 0 40 40" id="no_image">
        <g opacity=".5" stroke="#3C64B1" stroke-width="1.5" stroke-linecap="round" stroke-linejoin="round">
            <path
                d="M31.667 5H8.333A3.333 3.333 0 005 8.333v23.334A3.333 3.333 0 008.333 35h23.334A3.333 3.333 0 0035 31.667V8.333A3.333 3.333 0 0031.667 5z">
            </path>
            <path d="M14.167 16.668a2.5 2.5 0 100-5 2.5 2.5 0 000 5zM35 25.001l-8.333-8.333L8.333 35.001"></path>
        </g>
    </symbol>
  <symbol fill="none" xmlns="http://www.w3.org/2000/svg" viewBox="0 0 25 24" id="downarr">
    <g clip-path="url(#clip0_178_10287)">
      <path fill-rule="evenodd" clip-rule="evenodd"
        d="M11.9693 24.1987C12.1099 24.3394 12.3007 24.4184 12.4996 24.4184C12.6985 24.4184 12.8893 24.3394 13.0299 24.1987L19.3939 17.8348C19.5345 17.6941 19.6135 17.5034 19.6135 17.3045C19.6135 17.1055 19.5345 16.9148 19.3939 16.7741C19.2532 16.6335 19.0625 16.5545 18.8635 16.5545C18.6646 16.5545 18.4739 16.6335 18.3332 16.7741L13.2495 21.8579L13.2505 0.333897C13.2505 0.134732 13.1714 -0.0562737 13.0306 -0.197104C12.8898 -0.337934 12.6988 -0.417052 12.4996 -0.417051C12.3004 -0.417051 12.1094 -0.337933 11.9686 -0.197103C11.8278 -0.0562733 11.7486 0.134732 11.7486 0.333897L11.7497 21.8579L6.66596 16.7741C6.5253 16.6335 6.33454 16.5545 6.13563 16.5545C5.93671 16.5545 5.74595 16.6335 5.6053 16.7741C5.46464 16.9148 5.38563 17.1055 5.38563 17.3045C5.38563 17.5034 5.46464 17.6941 5.6053 17.8348L11.9693 24.1987Z"
        fill="black"></path>
    </g>
    <defs>
      <clipPath id="clip0_178_10287">
        <rect width="24" height="24" fill="white" transform="translate(24.5 24) rotate(-180)"></rect>
      </clipPath>
    </defs>
  </symbol>
  <symbol fill="none" xmlns="http://www.w3.org/2000/svg" viewBox="0 0 24 24" id="uparr">
    <g clip-path="url(#clip0_181_12165)">
      <path fill-rule="evenodd" clip-rule="evenodd"
        d="M12.5298 -0.197772C12.3891 -0.338424 12.1983 -0.417442 11.9994 -0.417443C11.8005 -0.417442 11.6098 -0.338425 11.4691 -0.197772L5.10515 6.16619C4.96449 6.30684 4.88548 6.49761 4.88548 6.69652C4.88548 6.89543 4.96449 7.0862 5.10515 7.22685C5.2458 7.3675 5.43656 7.44652 5.63548 7.44652C5.83439 7.44652 6.02515 7.3675 6.16581 7.22685L11.2495 2.1431L11.2485 23.6671C11.2485 23.8662 11.3276 24.0572 11.4684 24.1981C11.6093 24.3389 11.8003 24.418 11.9994 24.418C12.1986 24.418 12.3896 24.3389 12.5304 24.1981C12.6713 24.0572 12.7504 23.8662 12.7504 23.6671L12.7493 2.1431L17.8331 7.22685C17.9737 7.3675 18.1645 7.44652 18.3634 7.44652C18.5623 7.44652 18.7531 7.3675 18.8937 7.22685C19.0344 7.0862 19.1134 6.89543 19.1134 6.69652C19.1134 6.49761 19.0344 6.30684 18.8937 6.16619L12.5298 -0.197772Z"
        fill="black"></path>
    </g>
    <defs>
      <clipPath id="clip0_181_12165">
        <rect width="24" height="24" fill="white" transform="translate(24 24) rotate(-180)"></rect>
      </clipPath>
    </defs>
  </symbol>
  <symbol fill="none" xmlns="http://www.w3.org/2000/svg" viewBox="0 0 24 24" id="goback">
    <path
      d="M15 20.67C14.81 20.67 14.62 20.6 14.47 20.45L7.95003 13.93C6.89003 12.87 6.89003 11.13 7.95003 10.07L14.47 3.55002C14.76 3.26002 15.24 3.26002 15.53 3.55002C15.82 3.84002 15.82 4.32002 15.53 4.61002L9.01003 11.13C8.53003 11.61 8.53003 12.39 9.01003 12.87L15.53 19.39C15.82 19.68 15.82 20.16 15.53 20.45C15.38 20.59 15.19 20.67 15 20.67Z"
      fill="#292D32"></path>
  </symbol>

  <symbol fill="none" xmlns="http://www.w3.org/2000/svg" viewBox="0 0 24 24" id="check">
    <path d="M21.4286 0H2.57143C1.88944 0 1.23539 0.270918 0.753154 0.753154C0.270918 1.23539 0 1.88944 0 
2.57143L0 21.4286C0 22.1106 0.270918 22.7646 0.753154 23.2468C1.23539 23.7291 1.88944 24 2.57143 
24H21.4286C22.1106 24 22.7646 23.7291 23.2468 23.2468C23.7291 22.7646 24 22.1106 24 21.4286V2.57143C24 
1.88944 23.7291 1.23539 23.2468 0.753154C22.7646 0.270918 22.1106 0 21.4286 0ZM20.3202 8.88964L10.463 
18.7468C10.3023 18.9074 10.0844 18.9976 9.85714 18.9976C9.62991 18.9976 9.41198 18.9074 9.25125 
18.7468L3.67982 13.1754C3.60021 13.0958 3.53705 13.0013 3.49397 12.8973C3.45088 12.7932 3.4287 12.6818 
3.4287 12.5692C3.4287 12.4566 3.45088 12.3451 3.49397 12.2411C3.53705 12.1371 3.60021 12.0426 3.67982 
11.963L4.89161 10.7513C4.9712 10.6716 5.0657 10.6085 5.16971 10.5654C5.27371 10.5223 5.38519 10.5001 
5.49777 10.5001C5.61035 10.5001 5.72182 10.5223 5.82583 10.5654C5.92983 10.6085 6.02433 10.6716 6.10393 
10.7513L9.85714 14.5045L17.8961 6.46554C17.9757 6.38592 18.0702 6.32277 18.1742 6.27968C18.2782 6.23659 
18.3897 6.21442 18.5022 6.21442C18.6148 6.21442 18.7263 6.23659 18.8303 6.27968C18.9343 6.32277 19.0288 
6.38592 19.1084 6.46554L20.3202 7.67732C20.3998 7.75692 20.4629 7.85142 20.506 7.95542C20.5491 8.05943 
20.5713 8.1709 20.5713 8.28348C20.5713 8.39606 20.5491 8.50754 20.506 8.61154C20.4629 8.71555 20.3998 
8.81005 20.3202 8.88964Z" fill="#23a8f2"></path>
  </symbol>
  <symbol fill="none" xmlns="http://www.w3.org/2000/svg" viewBox="0 0 20 20" id="drop_down">
    <path fill-rule="evenodd" clip-rule="evenodd" d="M9.99991 14.0967L4.35151 8.4483L6.04831 6.7515L9.99991 
10.7031L13.9515 6.7515L15.6483 8.4483L9.99991 14.0967ZM9.9999 0.399902C4.6983 0.399902 0.399902 4.6971 
0.399902 9.9999C0.399902 15.3015 4.6983 19.5999 9.9999 19.5999C15.3015 19.5999 19.5999 15.3015 19.5999 
9.9999C19.5999 4.6971 15.3015 0.399902 9.9999 0.399902Z" fill="#8BBC97"></path>
  </symbol>
  <symbol fill="none" xmlns="http://www.w3.org/2000/svg" viewBox="0 0 18 10" id="drop">
    <path d="M17.5005 0.989236C17.3666 0.858402 17.1867 0.785156 16.9995 0.785156C16.8123 0.785156 16.6324 
0.858402 16.4985 0.989236L9 8.29874L1.503 0.989235C1.36905 0.858402 1.18924 0.785156 1.002 
0.785156C0.814756 0.785156 0.634943 0.858402 0.500998 0.989235C0.435682 1.05283 0.383768 1.12886 0.348322 
1.21285C0.312874 1.29684 0.294613 1.38707 0.294613 1.47823C0.294613 1.5694 0.312874 1.65963 0.348322 
1.74362C0.383768 1.82761 0.435682 1.90364 0.500997 1.96724L8.4765 9.74024C8.61656 9.87676 8.80441 9.95316 
9 9.95316C9.19559 9.95316 9.38344 9.87676 9.5235 9.74024L17.499 1.96724C17.5643 1.90364 17.6162 1.82761 
17.6517 1.74362C17.6871 1.65963 17.7054 1.5694 17.7054 1.47824C17.7054 1.38707 17.6871 1.29684 17.6517 
1.21285C17.6162 1.12886 17.5643 1.05283 17.499 0.989236L17.5005 0.989236Z" fill="#454C47"></path>
  </symbol>
  <symbol fill="none" xmlns="http://www.w3.org/2000/svg" viewBox="0 0 120 120" id="mail">
    <path d="M88.125 116.25C103.658 116.25 116.25 103.658 116.25 88.125C116.25 
72.592 103.658 60 88.125 60C72.592 60 60 72.592 60 88.125C60 103.658 
72.592 116.25 88.125 116.25Z" fill="#F48734"></path>
    <path opacity="0.25" d="M88.1248 60C83.9771 59.9795 79.8762 60.8766 76.116 
62.6271C72.3558 64.3775 69.0292 66.938 66.3748 70.125C71.7063 65.157 
78.7581 62.4524 86.0443 62.581C93.3306 62.7095 100.283 65.6612 105.436 
70.8142C110.589 75.9672 113.54 82.9191 113.669 90.2054C113.797 97.4917 
111.093 104.543 106.125 109.875C110.621 106.189 113.864 101.201 115.409 
95.5959C116.953 89.9911 116.723 84.0454 114.749 78.5769C112.775 73.1084 
109.156 68.3859 104.388 65.0592C99.62 61.7325 93.9384 59.965 88.1248 60Z" fill="white"></path>
    <path d="M88.125 60C94.2126 59.9864 100.138 61.9615 105 
65.625V22.5H3.75V90H60.1875C60.1875 89.4375 60 88.6875 60 88.125C60 
80.6658 62.9632 73.5121 68.2376 68.2376C73.5121 62.9632 80.6658 60 88.125 
60Z" fill="#FEF6F6"></path>
    <path opacity="0.14" d="M48.75 90H60.1875C60.1875 89.4375 60 88.6875 60 
88.125C59.9978 82.4435 61.7164 76.8945 64.9295 72.2088C68.1426 67.5231 
72.6994 63.9203 78 61.875H76.875C69.4158 61.875 62.2621 64.8382 56.9876 
70.1126C51.7132 75.3871 48.75 82.5408 48.75 90Z" fill="#000064"></path>
    <path opacity="0.14" d="M3.75 22.5L54.375 61.125L105 22.5V25.3125L48.75 
75L3.75 30.9375V22.5Z" fill="#000064"></path>
    <path d="M60 90H3.75V22.5H105V65.625" stroke="#F48734" stroke-width="3.75" stroke-miterlimit="10"
      stroke-linecap="round" stroke-linejoin="round"></path>
    <path d="M99.375 82.5L84.375 97.5L76.875 90M3.75 22.5L54.375 61.125L105 
22.5H3.75Z" stroke="white" stroke-width="3.75" stroke-miterlimit="10" stroke-linecap="round" stroke-linejoin="round">
    </path>
    <path d="M88.125 116.25C103.658 116.25 116.25 103.658 116.25 88.125C116.25 
72.592 103.658 60 88.125 60C72.592 60 60 72.592 60 88.125C60 103.658 
72.592 116.25 88.125 116.25Z" stroke="white" stroke-width="3.75" stroke-miterlimit="10" stroke-linecap="round"
      stroke-linejoin="round"></path>
  </symbol>
  <symbol fill="none" xmlns="http://www.w3.org/2000/svg" viewBox="0 0 16 16" id="facebook">
    <path fill-rule="evenodd" clip-rule="evenodd" d="M0 8.04467C0 12.022 
2.88867 15.3293 6.66667 16V10.222H4.66667V8H6.66667V6.222C6.66667 4.222 
7.95533 3.11133 9.778 3.11133C10.3553 3.11133 10.978 3.2 11.5553 
3.28867V5.33333H10.5333C9.55533 5.33333 9.33333 5.822 9.33333 
6.44467V8H11.4667L11.1113 10.222H9.33333V16C13.1113 15.3293 16 12.0227 16 
8.04467C16 3.62 12.4 0 8 0C3.6 0 0 3.62 0 8.04467Z" fill="#1F2722"></path>
  </symbol>
  <symbol fill="none" xmlns="http://www.w3.org/2000/svg" viewBox="0 0 14 14" id="google">
    <path d="M13.8983 5.78766H7.53499V8.51516H11.1417C10.565 10.3335 9.14082 
10.9393 7.50582 10.9393C6.87224 10.9401 6.24781 10.7881 5.68551 
10.4961C5.12322 10.2041 4.63965 9.78079 4.27584 9.26207C3.91203 8.74334 
3.67871 8.14452 3.59568 7.51639C3.51264 6.88827 3.58235 6.24938 3.79888 
5.65394C4.01541 5.05851 4.37237 4.52408 4.83949 4.09602C5.3066 3.66795 
5.87007 3.35888 6.4821 3.19502C7.09413 3.03115 7.73666 3.01734 8.35517 
3.15475C8.97368 3.29216 9.54991 3.57673 10.035 3.98433L12.0167 
2.09683C11.2186 1.36169 10.2532 0.832452 9.20423 0.555052C8.15526 0.277652 
7.05443 0.260477 5.99732 0.505018C4.9402 0.749558 3.95875 1.24842 3.13817 
1.9583C2.31758 2.66819 1.68266 3.56763 1.28853 4.57854C0.894402 5.58946 
0.752973 6.6813 0.876522 7.75928C1.00007 8.83725 1.38486 9.86878 1.9975 
10.7643C2.61013 11.6598 3.43208 12.3923 4.392 12.8981C5.35192 13.4039 
6.42079 13.6678 7.50582 13.6668C11.1817 13.6668 14.5058 11.2427 13.8983 
5.78766Z" fill="#1F2722"></path>
  </symbol>
  <symbol fill="none" xmlns="http://www.w3.org/2000/svg" viewBox="0 0 165 34" id="logo_gr">
    <path fill-rule="evenodd" clip-rule="evenodd" d="M22.3289 24.054C21.0372 
24.054 20.0833 23.2335 19.549 22.1116C19.0141 20.9884 19.3902 19.6229 
20.303 18.7046C20.872 18.1319 21.6214 17.8158 22.5042 
17.8158H29.85C30.1319 17.8158 30.3165 18.0004 30.3165 
18.2823V23.5293C30.3165 23.7956 30.2012 24.054 29.9667 
24.054H22.3293H22.3289ZM17.7815 20.7895C17.7815 21.6552 17.8997 22.3013 
18.2462 23.0064C18.4742 23.4707 18.6491 23.6899 18.9606 24.0411C19.0653 
24.1592 19.1092 24.2561 19.2287 24.3562C20.0824 25.0706 21.0681 25.6285 
22.6201 25.6285H28.6834V29.768C28.6834 30.7403 27.9653 31.5169 26.9925 
31.5169H3.20632C2.2783 31.5169 1.51548 30.7467 1.51548 
29.8261V12.045C1.51548 11.4922 1.80114 11.0418 2.11448 10.7788C2.33737 
10.5909 2.44304 10.5512 2.71347 10.4714L26.6427 10.3542C27.3336 10.3542 
27.6921 10.4493 28.0839 10.7783C28.4171 11.058 28.6829 11.518 28.6829 
12.1027V16.1254C28.6829 16.2006 28.7508 16.2491 28.5043 16.2874C27.6289 
16.424 22.4244 16.0982 21.2846 16.4226C20.0197 16.7825 19.1636 17.4028 
18.4691 18.5043C18.327 18.7295 18.2379 18.9145 18.1313 19.1577C17.9643 
19.5398 17.7811 20.2422 17.7811 20.7895H17.7815ZM13.817 8.83827C13.9541 
8.71921 14.2092 8.66797 14.4003 8.60521L18.6634 7.15481C19.4931 6.87839 
20.267 6.60011 21.0972 6.32369C23.8947 5.39151 23.6316 5.18939 23.969 
6.20694C24.0954 6.58904 24.8148 8.5826 24.8361 8.83779H13.8175L13.817 
8.83827ZM11.1021 6.41506C11.7764 6.01127 17.1382 2.57929 17.548 
2.48376C17.7584 2.62497 17.7091 2.55853 17.8443 2.77081L19.4138 
5.2826L14.961 6.77639C13.493 7.26602 12.0565 7.80549 10.5659 
8.26927C8.34298 8.96102 9.67619 8.83872 7.22946 8.83872L11.1026 
6.41553L11.1021 6.41506ZM0 11.9283V30.1177C0 30.5035 0.177666 30.9779 
0.310109 31.2645C0.753585 32.2239 1.89805 33.0324 2.91468 
33.0324H27.2256C28.4919 33.0324 29.7355 32.0292 30.0955 30.714C30.3373 
29.8307 30.1989 26.8611 30.1989 25.6285C30.8177 25.3318 31.2187 25.3789 
31.659 24.5233C31.7591 24.3285 31.8315 24.1241 31.8315 
23.8214V18.1079C31.8315 17.1715 31.0263 16.3695 30.1993 16.3003C30.1993 
15.2417 30.3258 11.6634 30.024 10.9375C29.97 10.8083 29.8846 10.5822 
29.8117 10.4502C29.7323 10.3071 29.6174 10.1811 29.5168 10.0455C29.4005 
9.88857 29.3419 9.7995 29.1845 9.67814C29.0198 9.55169 28.9432 9.45848 
28.7987 9.36434C28.1282 8.92733 27.6266 8.83779 26.5269 8.83779C26.2348 
8.28495 26.0673 7.41738 25.9782 7.22356C25.9718 7.20971 25.9487 7.16912 
25.9413 7.15389L25.5449 6.03064C25.3169 5.42104 25.2237 4.66331 24.4484 
4.21199C23.3626 3.58023 22.0501 4.48288 20.872 4.75699C20.8088 4.51934 
20.3999 3.9434 20.249 3.68866L18.8655 1.51652C18.8526 1.50498 18.8148 
1.47453 18.8018 1.46345L18.4008 1.16487C18.0335 0.957204 17.7746 0.967366 
17.374 0.967366C16.7164 0.967366 15.6477 1.76109 15.0537 2.14457L12.8608 
3.50777C12.0999 3.97201 11.4035 4.39334 10.6587 4.8622C8.80815 6.02696 
6.4731 7.39016 4.68858 8.57015C4.46938 8.71505 4.34985 8.83412 4.02821 
8.84196C3.33369 8.85904 2.9479 8.80273 2.37844 8.94117C1.55055 9.14192 
0.772046 9.74091 0.369641 10.489C0.157825 10.8826 0.00138577 11.345 
0.00138577 11.9278L0 11.9283Z" fill="#23a8f2"></path>
    <path fill-rule="evenodd" clip-rule="evenodd" d="M20.8716 20.9065C20.8716 
22.7524 23.0493 23.7625 24.472 22.35C24.8038 22.0205 25.096 21.4381 
25.0544 20.9222C24.8205 18.0117 20.8712 18.3901 20.8712 20.9065H20.8716Z" fill="#23a8f2"></path>
    <path d="M44.2581 14.2347C46.5021 14.2347 48.1392 14.6651 49.1695 
15.526C50.1997 16.3869 50.7149 17.7135 50.7149 19.5059C50.7149 21.2983 
50.1856 22.6108 49.1271 23.4434C48.0828 24.2761 46.4739 24.6925 44.3005 
24.6925H41.6754V29.0322H39.1774V14.2347H44.2581ZM44.5757 22.4273C45.9588 
22.4273 46.8973 22.1662 47.3912 21.644C47.8993 21.1077 48.1533 20.3315 
48.1533 19.3154C48.1533 18.2851 47.8358 17.5583 47.2007 17.1349C46.5656 
16.7115 45.5706 16.4998 44.2158 16.4998H41.6754V22.4273H44.5757ZM55.8111 
26.0685C56.4886 26.7459 57.3424 27.0846 58.3726 27.0846C59.4029 27.0846 
60.2497 26.7459 60.913 26.0685C61.5904 25.3769 61.9291 24.4878 61.9291 
23.4011C61.9291 22.3144 61.5904 21.4323 60.913 20.7549C60.2497 20.0634 
59.4029 19.7176 58.3726 19.7176C57.3424 19.7176 56.4886 20.0634 55.8111 
20.7549C55.1478 21.4323 54.8162 22.3144 54.8162 23.4011C54.8162 24.4878 
55.1478 25.3769 55.8111 26.0685ZM62.6066 27.5292C61.4775 28.6441 60.0662 
29.2016 58.3726 29.2016C56.6791 29.2016 55.2678 28.6441 54.1387 
27.5292C53.0097 26.4001 52.4452 25.0241 52.4452 23.4011C52.4452 21.7781 
53.0097 20.4091 54.1387 19.2942C55.2678 18.1651 56.6791 17.6006 58.3726 
17.6006C60.0662 17.6006 61.4775 18.1651 62.6066 19.2942C63.7356 20.4091 
64.3001 21.7781 64.3001 23.4011C64.3001 25.0241 63.7356 26.4001 62.6066 
27.5292ZM71.992 29.2016C70.4254 29.2016 69.0776 28.6723 67.9486 
27.6139C66.8195 26.5413 66.255 25.1441 66.255 23.4223C66.255 21.7005 
66.8407 20.3033 68.0121 19.2307C69.1976 18.144 70.6371 17.6006 72.3307 
17.6006C74.0243 17.6006 75.4568 18.1863 76.6281 19.3577L75.231 
21.0724C74.2571 20.2257 73.2763 19.8023 72.2884 19.8023C71.3005 19.8023 
70.4396 20.1339 69.7057 20.7972C68.9859 21.4464 68.626 22.2932 68.626 
23.3376C68.626 24.3679 68.9859 25.2429 69.7057 25.9626C70.4254 26.6824 
71.3075 27.0423 72.3519 27.0423C73.4104 27.0423 74.4053 26.5624 75.3368 
25.6027L76.734 27.127C75.365 28.51 73.7844 29.2016 71.992 29.2016ZM81.5643 
29.0322H79.1933V13.3244H81.5643V22.5543L86.1369 17.77H89.1854L84.9091 
22.2368L89.5029 29.0322H86.6238L83.279 24.0997L81.5643 
25.8356V29.0322ZM101.973 24.4384H93.1453C93.2017 25.257 93.5757 25.9203 
94.2672 26.4284C94.9588 26.9223 95.7491 27.1693 96.6382 27.1693C98.0496 
27.1693 99.1221 26.7247 99.856 25.8356L101.211 27.3175C99.9972 28.5736 
98.4165 29.2016 96.4689 29.2016C94.8882 29.2016 93.5404 28.6794 92.4255 
27.635C91.3247 26.5765 90.7743 25.1652 90.7743 23.4011C90.7743 21.6229 
91.3388 20.2115 92.4678 19.1672C93.5969 18.1228 94.9235 17.6006 96.4477 
17.6006C97.986 17.6006 99.2915 18.0664 100.364 18.9978C101.437 19.9152 
101.973 21.1854 101.973 22.8084V24.4384ZM93.1453 22.5755H99.602C99.602 
21.6299 99.3056 20.9031 98.7129 20.395C98.1201 19.8869 97.3862 19.6329 
96.5112 19.6329C95.6503 19.6329 94.8741 19.9011 94.1826 20.4374C93.491 
20.9595 93.1453 21.6723 93.1453 22.5755ZM107.419 19.6752V25.3911C107.419 
25.9273 107.56 26.3578 107.842 26.6824C108.125 26.9929 108.52 27.1481 
109.028 27.1481C109.536 27.1481 110.023 26.9012 110.489 26.4072L111.462 
28.0796C110.63 28.8276 109.705 29.2016 108.689 29.2016C107.687 29.2016 
106.826 28.8558 106.107 28.1643C105.401 27.4586 105.048 26.513 105.048 
25.3275V19.6752H103.63V17.77H105.048V14.2347H107.419V17.77H110.383V19.6752H107.419ZM120.162 
29.0322H113.685V14.2347H119.443C120.445 14.2347 121.306 14.3546 122.025 
14.5945C122.759 14.8345 123.303 15.1591 123.655 15.5683C124.333 16.3304 
124.672 17.1913 124.672 18.151C124.672 19.3083 124.305 20.1692 123.571 
20.7337C123.303 20.9313 123.119 21.0583 123.02 21.1148C122.922 21.1571 
122.745 21.2347 122.491 21.3477C123.409 21.5452 124.135 21.9616 124.672 
22.5967C125.222 23.2176 125.497 23.9939 125.497 24.9253C125.497 25.9556 
125.144 26.8659 124.439 27.6562C123.606 28.5736 122.181 29.0322 120.162 
29.0322ZM116.183 20.3738H119.358C121.165 20.3738 122.068 19.7599 122.068 
18.5321C122.068 17.8264 121.849 17.3184 121.412 17.0079C120.974 16.6974 
120.297 16.5421 119.379 16.5421H116.183V20.3738ZM116.183 
26.7247H120.099C121.016 26.7247 121.715 26.5836 122.195 26.3013C122.689 
26.005 122.936 25.4546 122.936 24.6501C122.936 23.3376 121.884 22.6813 
119.781 22.6813H116.183V26.7247Z" fill="#23a8f2"></path>
    <path fill-rule="evenodd" clip-rule="evenodd" d="M135.826 26.1413C134.106 
26.1413 132.836 25.049 132.124 23.5549C131.411 22.0588 131.912 20.2409 
133.127 19.0186C133.885 18.2563 134.883 17.8347 136.058 
17.8347H145.84C146.215 17.8347 146.461 18.0805 146.461 
18.4558V25.4426C146.461 25.7968 146.308 26.1413 145.995 
26.1413H135.826ZM146.306 15.8169H143.901C143.329 15.868 142.044 15.8439 
140.586 15.8169H135.808C135.207 15.8463 134.723 15.8974 134.435 
15.9793C132.751 16.4582 131.611 17.2845 130.687 18.7512C130.497 19.0513 
130.379 19.2975 130.237 19.6213C130.014 20.1301 129.77 21.0653 129.77 
21.7943C129.77 22.9468 129.928 23.8074 130.389 24.7459C130.693 25.3636 
130.926 25.6556 131.34 26.1235C131.48 26.2805 131.538 26.4097 131.697 
26.5426C132.835 27.4942 134.147 28.2372 136.213 
28.2372H144.286V28.2478H146.305V28.2372C147.129 27.8416 147.663 27.9042 
148.249 26.7657C148.382 26.506 148.478 26.2338 148.478 
25.8305V18.2231C148.478 16.9761 147.406 15.9084 146.305 15.8169H146.306Z" fill="#F48734"></path>
    <path fill-rule="evenodd" clip-rule="evenodd" d="M133.885 21.9489C133.885 
24.4076 136.785 25.7518 138.679 23.8713C139.121 23.4329 139.51 22.6571 
139.455 21.9701C139.143 18.0943 133.885 18.5983 133.885 21.9489Z" fill="#F48734"></path>
    <path d="M155.21 29.0322H152.839V13.3244H155.21V22.5543L159.783 
17.77H162.831L158.555 22.2368L163.149 29.0322H160.27L156.925 
24.0997L155.21 25.8356V29.0322Z" fill="#23a8f2"></path>
  </symbol>



  <symbol fill="none" xmlns="http://www.w3.org/2000/svg" viewBox="0 0 24 24" id="close">
    <path
      d="M12 12.0008L6.75704 17.2438M6.75704 6.75781L12 12.0008L6.75704 6.75781ZM17.243 17.2438L12 11.9998L17.243 17.2438ZM12 11.9998L17.243 6.75781L12 11.9998Z"
      stroke="#1F2721" stroke-width="1.5" stroke-linecap="round" stroke-linejoin="round"></path>
  </symbol>
  <symbol fill="none" xmlns="http://www.w3.org/2000/svg" viewBox="0 0 8 12" id="rarr">
    <path
      d="M6.82994 5.28995L2.58994 1.04995C2.49698 0.95622 2.38638 0.881826 2.26452 0.831057C2.14266 0.780288 2.01195 0.75415 1.87994 0.75415C1.74793 0.75415 1.61723 0.780288 1.49537 0.831057C1.37351 0.881826 1.26291 0.95622 1.16994 1.04995C0.983692 1.23731 0.87915 1.49076 0.87915 1.75495C0.87915 2.01913 0.983692 2.27259 1.16994 2.45995L4.70994 5.99995L1.16994 9.53995C0.983692 9.72731 0.87915 9.98076 0.87915 10.2449C0.87915 10.5091 0.983692 10.7626 1.16994 10.9499C1.26338 11.0426 1.3742 11.116 1.49604 11.1657C1.61787 11.2155 1.74834 11.2407 1.87994 11.2399C2.01155 11.2407 2.14201 11.2155 2.26385 11.1657C2.38569 11.116 2.4965 11.0426 2.58994 10.9499L6.82994 6.70995C6.92367 6.61699 6.99806 6.50638 7.04883 6.38453C7.0996 6.26267 7.12574 6.13196 7.12574 5.99995C7.12574 5.86794 7.0996 5.73723 7.04883 5.61537C6.99806 5.49351 6.92367 5.38291 6.82994 5.28995Z"
      fill="#747B84"></path>
  </symbol>
  <symbol fill="none" xmlns="http://www.w3.org/2000/svg" viewBox="0 0 21 14" id="rise">
    <path d="M1.01257 13C1.92992 11.9157 4.90721 8.72772 6.50885 7L12.5048 
10L19.5 1" stroke="#13B440" stroke-width="2" stroke-linecap="round"></path>
  </symbol>
  <symbol fill="none" xmlns="http://www.w3.org/2000/svg" viewBox="0 0 25 24" id="receive">
    <path fill-rule="evenodd" clip-rule="evenodd" d="M3.1665 20.25C3.1665 
20.4489 3.24552 20.6397 3.38617 20.7803C3.52683 20.921 3.71759 21 3.9165 
21H12.9165C13.1154 21 13.3062 20.921 13.4468 20.7803C13.5875 20.6397 
13.6665 20.4489 13.6665 20.25C13.6665 20.0511 13.5875 19.8603 13.4468 
19.7197C13.3062 19.579 13.1154 19.5 12.9165 19.5H5.727L20.9475 
4.281C21.0883 4.14017 21.1674 3.94916 21.1674 3.75C21.1674 3.55084 21.0883 
3.35983 20.9475 3.219C20.8067 3.07817 20.6157 2.99905 20.4165 
2.99905C20.2173 2.99905 20.0263 3.07817 19.8855 3.219L4.6665 
18.4395V11.25C4.6665 11.0511 4.58749 10.8603 4.44683 10.7197C4.30618 
10.579 4.11542 10.5 3.9165 10.5C3.71759 10.5 3.52683 10.579 3.38617 
10.7197C3.24552 10.8603 3.1665 11.0511 3.1665 11.25V20.25Z" fill="black"></path>
  </symbol>
  <symbol fill="none" xmlns="http://www.w3.org/2000/svg" viewBox="0 0 19 18" id="send">
    <path fill-rule="evenodd" clip-rule="evenodd" d="M18.5 0.75C18.5 0.551088 
18.421 0.360323 18.2803 0.219669C18.1397 0.0790176 17.9489 0 17.75 
0H8.75C8.55109 0 8.36032 0.0790176 8.21967 0.219669C8.07902 0.360323 8 
0.551088 8 0.75C8 0.948914 8.07902 1.13968 8.21967 1.28033C8.36032 1.42098 
8.55109 1.5 8.75 1.5H15.9395L0.719002 16.719C0.578171 16.8598 0.499054 
17.0508 0.499054 17.25C0.499054 17.4492 0.578171 17.6402 0.719002 
17.781C0.859831 17.9218 1.05084 18.0009 1.25 18.0009C1.44917 18.0009 
1.64017 17.9218 1.781 17.781L17 2.5605V9.75C17 9.94891 17.079 10.1397 
17.2197 10.2803C17.3603 10.421 17.5511 10.5 17.75 10.5C17.9489 10.5 
18.1397 10.421 18.2803 10.2803C18.421 10.1397 18.5 9.94891 18.5 
9.75V0.75Z" fill="black"></path>
  </symbol>
  <symbol fill="none" xmlns="http://www.w3.org/2000/svg" viewBox="0 0 64 64" id="no_commodity">
    <path d="M0 32C0 40.4869 3.37142 48.6263 9.37258 54.6274C15.3737 60.6286 23.5131 64 32 64C40.4869 64 48.6263 60.6286 54.6274 54.6274C60.6286 
48.6263 64 40.4869 64 32C64 23.5131 60.6286 15.3737 54.6274 9.37258C48.6263 3.37142 40.4869 0 32 0C23.5131 0 15.3737 3.37142 9.37258 
9.37258C3.37142 15.3737 0 23.5131 0 32Z" fill="#F1F2F6"></path>
    <path d="M4.5466 11.5662L37.3942 1.92107L49.9751 44.7666L17.1275 54.4117L4.5466 11.5662Z" fill="white"
      stroke="#1D1E2C" stroke-width="1.3175" stroke-linecap="round" stroke-linejoin="round"></path>
    <path d="M11.0403 4.77014H45.2754V49.4237H11.0403V4.77014Z" fill="white" stroke="#1D1E2C" stroke-width="1.3175"
      stroke-linecap="round" stroke-linejoin="round"></path>
    <path d="M15.5063 9.23627H40.8103V13.7019H15.5063V9.23627Z" fill="#E5E9F2" stroke="#1D1E2C" stroke-width="1.3175"
      stroke-linecap="round" stroke-linejoin="round"></path>
    <path d="M24.4364 21.143H30.3908" stroke="#1D1E2C" stroke-width="1.3175" stroke-linecap="round"
      stroke-linejoin="round"></path>
    <path d="M24.4364 24.1207H37.8332" stroke="#1D1E2C" stroke-width="1.3175" stroke-linecap="round"
      stroke-linejoin="round"></path>
    <path d="M24.4364 27.0975H34.1228" stroke="#1D1E2C" stroke-width="1.3175" stroke-linecap="round"
      stroke-linejoin="round"></path>
    <path d="M24.4364 36.0281H31.8788" stroke="#1D1E2C" stroke-width="1.3175" stroke-linecap="round"
      stroke-linejoin="round"></path>
    <path d="M24.4364 39.0048H39.3212" stroke="#1D1E2C" stroke-width="1.3175" stroke-linecap="round"
      stroke-linejoin="round"></path>
    <path d="M24.4364 41.9825H36.3444" stroke="#1D1E2C" stroke-width="1.3175" stroke-linecap="round"
      stroke-linejoin="round"></path>
    <path d="M16.919 26.6038V24.63H16.3199V24.1385H16.919V23.5087H16.3199V23.0172H16.919V21.1202H17.7177L18.4473 
23.0172H19.3535V21.1202H19.9602V23.0172H20.5593V23.5087H19.9602V24.1385H20.5593V24.63H19.9602V26.6038H19.1538L18.4242 
24.63H17.518V26.6038H16.919ZM17.5026 23.0172H17.8252L17.5026 22.0649H17.4719L17.5026 23.0172ZM17.518 24.1385H18.2399L18.0095 
23.5087H17.5026L17.518 24.1385ZM18.8543 24.1385H19.3689L19.3535 23.5087H18.6239L18.8543 24.1385ZM19.3535 25.5209H19.3842L19.3612 
24.63H19.0386L19.3535 25.5209Z" fill="#1D1E2C"></path>
    <path d="M16.919 41.9634V39.9896H16.3199V39.4981H16.919V38.8683H16.3199V38.3768H16.919V36.4799H17.7177L18.4473 
38.3768H19.3535V36.4799H19.9602V38.3768H20.5593V38.8683H19.9602V39.4981H20.5593V39.9896H19.9602V41.9634H19.1538L18.4242 
39.9896H17.518V41.9634H16.919ZM17.5026 38.3768H17.8252L17.5026 37.4245H17.4719L17.5026 38.3768ZM17.518 39.4981H18.2399L18.0095 
38.8683H17.5026L17.518 39.4981ZM18.8543 39.4981H19.3689L19.3535 38.8683H18.6239L18.8543 39.4981ZM19.3535 40.8805H19.3842L19.3612 
39.9896H19.0386L19.3535 40.8805Z" fill="#1D1E2C"></path>
    <path d="M60.7755 56.1768C61.0387 56.4332 61.2483 56.7393 61.3923 57.0774C61.5362 57.4155 61.6115 57.7788 61.6139 58.1463C61.6163 58.5137 61.5458 
58.878 61.4063 59.2179C61.2668 59.5579 61.0612 59.8667 60.8014 60.1266C60.5416 60.3864 60.2327 60.5921 59.8928 60.7317C59.5529 60.8712 59.1887 
60.9419 58.8212 60.9396C58.4538 60.9372 58.0904 60.862 57.7523 60.7181C57.4142 60.5743 57.108 60.3647 56.8515 60.1016L49.4915 52.7416L53.4163 
48.8168L60.7755 56.1768Z" fill="#E5E9F2"></path>
    <path d="M60.7755 56.1768C61.0387 56.4332 61.2483 56.7393 61.3923 57.0774C61.5362 57.4155 61.6115 57.7788 61.6139 58.1463C61.6163 58.5137 61.5458 
58.878 61.4063 59.2179C61.2668 59.5579 61.0612 59.8667 60.8014 60.1266C60.5416 60.3864 60.2327 60.5921 59.8928 60.7317C59.5529 60.8712 59.1887 
60.9419 58.8212 60.9396C58.4538 60.9372 58.0904 60.862 57.7523 60.7181C57.4142 60.5743 57.108 60.3647 56.8515 60.1016L49.4915 52.7416L53.4163 
48.8168L60.7755 56.1768Z" stroke="#1D1E2C" stroke-width="1.3175" stroke-linecap="round" stroke-linejoin="round"></path>
    <path d="M45.5657 46.856L47.5278 44.8933L52.4346 49.7988L50.4725 51.7615L45.5657 46.856Z" fill="white"
      stroke="#1D1E2C" stroke-width="1.3175" stroke-linecap="round" stroke-linejoin="round"></path>
    <path d="M48.0209 29.6846C49.7675 31.4312 50.957 33.6565 51.4389 36.0791C51.9208 38.5017 51.6735 41.0128 50.7283 43.2949C49.783 45.5769 48.1823 
47.5274 46.1285 48.8997C44.0747 50.272 41.6601 51.0045 39.1901 51.0045C36.72 51.0045 34.3054 50.272 32.2516 48.8997C30.1978 47.5274 28.5971 
45.5769 27.6519 43.2949C26.7067 41.0128 26.4594 38.5017 26.9413 36.0791C27.4232 33.6565 28.6126 31.4312 30.3593 29.6846C32.7016 27.343 35.878 
26.0275 39.1901 26.0275C42.5021 26.0275 45.6786 27.343 48.0209 29.6846Z" fill="white" stroke="#1D1E2C"
      stroke-width="1.3175" stroke-linecap="round" stroke-linejoin="round"></path>
    <path d="M45.5663 32.1383C46.8276 33.3997 47.6866 35.0068 48.0346 36.7563C48.3826 38.5059 48.204 40.3193 47.5213 41.9673C46.8387 43.6154 45.6827 
45.024 44.1995 46.015C42.7163 47.006 40.9725 47.535 39.1887 47.535C37.4049 47.535 35.6611 47.006 34.1779 46.015C32.6947 45.024 31.5387 43.6154 
30.8561 41.9673C30.1734 40.3193 29.9948 38.5059 30.3428 36.7563C30.6908 35.0068 31.5498 33.3997 32.8111 32.1383C33.6486 31.3007 34.6428 30.6363 
35.7371 30.1829C36.8314 29.7296 38.0042 29.4963 39.1887 29.4963C40.3732 29.4963 41.546 29.7296 42.6403 30.1829C43.7346 30.6363 44.7288 31.3007 
45.5663 32.1383Z" fill="#E5E9F2"></path>
    <path d="M45.5663 32.1383C46.8276 33.3997 47.6866 35.0068 48.0346 36.7563C48.3826 38.5059 48.204 40.3193 47.5213 41.9673C46.8387 43.6154 45.6827 
45.024 44.1995 46.015C42.7163 47.006 40.9725 47.535 39.1887 47.535C37.4049 47.535 35.6611 47.006 34.1779 46.015C32.6947 45.024 31.5387 43.6154 
30.8561 41.9673C30.1734 40.3193 29.9948 38.5059 30.3428 36.7563C30.6908 35.0068 31.5498 33.3997 32.8111 32.1383C33.6486 31.3007 34.6428 30.6363 
35.7371 30.1829C36.8314 29.7296 38.0042 29.4963 39.1887 29.4963C40.3732 29.4963 41.546 29.7296 42.6403 30.1829C43.7346 30.6363 44.7288 31.3007 
45.5663 32.1383Z" stroke="#1D1E2C" stroke-width="1.3175" stroke-linecap="round" stroke-linejoin="round"></path>
    <path
      d="M20.6187 59.9848C20.6187 60.4297 21.9146 60.8564 24.2215 61.171C26.5283 61.4856 29.6571 61.6624 32.9195 61.6624C36.1818 61.6624 39.3106 
61.4856 41.6174 61.171C43.9243 60.8564 45.2203 60.4297 45.2203 59.9848C45.2203 59.5399 43.9243 59.1132 41.6174 58.7985C39.3106 58.4839 36.1818 
58.3072 32.9195 58.3072C29.6571 58.3072 26.5283 58.4839 24.2215 58.7985C21.9146 59.1132 20.6187 59.5399 20.6187 59.9848Z"
      fill="#E5E9F2"></path>
  </symbol>
  <symbol fill="none" xmlns="http://www.w3.org/2000/svg" viewBox="0 0 29 19" id="back">
    <path fill-rule="evenodd" clip-rule="evenodd" d="M29 9.9998C29 10.265 28.8946 10.5194 28.7071 
10.7069C28.5196 10.8944 28.2652 10.9998 28 10.9998L4.414 10.9998L10.708 17.2918C10.8958 17.4796 11.0013 
17.7342 11.0013 17.9998C11.0013 18.2653 10.8958 18.52 10.708 18.7078C10.5202 18.8956 10.2655 19.0011 10 
19.0011C9.73445 19.0011 9.47977 18.8956 9.292 18.7078L1.292 10.7078C1.19887 10.6149 1.12499 10.5046 
1.07458 10.3831C1.02416 10.2616 0.998212 10.1313 0.998212 9.9998C0.998212 9.86826 1.02416 9.73802 1.07458 
9.61653C1.12499 9.49504 1.19887 9.38469 1.292 9.2918L9.292 1.2918C9.47977 1.10402 9.73445 0.998534 10 
0.998534C10.2656 0.998534 10.5202 1.10402 10.708 1.2918C10.8958 1.47957 11.0013 1.73425 11.0013 
1.9998C11.0013 2.26535 10.8958 2.52002 10.708 2.7078L4.414 8.9998L28 8.9998C28.2652 8.9998 28.5196 
9.10516 28.7071 9.29269C28.8946 9.48023 29 9.73458 29 9.9998Z" fill="black"></path>
  </symbol>
  <symbol fill="none" xmlns="http://www.w3.org/2000/svg" viewBox="0 0 24 24" id="clipboard">
    <path d="M18 19.5C18 20.2956 17.6839 21.0587 17.1213 21.6213C16.5587 22.1839 15.7956 22.5 15 
22.5H4.5C3.70435 22.5 2.94129 22.1839 2.37868 21.6213C1.81607 21.0587 1.5 20.2956 1.5 19.5V9C1.5 8.20435 
1.81607 7.44129 2.37868 6.87868C2.94129 6.31607 3.70435 6 4.5 6V7.5C4.10218 7.5 3.72064 7.65804 3.43934 
7.93934C3.15804 8.22064 3 8.60218 3 9V19.5C3 19.8978 3.15804 20.2794 3.43934 20.5607C3.72064 20.842 
4.10218 21 4.5 21H15C15.3978 21 15.7794 20.842 16.0607 20.5607C16.342 20.2794 16.5 19.8978 16.5 19.5H18Z"
      fill="#177A2F"></path>
    <path d="M9 3C8.60218 3 8.22064 3.15804 7.93934 3.43934C7.65804 3.72064 7.5 4.10218 7.5 4.5V15C7.5 
15.3978 7.65804 15.7794 7.93934 16.0607C8.22064 16.342 8.60218 16.5 9 16.5H19.5C19.8978 16.5 20.2794 
16.342 20.5607 16.0607C20.842 15.7794 21 15.3978 21 15V4.5C21 4.10218 20.842 3.72064 20.5607 
3.43934C20.2794 3.15804 19.8978 3 19.5 3H9ZM9 1.5H19.5C20.2956 1.5 21.0587 1.81607 21.6213 
2.37868C22.1839 2.94129 22.5 3.70435 22.5 4.5V15C22.5 15.7956 22.1839 16.5587 21.6213 17.1213C21.0587 
17.6839 20.2956 18 19.5 18H9C8.20435 18 7.44129 17.6839 6.87868 17.1213C6.31607 16.5587 6 15.7956 6 
15V4.5C6 3.70435 6.31607 2.94129 6.87868 2.37868C7.44129 1.81607 8.20435 1.5 9 1.5Z" fill="#177A2F"></path>
  </symbol>
  <symbol fill="none" xmlns="http://www.w3.org/2000/svg" viewBox="0 0 17 16" id="clock">
    <path fill-rule="evenodd" clip-rule="evenodd" d="M8.12492 13.3334C11.0704 13.3334 13.4583 10.9456 
13.4583 
8.00004C13.4583 5.05452 11.0704 2.66671 8.12492 2.66671C5.1794 2.66671 2.79159 5.05452 2.79159 
8.00004C2.79159 10.9456 5.1794 13.3334 8.12492 13.3334ZM8.12492 14.6667C11.8068 14.6667 14.7916 11.6819 
14.7916 8.00004C14.7916 4.31814 11.8068 1.33337 8.12492 1.33337C4.44302 1.33337 1.45825 4.31814 1.45825 
8.00004C1.45825 11.6819 4.44302 14.6667 8.12492 14.6667Z" fill="#777E91"></path>
    <path fill-rule="evenodd" clip-rule="evenodd" d="M8.12492 4C8.49311 4 8.79159 4.29848 8.79159 
4.66667V7.72386L10.263 9.19526C10.5233 9.45561 10.5233 9.87772 10.263 10.1381C10.0026 10.3984 9.58053 
10.3984 9.32018 10.1381L7.65351 8.4714C7.52849 8.34638 7.45825 8.17681 7.45825 8V4.66667C7.45825 4.29848 
7.75673 4 8.12492 4Z" fill="#777E91"></path>
  </symbol>
  <symbol fill="none" xmlns="http://www.w3.org/2000/svg" viewBox="0 0 14 16" id="down">
    <path d="M2.23503 6.01531L2.76628 5.48406C2.90693 5.34342 3.09769 5.2644 3.2966 5.2644C3.4955 5.2644 
3.68626 5.34342 3.82691 5.48406L7.00003 8.65906L10.1741 5.48468C10.2437 5.415 10.3264 5.35972 10.4175 
5.322C10.5085 5.28429 10.606 5.26487 10.7046 5.26487C10.8031 5.26487 10.9006 5.28429 10.9917 
5.322C11.0827 5.35972 11.1654 5.415 11.235 5.48468L11.7663 6.01593C11.8362 6.08561 11.8917 6.1684 11.9295 
6.25957C11.9674 6.35073 11.9869 6.44847 11.9869 6.54718C11.9869 6.64589 11.9674 6.74363 11.9295 
6.8348C11.8917 6.92596 11.8362 7.00875 11.7663 7.07843L7.53128 11.3106C7.39063 11.4513 7.19987 11.5303 
7.00097 11.5303C6.80207 11.5303 6.61131 11.4513 6.47066 11.3106L2.23503 7.07593C2.09439 6.93528 2.01538 
6.74452 2.01538 6.54562C2.01538 6.34672 2.09439 6.15596 2.23503 6.01531Z" fill="#444854"></path>
  </symbol>
  <symbol fill="none" xmlns="http://www.w3.org/2000/svg" viewBox="0 0 24 24" id="eye">
    <path fill-rule="evenodd" clip-rule="evenodd" d="M12 18C16.1255 18 19.0592 15.4076 20.7773 
13.2486C21.3732 12.4998 21.3732 11.5002 20.7773 10.7514C19.0592 8.59239 16.1255 6 12 6C7.87451 6 4.9408 
8.59238 3.22274 10.7514C2.62684 11.5002 2.62684 12.4998 3.22274 13.2486C4.9408 15.4076 7.8745 18 12 
18ZM22.3422 14.494C23.5182 13.0163 23.5182 10.9837 22.3422 9.506C20.4739 7.15826 17.0265 4 12 4C6.97347 4 
3.52606 7.15826 1.65778 9.506C0.48183 10.9837 0.481829 13.0163 1.65778 14.494C3.52606 16.8417 6.97347 20 
12 20C17.0265 20 20.4739 16.8417 22.3422 14.494Z" fill="#777E91"></path>
    <path fill-rule="evenodd" clip-rule="evenodd" d="M14 12C14 13.1046 13.1046 14 12 14C10.8954 14 10 
13.1046 
10 12C10 11.9716 10.0006 11.9434 10.0018 11.9153C10.1577 11.9701 10.3253 12 10.5 12C11.3284 12 12 11.3284 
12 10.5C12 10.3253 11.9701 10.1577 11.9153 10.0018C11.9434 10.0006 11.9716 10 12 10C13.1046 10 14 10.8954 
14 12ZM16 12C16 14.2091 14.2091 16 12 16C9.79086 16 8 14.2091 8 12C8 9.79086 9.79086 8 12 8C14.2091 8 16 
9.79086 16 12Z" fill="#777E91"></path>
  </symbol>
  <symbol xmlns="http://www.w3.org/2000/svg" viewBox="0 0 169 33" id="logo">
    <path fill-rule="evenodd" clip-rule="evenodd" d="M22.3289 24.0215C21.0372 24.0215 20.0833 23.201 
19.549 
22.0792C19.0141 20.9559 19.3902 19.5904 20.303 18.6721C20.872 18.0994 21.6214 17.7833 22.5042 
17.7833H29.85C30.1319 17.7833 30.3165 17.9679 30.3165 18.2499V23.4968C30.3165 23.7631 30.2012 24.0215 
29.9667 24.0215H22.3293H22.3289ZM17.7815 20.757C17.7815 21.6228 17.8997 22.2688 18.2462 22.974C18.4742 
23.4382 18.6491 23.6574 18.9606 24.0086C19.0653 24.1267 19.1092 24.2236 19.2287 24.3238C20.0824 25.0381 
21.0681 25.5961 22.6201 25.5961H28.6834V29.7355C28.6834 30.7078 27.9653 31.4845 26.9925 
31.4845H3.20632C2.2783 31.4845 1.51548 30.7143 1.51548 29.7936V12.0126C1.51548 11.4597 1.80114 11.0093 
2.11448 10.7463C2.33737 10.5585 2.44304 10.5188 2.71347 10.4389L26.6427 10.3217C27.3336 10.3217 27.6921 
10.4168 28.0839 10.7458C28.4171 11.0255 28.6829 11.4856 28.6829 12.0703V16.0929C28.6829 16.1681 28.7508 
16.2166 28.5043 16.2549C27.6289 16.3915 22.4244 16.0657 21.2846 16.3901C20.0197 16.7501 19.1636 17.3703 
18.4691 18.4718C18.327 18.697 18.2379 18.8821 18.1313 19.1253C17.9643 19.5074 17.7811 20.2097 17.7811 
20.757H17.7815ZM13.817 8.8058C13.9541 8.68674 14.2092 8.6355 14.4003 8.57274L18.6634 7.12234C19.4931 
6.84592 20.267 6.56764 21.0972 6.29121C23.8947 5.35904 23.6316 5.15692 23.969 6.17447C24.0954 6.55657 
24.8148 8.55013 24.8361 8.80532H13.8175L13.817 8.8058ZM11.1021 6.38259C11.7764 5.9788 17.1382 2.54682 
17.548 2.45129C17.7584 2.5925 17.7091 2.52606 17.8443 2.73834L19.4138 5.25013L14.961 6.74392C13.493 
7.23355 12.0565 7.77301 10.5659 8.2368C8.34298 8.92854 9.67619 8.80625 7.22946 8.80625L11.1026 
6.38306L11.1021 6.38259ZM0 11.8958V30.0853C0 30.4711 0.177666 30.9455 0.310109 31.232C0.753585 32.1914 
1.89805 32.9999 2.91468 32.9999H27.2256C28.4919 32.9999 29.7355 31.9967 30.0955 30.6815C30.3373 29.7982 
30.1989 26.8287 30.1989 25.5961C30.8177 25.2993 31.2187 25.3464 31.659 24.4908C31.7591 24.2961 31.8315 
24.0916 31.8315 23.7889V18.0754C31.8315 17.1391 31.0263 16.337 30.1993 16.2678C30.1993 15.2092 30.3258 
11.6309 30.024 10.905C29.97 10.7758 29.8846 10.5497 29.8117 10.4177C29.7323 10.2747 29.6174 10.1487 
29.5168 10.013C29.4005 9.8561 29.3419 9.76703 29.1845 9.64567C29.0198 9.51922 28.9432 9.42601 28.7987 
9.33187C28.1282 8.89486 27.6266 8.80532 26.5269 8.80532C26.2348 8.25248 26.0673 7.38491 25.9782 
7.19109C25.9718 7.17724 25.9487 7.13665 25.9413 7.12142L25.5449 5.99817C25.3169 5.38857 25.2237 4.63084 
24.4484 4.17952C23.3626 3.54776 22.0501 4.45041 20.872 4.72452C20.8088 4.48686 20.3999 3.91093 20.249 
3.65619L18.8655 1.48404C18.8526 1.47251 18.8148 1.44205 18.8018 1.43098L18.4008 1.1324C18.0335 0.924733 
17.7746 0.934895 17.374 0.934895C16.7164 0.934895 15.6477 1.72862 15.0537 2.1121L12.8608 3.4753C12.0999 
3.93954 11.4035 4.36087 10.6587 4.82973C8.80815 5.99449 6.4731 7.35769 4.68858 8.53768C4.46938 8.68258 
4.34985 8.80165 4.02821 8.80949C3.33369 8.82657 2.9479 8.77026 2.37844 8.9087C1.55055 9.10945 0.772046 
9.70844 0.369641 10.4565C0.157825 10.8501 0.00138577 11.3125 0.00138577 11.8954L0 11.8958Z" fill="white"></path>
    <path fill-rule="evenodd" clip-rule="evenodd" d="M20.8716 20.8738C20.8716 22.7196 23.0493 23.7298 
24.472 
22.3173C24.8038 21.9878 25.096 21.4054 25.0544 20.8895C24.8205 17.9789 20.8712 18.3573 20.8712 
20.8738H20.8716Z" fill="white"></path>
    <path d="M38.881 29V14.1813H45.2954C46.6221 14.1813 47.7652 14.4 48.7249 14.8375C49.6846 15.2609 
50.4255 
15.8748 50.9477 16.6793C51.4699 17.4837 51.731 18.4434 51.731 19.5583C51.731 20.6592 51.4699 21.6118 
50.9477 22.4162C50.4255 23.2207 49.6846 23.8417 48.7249 24.2792C47.7652 24.7026 46.6221 24.9143 45.2954 
24.9143H40.7863L42.3105 23.3689V29H38.881ZM42.3105 23.7499L40.7863 22.1199H45.1049C46.1634 22.1199 
46.9537 21.8941 47.4759 21.4424C47.9981 20.9908 48.2592 20.3628 48.2592 19.5583C48.2592 18.7398 47.9981 
18.1047 47.4759 17.6531C46.9537 17.2015 46.1634 16.9756 45.1049 16.9756H40.7863L42.3105 
15.3456V23.7499ZM59.3453 29.1694C58.1316 29.1694 57.0519 28.9153 56.1063 28.4073C55.1749 27.8992 54.4339 
27.2076 53.8835 26.3326C53.3472 25.4435 53.0791 24.4344 53.0791 23.3054C53.0791 22.1622 53.3472 21.1531 
53.8835 20.2781C54.4339 19.389 55.1749 18.6974 56.1063 18.2035C57.0519 17.6954 58.1316 17.4414 59.3453 
17.4414C60.5449 17.4414 61.6175 17.6954 62.5631 18.2035C63.5087 18.6974 64.2496 19.3819 64.7859 
20.2569C65.3222 21.132 65.5903 22.1481 65.5903 23.3054C65.5903 24.4344 65.3222 25.4435 64.7859 
26.3326C64.2496 27.2076 63.5087 27.8992 62.5631 28.4073C61.6175 28.9153 60.5449 29.1694 59.3453 
29.1694ZM59.3453 26.4596C59.8957 26.4596 60.3897 26.3326 60.8272 26.0786C61.2647 25.8246 61.6104 25.4647 
61.8645 24.9989C62.1185 24.5191 62.2455 23.9546 62.2455 23.3054C62.2455 22.6421 62.1185 22.0775 61.8645 
21.6118C61.6104 21.1461 61.2647 20.7862 60.8272 20.5321C60.3897 20.2781 59.8957 20.1511 59.3453 
20.1511C58.7949 20.1511 58.3009 20.2781 57.8634 20.5321C57.4259 20.7862 57.0731 21.1461 56.8049 
21.6118C56.5509 22.0775 56.4239 22.6421 56.4239 23.3054C56.4239 23.9546 56.5509 24.5191 56.8049 
24.9989C57.0731 25.4647 57.4259 25.8246 57.8634 26.0786C58.3009 26.3326 58.7949 26.4596 59.3453 
26.4596ZM73.3019 29.1694C72.074 29.1694 70.9803 28.9224 70.0206 28.4284C69.0609 27.9203 68.3058 27.2218 
67.7554 26.3326C67.2191 25.4435 66.951 24.4344 66.951 23.3054C66.951 22.1622 67.2191 21.1531 67.7554 
20.2781C68.3058 19.389 69.0609 18.6974 70.0206 18.2035C70.9803 17.6954 72.074 17.4414 73.3019 
17.4414C74.5015 17.4414 75.5458 17.6954 76.435 18.2035C77.3241 18.6974 77.9804 19.4102 78.4037 
20.3416L75.8422 21.7176C75.5458 21.1813 75.1719 20.7862 74.7202 20.5321C74.2827 20.2781 73.8029 20.1511 
73.2807 20.1511C72.7162 20.1511 72.2081 20.2781 71.7565 20.5321C71.3049 20.7862 70.945 21.1461 70.6768 
21.6118C70.4228 22.0775 70.2958 22.6421 70.2958 23.3054C70.2958 23.9687 70.4228 24.5332 70.6768 
24.9989C70.945 25.4647 71.3049 25.8246 71.7565 26.0786C72.2081 26.3326 72.7162 26.4596 73.2807 
26.4596C73.8029 26.4596 74.2827 26.3397 74.7202 26.0998C75.1719 25.8457 75.5458 25.4435 75.8422 
24.8931L78.4037 26.2903C77.9804 27.2076 77.3241 27.9203 76.435 28.4284C75.5458 28.9224 74.5015 29.1694 
73.3019 29.1694ZM82.9741 26.6713L83.0588 22.6491L88.3723 17.6107H92.3099L87.208 22.7973L85.4933 
24.1945L82.9741 26.6713ZM80.2432 29V13.2921H83.5457V29H80.2432ZM88.7322 29L84.8793 24.2157L86.954 
21.6541L92.7333 29H88.7322ZM99.3953 29.1694C98.0969 29.1694 96.9537 28.9153 95.9658 28.4073C94.992 
27.8992 94.2369 27.2076 93.7006 26.3326C93.1643 25.4435 92.8962 24.4344 92.8962 23.3054C92.8962 22.1622 
93.1573 21.1531 93.6795 20.2781C94.2158 19.389 94.9426 18.6974 95.8599 18.2035C96.7773 17.6954 97.8146 
17.4414 98.9719 17.4414C100.087 17.4414 101.089 17.6813 101.978 18.1611C102.881 18.6269 103.594 19.3043 
104.116 20.1934C104.638 21.0684 104.899 22.1199 104.899 23.3477C104.899 23.4747 104.892 23.6229 104.878 
23.7923C104.864 23.9475 104.85 24.0957 104.836 24.2368H95.5847V22.3104H103.1L101.83 22.882C101.83 22.2892 
101.71 21.7741 101.47 21.3366C101.23 20.8991 100.898 20.5604 100.475 20.3205C100.052 20.0664 99.5576 
19.9394 98.993 19.9394C98.4285 19.9394 97.9275 20.0664 97.49 20.3205C97.0666 20.5604 96.7349 20.9061 
96.495 21.3578C96.2551 21.7953 96.1351 22.3175 96.1351 22.9243V23.4324C96.1351 24.0534 96.2692 24.6038 
96.5374 25.0836C96.8196 25.5494 97.2077 25.9092 97.7017 26.1633C98.2098 26.4032 98.8025 26.5232 99.4799 
26.5232C100.087 26.5232 100.616 26.4314 101.068 26.2479C101.533 26.0645 101.957 25.7893 102.338 
25.4223L104.095 27.3276C103.573 27.9203 102.916 28.379 102.126 28.7036C101.336 29.0141 100.426 29.1694 
99.3953 29.1694ZM111.755 29.1694C110.415 29.1694 109.37 28.8306 108.622 28.1532C107.874 27.4617 107.5 
26.4385 107.5 25.0836V15.0916H110.803V25.0413C110.803 25.5211 110.93 25.8951 111.184 26.1633C111.438 
26.4173 111.784 26.5443 112.221 26.5443C112.743 26.5443 113.188 26.4032 113.555 26.1209L114.444 
28.4496C114.105 28.6895 113.696 28.873 113.216 29C112.75 29.1129 112.263 29.1694 111.755 29.1694ZM105.743 
20.4051V17.8648H113.639V20.4051H105.743ZM116.531 29V14.1813H123.771C125.634 14.1813 127.031 14.5341 
127.962 15.2397C128.908 15.9454 129.381 16.8769 129.381 18.0341C129.381 18.8104 129.19 19.4878 128.809 
20.0664C128.428 20.6309 127.906 21.0684 127.242 21.3789C126.579 21.6894 125.817 21.8447 124.956 
21.8447L125.358 20.9767C126.29 20.9767 127.115 21.132 127.835 21.4424C128.555 21.7388 129.112 22.1834 
129.508 22.7761C129.917 23.3689 130.121 24.0957 130.121 24.9566C130.121 26.2268 129.62 27.2218 128.618 
27.9415C127.616 28.6472 126.142 29 124.194 29H116.531ZM119.939 26.4173H123.94C124.829 26.4173 125.499 
26.2762 125.951 25.9939C126.417 25.6975 126.65 25.2318 126.65 24.5967C126.65 23.9757 126.417 23.5171 
125.951 23.2207C125.499 22.9102 124.829 22.755 123.94 22.755H119.685V20.2569H123.347C124.18 20.2569 
124.815 20.1158 125.252 19.8335C125.704 19.5372 125.93 19.0926 125.93 18.4999C125.93 17.9212 125.704 
17.4908 125.252 17.2085C124.815 16.9121 124.18 16.764 123.347 16.764H119.939V26.4173Z" fill="white"></path>
    <path fill-rule="evenodd" clip-rule="evenodd" d="M139.826 26.1089C138.106 26.1089 136.836 25.0167 
136.124 
23.5225C135.411 22.0265 135.912 20.2086 137.127 18.9862C137.885 18.224 138.883 17.8024 140.058 
17.8024H149.84C150.215 17.8024 150.461 18.0481 150.461 18.4235V25.4103C150.461 25.7644 150.308 26.1089 
149.995 26.1089H139.826ZM150.306 15.7845H147.901C147.329 15.8356 146.044 15.8115 144.586 
15.7845H139.808C139.207 15.8139 138.723 15.865 138.435 15.9469C136.751 16.4259 135.611 17.2522 134.687 
18.7188C134.497 19.019 134.379 19.2652 134.237 19.589C134.014 20.0978 133.77 21.033 133.77 21.762C133.77 
22.9145 133.928 23.775 134.389 24.7136C134.693 25.3313 134.926 25.6233 135.34 26.0911C135.48 26.2482 
135.538 26.3773 135.697 26.5103C136.835 27.4619 138.147 28.2048 140.213 
28.2048H148.286V28.2154H150.305V28.2048C151.129 27.8093 151.663 27.8719 152.249 26.7334C152.382 26.4737 
152.478 26.2014 152.478 25.7982V18.1907C152.478 16.9438 151.406 15.8761 150.305 15.7845H150.306Z" fill="#F48734">
    </path>
    <path fill-rule="evenodd" clip-rule="evenodd" d="M137.885 21.9166C137.885 24.3754 140.785 25.7196 
142.679 
23.8391C143.121 23.4006 143.51 22.6249 143.455 21.9378C143.143 18.0621 137.885 18.5661 137.885 21.9166Z"
      fill="#F48734"></path>
    <path d="M159.803 29H156.627V13.2921H159.803V21.3578L163.338 17.5896H167.339L162.999 22.2045L167.509 
29H163.74L160.84 24.6391L159.803 25.7187V29Z" fill="white"></path>
  </symbol>
  <symbol xmlns="http://www.w3.org/2000/svg" viewBox="0 0 25 24" id="noti">
    <path fill-rule="evenodd" clip-rule="evenodd" d="M11.1997 20.106C11.7177 20.683 12.3827 21 13.0727 
21H13.0737C13.7667 21 14.4347 20.683 14.9537 20.105C15.2317 19.798 15.7057 19.773 16.0127 20.05C16.3207 
20.327 16.3457 20.802 16.0687 21.109C15.2607 22.006 14.1977 22.5 13.0737 22.5H13.0717C11.9507 22.499 
10.8897 22.005 10.0847 21.108C9.80771 20.801 9.83271 20.326 10.1407 20.05C10.4487 19.772 10.9227 19.797 
11.1997 20.106ZM13.1225 1C17.5675 1 20.5535 4.462 20.5535 7.695C20.5535 9.358 20.9765 10.063 21.4255 
10.811C21.8695 11.549 22.3725 12.387 22.3725 13.971C22.0235 18.018 17.7985 18.348 13.1225 18.348C8.44651 
18.348 4.22051 18.018 3.8755 14.035C3.87251 12.387 4.37551 11.549 4.81951 10.811L4.97626 10.5472C5.36219 
9.88386 5.69151 9.16235 5.69151 7.695C5.69151 4.462 8.67751 1 13.1225 1ZM13.1225 2.5C9.62751 2.5 7.19151 
5.238 7.19151 7.695C7.19151 9.774 6.61451 10.735 6.10451 11.583C5.69551 12.264 5.37251 12.802 5.37251 
13.971C5.53951 15.857 6.78451 16.848 13.1225 16.848C19.4255 16.848 20.7095 15.813 20.8755 13.906C20.8725 
12.802 20.5495 12.264 20.1405 11.583C19.6305 10.735 19.0535 9.774 19.0535 7.695C19.0535 5.238 16.6175 2.5 
13.1225 2.5Z"></path>
  </symbol>
  <symbol fill="none" xmlns="http://www.w3.org/2000/svg" viewBox="0 0 14 14" id="question">
    <path d="M7.00004 0.333374C3.32404 0.333374 0.333374 3.32404 0.333374 7.00004C0.333374 10.676 3.32404 
13.6667 7.00004 13.6667C10.676 13.6667 13.6667 10.676 13.6667 7.00004C13.6667 3.32404 10.676 0.333374 
7.00004 0.333374ZM7.66671 11H6.33337V9.66671H7.66671V11ZM8.31737 7.74337C8.18671 7.84871 8.06071 7.94937 
7.96071 8.04937C7.68871 8.32071 7.66737 8.56737 7.66671 8.57804V8.66671H6.33337V8.55537C6.33337 8.47671 
6.35271 7.77071 7.01737 7.10604C7.14737 6.97604 7.30871 6.84404 7.47804 6.70671C7.96737 6.31004 8.28871 
6.02071 8.28871 5.62204C8.28096 5.28525 8.14171 4.96487 7.90075 4.72945C7.65979 4.49403 7.33626 4.36227 
6.99938 4.36235C6.66251 4.36244 6.33904 4.49437 6.0982 4.72992C5.85737 4.96547 5.71828 5.28592 5.71071 
5.62271H4.37737C4.37737 4.17671 5.55404 3.00004 7.00004 3.00004C8.44604 3.00004 9.62271 4.17671 9.62271 
5.62271C9.62271 6.68737 8.83671 7.32271 8.31737 7.74337Z" fill="#59605B"></path>
  </symbol>
  <symbol fill="none" xmlns="http://www.w3.org/2000/svg" viewBox="0 0 16 16" id="plus">
    <path d="M7.33337 
7.33301V3.33301H8.66671V7.33301H12.6667V8.66634H8.66671V12.6663H7.33337V8.66634H3.33337V7.33301H7.33337Z" fill="white">
    </path>
  </symbol>
  <symbol fill="none" xmlns="http://www.w3.org/2000/svg" viewBox="0 0 18 18" id="search">
    <path fill-rule="evenodd" clip-rule="evenodd" d="M11.4214 12.5998C10.2925 13.4774 8.87393 14 7.33334 
14C3.65144 14 0.666672 11.0152 0.666672 7.33329C0.666672 3.65139 3.65144 0.666626 7.33334 
0.666626C11.0152 0.666626 14 3.65139 14 7.33329C14 8.87389 13.4774 10.2924 12.5999 11.4213L17.0893 
15.9107C17.4147 16.2361 17.4147 16.7638 17.0893 17.0892C16.7638 17.4147 16.2362 17.4147 15.9107 
17.0892L11.4214 12.5998ZM12.3333 7.33329C12.3333 10.0947 10.0948 12.3333 7.33334 12.3333C4.57191 12.3333 
2.33334 10.0947 2.33334 7.33329C2.33334 4.57187 4.57191 2.33329 7.33334 2.33329C10.0948 2.33329 12.3333 
4.57187 12.3333 7.33329Z" fill="#777E91"></path>
  </symbol>
  <symbol fill="none" xmlns="http://www.w3.org/2000/svg" viewBox="0 0 24 24" id="swap">
    <path fill-rule="evenodd" clip-rule="evenodd" d="M1.40859 6.3105L6.21909 1.5L7.27959 1.5L12.0901 
6.3105L11.0296 7.371L7.49859 3.8415L7.49859 22.5L5.99859 22.5L5.99859 3.84L2.46909 7.371L1.40859 
6.3105ZM11.9086 17.6895L16.7191 22.5L17.7796 22.5L22.5901 17.6895L21.5296 16.629L18.0001 20.1585L18.0001 
1.5L16.5001 1.5L16.5001 20.16L12.9691 16.629L11.9086 17.6895Z" fill="#454C47"></path>
  </symbol>
  <symbol fill="none" xmlns="http://www.w3.org/2000/svg" viewBox="0 0 24 24" id="transfer">
    <path fill-rule="evenodd" clip-rule="evenodd" d="M1.40847 6.3105L6.21897 1.5L7.27947 1.5L12.09 
6.3105L11.0295 7.371L7.49847 3.8415L7.49846 22.5L5.99847 22.5L5.99847 3.84L2.46897 7.371L1.40847 
6.3105ZM11.9085 17.6895L16.719 22.5L17.7795 22.5L22.59 17.6895L21.5295 16.629L18 20.1585L18 1.5L16.5 
1.5L16.5 20.16L12.969 16.629L11.9085 17.6895Z" fill="#141E17"></path>
  </symbol>
  <symbol fill="none" xmlns="http://www.w3.org/2000/svg" viewBox="0 0 17 16" id="updown">
    <path fill-rule="evenodd" clip-rule="evenodd" d="M4.98701 6.80478C5.24736 7.06513 5.66947 7.06513 
5.92982 
6.80478L7.79175 4.94285L9.65368 6.80478C9.91403 7.06513 10.3361 7.06513 10.5965 6.80478C10.8568 6.54443 
10.8568 6.12232 10.5965 5.86197L8.26315 3.52864C8.0028 3.26829 7.58069 3.26829 7.32034 3.52864L4.98701 
5.86197C4.72666 6.12232 4.72666 6.54443 4.98701 6.80478Z" fill="#59605B"></path>
    <path fill-rule="evenodd" clip-rule="evenodd" d="M4.98701 9.1951C5.24736 8.93475 5.66947 8.93475 
5.92982 
9.1951L7.79175 11.057L9.65368 9.1951C9.91403 8.93475 10.3361 8.93475 10.5965 9.1951C10.8568 9.45545 
10.8568 9.87756 10.5965 10.1379L8.26315 12.4712C8.0028 12.7316 7.58069 12.7316 7.32034 12.4712L4.98701 
10.1379C4.72666 9.87756 4.72666 9.45545 4.98701 9.1951Z" fill="#59605B"></path>
  </symbol>
  <symbol fill="none" xmlns="http://www.w3.org/2000/svg" viewBox="0 0 24 24" id="check">
    <path d="M21.4286 0H2.57143C1.88944 0 1.23539 0.270918 0.753154 0.753154C0.270918 1.23539 0 1.88944 0 
2.57143L0 21.4286C0 22.1106 0.270918 22.7646 0.753154 23.2468C1.23539 23.7291 1.88944 24 2.57143 
24H21.4286C22.1106 24 22.7646 23.7291 23.2468 23.2468C23.7291 22.7646 24 22.1106 24 21.4286V2.57143C24 
1.88944 23.7291 1.23539 23.2468 0.753154C22.7646 0.270918 22.1106 0 21.4286 0ZM20.3202 8.88964L10.463 
18.7468C10.3023 18.9074 10.0844 18.9976 9.85714 18.9976C9.62991 18.9976 9.41198 18.9074 9.25125 
18.7468L3.67982 13.1754C3.60021 13.0958 3.53705 13.0013 3.49397 12.8973C3.45088 12.7932 3.4287 12.6818 
3.4287 12.5692C3.4287 12.4566 3.45088 12.3451 3.49397 12.2411C3.53705 12.1371 3.60021 12.0426 3.67982 
11.963L4.89161 10.7513C4.9712 10.6716 5.0657 10.6085 5.16971 10.5654C5.27371 10.5223 5.38519 10.5001 
5.49777 10.5001C5.61035 10.5001 5.72182 10.5223 5.82583 10.5654C5.92983 10.6085 6.02433 10.6716 6.10393 
10.7513L9.85714 14.5045L17.8961 6.46554C17.9757 6.38592 18.0702 6.32277 18.1742 6.27968C18.2782 6.23659 
18.3897 6.21442 18.5022 6.21442C18.6148 6.21442 18.7263 6.23659 18.8303 6.27968C18.9343 6.32277 19.0288 
6.38592 19.1084 6.46554L20.3202 7.67732C20.3998 7.75692 20.4629 7.85142 20.506 7.95542C20.5491 8.05943 
20.5713 8.1709 20.5713 8.28348C20.5713 8.39606 20.5491 8.50754 20.506 8.61154C20.4629 8.71555 20.3998 
8.81005 20.3202 8.88964Z" fill="#58BD7D"></path>
  </symbol>
  <symbol fill="none" xmlns="http://www.w3.org/2000/svg" viewBox="0 0 20 20" id="drop_down">
    <path fill-rule="evenodd" clip-rule="evenodd" d="M9.99991 14.0967L4.35151 8.4483L6.04831 
6.7515L9.99991 
10.7031L13.9515 6.7515L15.6483 8.4483L9.99991 14.0967ZM9.9999 0.399902C4.6983 0.399902 0.399902 4.6971 
0.399902 9.9999C0.399902 15.3015 4.6983 19.5999 9.9999 19.5999C15.3015 19.5999 19.5999 15.3015 19.5999 
9.9999C19.5999 4.6971 15.3015 0.399902 9.9999 0.399902Z" fill="#8BBC97"></path>
  </symbol>
  <symbol fill="none" xmlns="http://www.w3.org/2000/svg" viewBox="0 0 18 10" id="drop">
    <path d="M17.5005 0.989236C17.3666 0.858402 17.1867 0.785156 16.9995 0.785156C16.8123 0.785156 
16.6324 
0.858402 16.4985 0.989236L9 8.29874L1.503 0.989235C1.36905 0.858402 1.18924 0.785156 1.002 
0.785156C0.814756 0.785156 0.634943 0.858402 0.500998 0.989235C0.435682 1.05283 0.383768 1.12886 0.348322 
1.21285C0.312874 1.29684 0.294613 1.38707 0.294613 1.47823C0.294613 1.5694 0.312874 1.65963 0.348322 
1.74362C0.383768 1.82761 0.435682 1.90364 0.500997 1.96724L8.4765 9.74024C8.61656 9.87676 8.80441 9.95316 
9 9.95316C9.19559 9.95316 9.38344 9.87676 9.5235 9.74024L17.499 1.96724C17.5643 1.90364 17.6162 1.82761 
17.6517 1.74362C17.6871 1.65963 17.7054 1.5694 17.7054 1.47824C17.7054 1.38707 17.6871 1.29684 17.6517 
1.21285C17.6162 1.12886 17.5643 1.05283 17.499 0.989236L17.5005 0.989236Z" fill="#454C47"></path>
  </symbol>
  <symbol fill="none" xmlns="http://www.w3.org/2000/svg" viewBox="0 0 120 120" id="mail">
    <path d="M88.125 116.25C103.658 116.25 116.25 103.658 116.25 88.125C116.25 
72.592 103.658 60 88.125 60C72.592 60 60 72.592 60 88.125C60 103.658 
72.592 116.25 88.125 116.25Z" fill="#F48734"></path>
    <path opacity="0.25" d="M88.1248 60C83.9771 59.9795 79.8762 60.8766 76.116 
62.6271C72.3558 64.3775 69.0292 66.938 66.3748 70.125C71.7063 65.157 
78.7581 62.4524 86.0443 62.581C93.3306 62.7095 100.283 65.6612 105.436 
70.8142C110.589 75.9672 113.54 82.9191 113.669 90.2054C113.797 97.4917 
111.093 104.543 106.125 109.875C110.621 106.189 113.864 101.201 115.409 
95.5959C116.953 89.9911 116.723 84.0454 114.749 78.5769C112.775 73.1084 
109.156 68.3859 104.388 65.0592C99.62 61.7325 93.9384 59.965 88.1248 60Z" fill="white"></path>
    <path d="M88.125 60C94.2126 59.9864 100.138 61.9615 105 
65.625V22.5H3.75V90H60.1875C60.1875 89.4375 60 88.6875 60 88.125C60 
80.6658 62.9632 73.5121 68.2376 68.2376C73.5121 62.9632 80.6658 60 88.125 
60Z" fill="#FEF6F6"></path>
    <path opacity="0.14" d="M48.75 90H60.1875C60.1875 89.4375 60 88.6875 60 
88.125C59.9978 82.4435 61.7164 76.8945 64.9295 72.2088C68.1426 67.5231 
72.6994 63.9203 78 61.875H76.875C69.4158 61.875 62.2621 64.8382 56.9876 
70.1126C51.7132 75.3871 48.75 82.5408 48.75 90Z" fill="#000064"></path>
    <path opacity="0.14" d="M3.75 22.5L54.375 61.125L105 22.5V25.3125L48.75 
75L3.75 30.9375V22.5Z" fill="#000064"></path>
    <path d="M60 90H3.75V22.5H105V65.625" stroke="#F48734" stroke-width="3.75" stroke-miterlimit="10"
      stroke-linecap="round" stroke-linejoin="round"></path>
    <path d="M99.375 82.5L84.375 97.5L76.875 90M3.75 22.5L54.375 61.125L105 
22.5H3.75Z" stroke="white" stroke-width="3.75" stroke-miterlimit="10" stroke-linecap="round" stroke-linejoin="round">
    </path>
    <path d="M88.125 116.25C103.658 116.25 116.25 103.658 116.25 88.125C116.25 
72.592 103.658 60 88.125 60C72.592 60 60 72.592 60 88.125C60 103.658 
72.592 116.25 88.125 116.25Z" stroke="white" stroke-width="3.75" stroke-miterlimit="10" stroke-linecap="round"
      stroke-linejoin="round"></path>
  </symbol>
</svg>