<svg width="0" height="0" class="hidden">
  <symbol fill="none" xmlns="http://www.w3.org/2000/svg" viewBox="0 0 20 20" id="settings">
    <path d="M10 18.8583C9.44167 18.8583 8.875 18.7333 8.43334 18.475L3.85 15.8333C1.98334 14.575 1.86667 
14.3833 1.86667 12.4083V7.59163C1.86667 5.61663 1.975 5.42496 3.80834 4.18329L8.425 1.51663C9.3 1.00829 
10.675 1.00829 11.55 1.51663L16.15 4.16663C18.0167 5.42496 18.1333 5.61663 18.1333 7.59163V12.4C18.1333 
14.375 18.025 14.5666 16.1917 15.8083L11.575 18.475C11.125 18.7333 10.5583 18.8583 10 18.8583ZM10 
2.39163C9.65 2.39163 9.30834 2.45829 9.06667 2.59996L4.48334 5.24996C3.125 6.16663 3.125 6.16663 3.125 
7.59163V12.4C3.125 13.825 3.125 13.825 4.51667 14.7666L9.06667 17.3916C9.55834 17.675 10.45 17.675 
10.9417 17.3916L15.525 14.7416C16.875 13.825 16.875 13.825 16.875 12.4V7.59163C16.875 6.16663 16.875 
6.16663 15.4833 5.22496L10.9333 2.59996C10.6917 2.45829 10.35 2.39163 10 2.39163Z" fill="white"></path>
    <path d="M10 13.125C8.275 13.125 6.875 11.725 6.875 10C6.875 8.275 8.275 6.875 10 6.875C11.725 6.875 
13.125 8.275 13.125 10C13.125 11.725 11.725 13.125 10 13.125ZM10 8.125C8.96667 8.125 8.125 8.96667 8.125 
10C8.125 11.0333 8.96667 11.875 10 11.875C11.0333 11.875 11.875 11.0333 11.875 10C11.875 8.96667 11.0333 
8.125 10 8.125Z" fill="white"></path>
  </symbol>
  <symbol fill="none" xmlns="http://www.w3.org/2000/svg" viewBox="0 0 20 20" id="commodity">
    <path d="M12.5 12.9167C12.5 15.9083 10.075 18.3333 7.08332 18.3333C4.09166 18.3333 1.66666 15.9083 
1.66666 12.9167C1.66666 9.925 4.09166 7.5 7.08332 7.5C7.22499 7.5 7.37499 7.50833 7.51666 7.51667C10.1583 
7.725 12.275 9.84167 12.4833 12.4833C12.4917 12.625 12.5 12.775 12.5 12.9167Z" fill="white"></path>
    <path d="M18.3333 7.08329C18.3333 9.79996 16.3333 12.0416 13.7333 12.4333V12.3833C13.475 9.14996 
10.85 
6.52496 7.59168 6.26663H7.56668C7.95835 3.66663 10.2 1.66663 12.9167 1.66663C15.9083 1.66663 18.3333 
4.09163 18.3333 7.08329Z" fill="white"></path>
    <path d="M4.65832 1.66663H2.49999C2.04166 1.66663 1.66666 2.04163 1.66666 2.49996V4.65829C1.66666 
5.39996 
2.56666 5.77496 3.09166 5.24996L5.24999 3.09163C5.76666 2.56663 5.39999 1.66663 4.65832 1.66663Z" fill="white"></path>
    <path d="M15.3417 18.3333H17.5C17.9583 18.3333 18.3333 17.9583 18.3333 17.5V15.3417C18.3333 14.6 
17.4333 
14.225 16.9083 14.75L14.75 16.9083C14.2333 17.4333 14.6 18.3333 15.3417 18.3333Z" fill="white"></path>
  </symbol>
  <symbol fill="none" xmlns="http://www.w3.org/2000/svg" viewBox="0 0 20 20" id="dashboard">
    <path d="M7.51666 2.36664L3.02499 5.86664C2.27499 6.44997 1.66666 7.69164 1.66666 
8.63331V14.8083C1.66666 
16.7416 3.24166 18.325 5.17499 18.325H14.825C16.7583 18.325 18.3333 16.7416 18.3333 
14.8166V8.74997C18.3333 7.74164 17.6583 6.44997 16.8333 5.87497L11.6833 2.26664C10.5167 1.44997 8.64166 
1.49164 7.51666 2.36664Z" stroke="white" stroke-width="1.5" stroke-linecap="round" stroke-linejoin="round"></path>
    <path d="M10 14.9917V12.4917" stroke="white" stroke-width="1.5" stroke-linecap="round" stroke-linejoin="round">
    </path>
  </symbol>
  <symbol fill="none" xmlns="http://www.w3.org/2000/svg" viewBox="0 0 20 20" id="portfolio">
    <path d="M12.475 18.9583H7.475C2.95 18.9583 1.01666 17.025 1.01666 12.5V7.49996C1.01666 2.97496 2.95 
1.04163 7.475 1.04163H12.475C17 1.04163 18.9333 2.97496 18.9333 7.49996V12.5C18.9333 17.025 17.0083 
18.9583 12.475 18.9583ZM7.475 2.29163C3.63333 2.29163 2.26666 3.65829 2.26666 7.49996V12.5C2.26666 
16.3416 3.63333 17.7083 7.475 17.7083H12.475C16.3167 17.7083 17.6833 16.3416 17.6833 12.5V7.49996C17.6833 
3.65829 16.3167 2.29163 12.475 2.29163H7.475Z" fill="white"></path>
    <path d="M9.54166 15.0499C9.34166 15.0499 8.85833 14.9749 8.57499 14.2499L7.62499 11.8499C7.49166 
11.5083 
7.01666 11.1916 6.65833 11.1916L1.65833 11.2083C1.31666 11.2083 1.03333 10.9333 1.03333 10.5833C1.03333 
10.2416 1.30833 9.95828 1.65833 9.95828L6.65833 9.94161H6.66666C7.54166 9.94161 8.47499 10.5749 8.79999 
11.3916L9.55833 13.3083L11.275 8.95828C11.5333 8.30828 11.9917 8.21661 12.1833 8.19995C12.375 8.19161 
12.8417 8.23328 13.1667 8.84994L14.0333 10.4916C14.1833 10.7749 14.6333 11.0499 14.9583 
11.0499H18.3417C18.6833 11.0499 18.9667 11.3333 18.9667 11.6749C18.9667 12.0166 18.6833 12.2999 18.3417 
12.2999H14.9583C14.1667 12.2999 13.3 11.7749 12.9333 11.0749L12.2833 9.84161L10.5333 14.2499C10.225 
14.9666 9.73333 15.0499 9.54166 15.0499Z" fill="white"></path>
  </symbol>
  <symbol fill="none" xmlns="http://www.w3.org/2000/svg" viewBox="0 0 20 20" id="transaction">
    <path d="M9.58353 18.9584C8.92519 18.9584 8.3002 18.6167 7.86686 18.0334L7.01685 16.9167C6.84185 
16.6834 
6.60853 16.55 6.35853 16.5334C6.11686 16.5167 5.85855 16.6334 5.65022 16.8417C4.93355 17.6084 4.23351 
17.9751 3.57517 17.9584C3.12517 17.9417 2.73351 17.7417 2.43351 17.375C2.40018 17.3334 2.36686 17.2751 
2.34186 17.2167C2.01686 16.5167 1.86685 15.5667 1.86685 14.1417V5.87505C1.86685 4.45005 2.01686 3.50838 
2.34186 2.80005C2.36686 2.75005 2.39185 2.70005 2.43351 2.65838C2.72518 2.28338 3.11688 2.08338 3.56688 
2.05838C4.23355 2.03338 4.94188 2.41672 5.64188 3.16672C5.85021 3.39172 6.10019 3.50005 6.35019 
3.48338C6.60019 3.46672 6.8335 3.33338 7.0085 3.10005L7.85852 1.97505C8.29185 1.39172 8.91685 1.05005 
9.57518 1.05005C10.2335 1.05005 10.8585 1.39172 11.2918 1.97505L12.1335 3.09172C12.3085 3.33338 12.5502 
3.46672 12.8085 3.48338C13.0502 3.50005 13.3085 3.38338 13.5168 3.16672C14.2002 2.43338 14.8752 2.05838 
15.5252 2.05838C15.9919 2.05838 16.4252 2.26672 16.7252 2.65838C16.7585 2.70005 16.7919 2.75005 16.8169 
2.80838C17.1419 3.50838 17.2919 4.45838 17.2919 5.88338V14.15C17.2919 15.575 17.1419 16.5167 16.8169 
17.225C16.7835 17.3 16.7419 17.3667 16.6835 17.4251C16.4252 17.7584 16.0002 17.9667 15.5252 
17.9667C14.8752 17.9667 14.2002 17.5917 13.5168 16.8584C13.3168 16.6417 13.0419 16.525 12.8085 
16.5417C12.5502 16.5584 12.3169 16.6917 12.1335 16.9334L11.2918 18.0501C10.8668 18.6167 10.2419 18.9584 
9.58353 18.9584ZM6.31687 15.2751C6.35021 15.2751 6.39188 15.2751 6.42521 15.2751C7.04188 15.3084 7.61685 
15.6334 8.00851 16.1584L8.85853 17.2834C9.26686 17.8334 9.88351 17.8334 10.2918 17.2917L11.1335 
16.175C11.5335 15.6417 12.1169 15.325 12.7336 15.2917C13.3502 15.2584 13.9668 15.5167 14.4168 
16.0001C15.0335 16.6584 15.4085 16.7084 15.5085 16.7084C15.5752 16.7084 15.6335 16.6917 15.6919 
16.6417C15.9252 16.1167 16.0252 15.3251 16.0252 14.1417V5.87505C16.0252 4.70838 15.9169 3.91672 15.6919 
3.39172C15.6252 3.31672 15.5585 3.30838 15.5085 3.30838C15.4085 3.30838 15.0335 3.35838 14.4168 
4.01672C13.9668 4.50005 13.3502 4.75838 12.7336 4.72505C12.1086 4.69172 11.5252 4.36672 11.1252 
3.84172L10.2835 2.72505C9.87522 2.17505 9.25852 2.17505 8.85019 2.72505L8.00017 3.85838C7.60851 4.38338 
7.03354 4.70005 6.41687 4.73338C5.8002 4.76672 5.18352 4.50838 4.73352 4.03338C4.22519 3.48338 3.83355 
3.30005 3.61688 3.30838C3.56688 3.30838 3.50853 3.32505 3.44186 3.39172C3.21686 3.91672 3.10851 4.70838 
3.10851 5.87505V14.1417C3.10851 15.3167 3.21686 16.1084 3.44186 16.6334C3.51686 16.7 3.56688 16.7084 
3.61688 16.7167C3.82522 16.725 4.21685 16.5417 4.72518 16.0001C5.16685 15.5251 5.74187 15.2751 6.31687 
15.2751Z" fill="white"></path>
    <path d="M13.3333 9.16663H6.66666C6.32499 9.16663 6.04166 8.88329 6.04166 8.54163C6.04166 8.19996 
6.32499 
7.91663 6.66666 7.91663H13.3333C13.675 7.91663 13.9583 8.19996 13.9583 8.54163C13.9583 8.88329 13.675 
9.16663 13.3333 9.16663Z" fill="white"></path>
    <path d="M11.6667 12.0834H6.66666C6.32499 12.0834 6.04166 11.8 6.04166 11.4584C6.04166 11.1167 
6.32499 
10.8334 6.66666 10.8334H11.6667C12.0083 10.8334 12.2917 11.1167 12.2917 11.4584C12.2917 11.8 12.0083 
12.0834 11.6667 12.0834Z" fill="white"></path>
  </symbol>
</svg>