<svg width="0" height="0" class="hidden">
  <symbol fill="none" xmlns="http://www.w3.org/2000/svg" viewBox="0 0 40 40" id="no_image">
    <g opacity=".5" stroke="#3C64B1" stroke-width="1.5" stroke-linecap="round" stroke-linejoin="round">
      <path
        d="M31.667 5H8.333A3.333 3.333 0 005 8.333v23.334A3.333 3.333 0 008.333 35h23.334A3.333 3.333 0 0035 31.667V8.333A3.333 3.333 0 0031.667 5z">
      </path>
      <path d="M14.167 16.668a2.5 2.5 0 100-5 2.5 2.5 0 000 5zM35 25.001l-8.333-8.333L8.333 35.001"></path>
    </g>
  </symbol>
  <symbol fill="none" xmlns="http://www.w3.org/2000/svg" viewBox="0 0 25 24" id="downarr">
    <g clip-path="url(#clip0_178_10287)">
      <path fill-rule="evenodd" clip-rule="evenodd"
        d="M11.9693 24.1987C12.1099 24.3394 12.3007 24.4184 12.4996 24.4184C12.6985 24.4184 12.8893 24.3394 13.0299 24.1987L19.3939 17.8348C19.5345 17.6941 19.6135 17.5034 19.6135 17.3045C19.6135 17.1055 19.5345 16.9148 19.3939 16.7741C19.2532 16.6335 19.0625 16.5545 18.8635 16.5545C18.6646 16.5545 18.4739 16.6335 18.3332 16.7741L13.2495 21.8579L13.2505 0.333897C13.2505 0.134732 13.1714 -0.0562737 13.0306 -0.197104C12.8898 -0.337934 12.6988 -0.417052 12.4996 -0.417051C12.3004 -0.417051 12.1094 -0.337933 11.9686 -0.197103C11.8278 -0.0562733 11.7486 0.134732 11.7486 0.333897L11.7497 21.8579L6.66596 16.7741C6.5253 16.6335 6.33454 16.5545 6.13563 16.5545C5.93671 16.5545 5.74595 16.6335 5.6053 16.7741C5.46464 16.9148 5.38563 17.1055 5.38563 17.3045C5.38563 17.5034 5.46464 17.6941 5.6053 17.8348L11.9693 24.1987Z"
        fill="black"></path>
    </g>
    <defs>
      <clipPath id="clip0_178_10287">
        <rect width="24" height="24" fill="white" transform="translate(24.5 24) rotate(-180)"></rect>
      </clipPath>
    </defs>
  </symbol>
  <symbol xmlns="http://www.w3.org/2000/svg" viewBox="0 0 400 300" id="no">
    <g id="_271_order_confirmed_outline">
      <rect x="107.13" y="81.37" width="175.95" height="20.63" rx="6.48" fill="#68a4fc"></rect>
      <path
        d="M276.61,103h-163a7.49,7.49,0,0,1-7.48-7.48V87.85a7.49,7.49,0,0,1,7.48-7.48h163a7.49,7.49,0,0,1,7.47,7.48v7.67A7.48,7.48,0,0,1,276.61,103Zm-163-20.63a5.49,5.49,0,0,0-5.48,5.48v7.67a5.49,5.49,0,0,0,5.48,5.48h163a5.48,5.48,0,0,0,5.47-5.48V87.85a5.48,5.48,0,0,0-5.47-5.48Z"
        fill="#093f68"></path>
      <path
        d="M115,102H275.23a0,0,0,0,1,0,0v97.63a6.38,6.38,0,0,1-6.38,6.38H121.37a6.38,6.38,0,0,1-6.38-6.38V102A0,0,0,0,1,115,102Z"
        fill="#68a4fc"></path>
      <path
        d="M268.85,207H121.37a7.38,7.38,0,0,1-7.38-7.37V102a1,1,0,0,1,1-1H275.23a1,1,0,0,1,1,1v97.63A7.38,7.38,0,0,1,268.85,207ZM116,103v96.63a5.38,5.38,0,0,0,5.38,5.37H268.85a5.39,5.39,0,0,0,5.38-5.37V103Z"
        fill="#093f68"></path>
      <polygon
        points="207.48 81.37 207.48 126.33 203.35 121.98 199.23 126.33 195.11 121.98 190.99 126.33 186.86 121.98 182.74 126.33 182.74 81.37 207.48 81.37"
        fill="#ffbc0e"></polygon>
      <path
        d="M182.74,127.33a1,1,0,0,1-.37-.07,1,1,0,0,1-.63-.93v-45a1,1,0,0,1,1-1h24.74a1,1,0,0,1,1,1v45a1,1,0,0,1-1.73.69l-3.4-3.59L200,127a1,1,0,0,1-.72.31h0a1,1,0,0,1-.73-.31l-3.39-3.59-3.4,3.59a1,1,0,0,1-1.45,0l-3.4-3.59L183.47,127A1,1,0,0,1,182.74,127.33Zm4.12-6.35a1,1,0,0,1,.72.31l3.4,3.59,3.41-3.59a1,1,0,0,1,.72-.31h0a1,1,0,0,1,.73.31l3.39,3.59,3.4-3.59a1,1,0,0,1,1.45,0l2.4,2.53V82.37H183.74v41.45l2.39-2.53a1,1,0,0,1,.73-.31Z"
        fill="#093f68"></path>
      <path
        d="M162.64,192.12H128.88a1,1,0,0,1-1-1V167.4a1,1,0,0,1,1-1h33.76a1,1,0,0,1,1,1v23.72A1,1,0,0,1,162.64,192.12Zm-32.76-2h31.76V168.4H129.88Z"
        fill="#093f68"></path>
      <path d="M161.93,160.49H129.58a1,1,0,0,1,0-2h32.35a1,1,0,0,1,0,2Z" fill="#093f68"></path>
      <path
        d="M289.26,218.63H214.35a3.61,3.61,0,0,1-3.61-3.61V143.69l16.45-19.47h62.07a3.61,3.61,0,0,1,3.61,3.61V215A3.61,3.61,0,0,1,289.26,218.63Z"
        fill="#fff"></path>
      <path
        d="M289.26,219.63H214.35a4.62,4.62,0,0,1-4.61-4.61V143.69A1,1,0,0,1,210,143l16.45-19.46a1,1,0,0,1,.76-.36h62.07a4.62,4.62,0,0,1,4.61,4.61V215A4.62,4.62,0,0,1,289.26,219.63Zm-77.52-75.58v71a2.61,2.61,0,0,0,2.61,2.61h74.91a2.61,2.61,0,0,0,2.61-2.61V127.83a2.61,2.61,0,0,0-2.61-2.61h-61.6Z"
        fill="#093f68"></path>
      <path d="M210.74,143.69h12.85a3.61,3.61,0,0,0,3.6-3.61V124.22Z" fill="#fff"></path>
      <path
        d="M223.59,144.69H210.74A1,1,0,0,1,210,143l16.45-19.46a1,1,0,0,1,1.76.64v15.86A4.61,4.61,0,0,1,223.59,144.69Zm-10.69-2h10.69a2.61,2.61,0,0,0,2.6-2.61V127Z"
        fill="#093f68"></path>
      <path
        d="M242.62,175.82l-14.43-15.89a3,3,0,0,1,.2-4.22l4-3.65a3,3,0,0,1,4.22.2l8.69,9.57,23.94-22.25a3,3,0,0,1,4.22.15l3.69,4a3,3,0,0,1-.15,4.23L246.82,176A3,3,0,0,1,242.62,175.82Z"
        fill="#70cc40"></path>
      <path
        d="M244.81,177.78h-.17a3.91,3.91,0,0,1-2.76-1.29L227.45,160.6a4,4,0,0,1,.27-5.63l4-3.65a4,4,0,0,1,5.63.27l8,8.82,23.2-21.56a4,4,0,0,1,5.64.2l3.69,4a4,4,0,0,1-.21,5.64L247.5,176.73A4,4,0,0,1,244.81,177.78Zm-10.4-25.49a2,2,0,0,0-1.34.51l-4,3.65a2,2,0,0,0-.13,2.8l14.43,15.89h0a2,2,0,0,0,2.78.12l30.19-28.07a2,2,0,0,0,.63-1.38,2,2,0,0,0-.53-1.43l-3.69-4a2,2,0,0,0-2.81-.1L246,162.56a1,1,0,0,1-.72.27,1,1,0,0,1-.7-.33l-8.69-9.56A2,2,0,0,0,234.41,152.29Z"
        fill="#093f68"></path>
      <path d="M280.4,190.11h-8.62a1,1,0,0,1,0-2h8.62a1,1,0,0,1,0,2Z" fill="#dfeaef"></path>
      <path d="M262.45,190.11H225a1,1,0,0,1,0-2h37.47a1,1,0,0,1,0,2Z" fill="#dfeaef"></path>
      <path d="M280.4,198.93H248.66a1,1,0,0,1,0-2H280.4a1,1,0,0,1,0,2Z" fill="#dfeaef"></path>
      <path d="M239.94,198.93H225a1,1,0,1,1,0-2h15a1,1,0,0,1,0,2Z" fill="#dfeaef"></path>
      <path d="M260.42,207.75H225a1,1,0,0,1,0-2h35.44a1,1,0,0,1,0,2Z" fill="#dfeaef"></path>
    </g>
  </symbol>
  <symbol fill="none" xmlns="http://www.w3.org/2000/svg" viewBox="0 0 24 24" id="uparr">
    <g clip-path="url(#clip0_181_12165)">
      <path fill-rule="evenodd" clip-rule="evenodd"
        d="M12.5298 -0.197772C12.3891 -0.338424 12.1983 -0.417442 11.9994 -0.417443C11.8005 -0.417442 11.6098 -0.338425 11.4691 -0.197772L5.10515 6.16619C4.96449 6.30684 4.88548 6.49761 4.88548 6.69652C4.88548 6.89543 4.96449 7.0862 5.10515 7.22685C5.2458 7.3675 5.43656 7.44652 5.63548 7.44652C5.83439 7.44652 6.02515 7.3675 6.16581 7.22685L11.2495 2.1431L11.2485 23.6671C11.2485 23.8662 11.3276 24.0572 11.4684 24.1981C11.6093 24.3389 11.8003 24.418 11.9994 24.418C12.1986 24.418 12.3896 24.3389 12.5304 24.1981C12.6713 24.0572 12.7504 23.8662 12.7504 23.6671L12.7493 2.1431L17.8331 7.22685C17.9737 7.3675 18.1645 7.44652 18.3634 7.44652C18.5623 7.44652 18.7531 7.3675 18.8937 7.22685C19.0344 7.0862 19.1134 6.89543 19.1134 6.69652C19.1134 6.49761 19.0344 6.30684 18.8937 6.16619L12.5298 -0.197772Z"
        fill="black"></path>
    </g>
    <defs>
      <clipPath id="clip0_181_12165">
        <rect width="24" height="24" fill="white" transform="translate(24 24) rotate(-180)"></rect>
      </clipPath>
    </defs>
  </symbol>
  <symbol fill="none" xmlns="http://www.w3.org/2000/svg" viewBox="0 0 24 24" id="goback">
    <path
      d="M15 20.67C14.81 20.67 14.62 20.6 14.47 20.45L7.95003 13.93C6.89003 12.87 6.89003 11.13 7.95003 10.07L14.47 3.55002C14.76 3.26002 15.24 3.26002 15.53 3.55002C15.82 3.84002 15.82 4.32002 15.53 4.61002L9.01003 11.13C8.53003 11.61 8.53003 12.39 9.01003 12.87L15.53 19.39C15.82 19.68 15.82 20.16 15.53 20.45C15.38 20.59 15.19 20.67 15 20.67Z"
      fill="#292D32"></path>
  </symbol>

  <symbol fill="none" xmlns="http://www.w3.org/2000/svg" viewBox="0 0 24 24" id="check">
    <path d="M21.4286 0H2.57143C1.88944 0 1.23539 0.270918 0.753154 0.753154C0.270918 1.23539 0 1.88944 0 
2.57143L0 21.4286C0 22.1106 0.270918 22.7646 0.753154 23.2468C1.23539 23.7291 1.88944 24 2.57143 
24H21.4286C22.1106 24 22.7646 23.7291 23.2468 23.2468C23.7291 22.7646 24 22.1106 24 21.4286V2.57143C24 
1.88944 23.7291 1.23539 23.2468 0.753154C22.7646 0.270918 22.1106 0 21.4286 0ZM20.3202 8.88964L10.463 
18.7468C10.3023 18.9074 10.0844 18.9976 9.85714 18.9976C9.62991 18.9976 9.41198 18.9074 9.25125 
18.7468L3.67982 13.1754C3.60021 13.0958 3.53705 13.0013 3.49397 12.8973C3.45088 12.7932 3.4287 12.6818 
3.4287 12.5692C3.4287 12.4566 3.45088 12.3451 3.49397 12.2411C3.53705 12.1371 3.60021 12.0426 3.67982 
11.963L4.89161 10.7513C4.9712 10.6716 5.0657 10.6085 5.16971 10.5654C5.27371 10.5223 5.38519 10.5001 
5.49777 10.5001C5.61035 10.5001 5.72182 10.5223 5.82583 10.5654C5.92983 10.6085 6.02433 10.6716 6.10393 
10.7513L9.85714 14.5045L17.8961 6.46554C17.9757 6.38592 18.0702 6.32277 18.1742 6.27968C18.2782 6.23659 
18.3897 6.21442 18.5022 6.21442C18.6148 6.21442 18.7263 6.23659 18.8303 6.27968C18.9343 6.32277 19.0288 
6.38592 19.1084 6.46554L20.3202 7.67732C20.3998 7.75692 20.4629 7.85142 20.506 7.95542C20.5491 8.05943 
20.5713 8.1709 20.5713 8.28348C20.5713 8.39606 20.5491 8.50754 20.506 8.61154C20.4629 8.71555 20.3998 
8.81005 20.3202 8.88964Z" fill="#23a8f2"></path>
  </symbol>
  <symbol fill="none" xmlns="http://www.w3.org/2000/svg" viewBox="0 0 20 20" id="drop_down">
    <path fill-rule="evenodd" clip-rule="evenodd" d="M9.99991 14.0967L4.35151 8.4483L6.04831 6.7515L9.99991 
10.7031L13.9515 6.7515L15.6483 8.4483L9.99991 14.0967ZM9.9999 0.399902C4.6983 0.399902 0.399902 4.6971 
0.399902 9.9999C0.399902 15.3015 4.6983 19.5999 9.9999 19.5999C15.3015 19.5999 19.5999 15.3015 19.5999 
9.9999C19.5999 4.6971 15.3015 0.399902 9.9999 0.399902Z" fill="#8BBC97"></path>
  </symbol>
  <symbol fill="none" xmlns="http://www.w3.org/2000/svg" viewBox="0 0 18 10" id="drop">
    <path d="M17.5005 0.989236C17.3666 0.858402 17.1867 0.785156 16.9995 0.785156C16.8123 0.785156 16.6324 
0.858402 16.4985 0.989236L9 8.29874L1.503 0.989235C1.36905 0.858402 1.18924 0.785156 1.002 
0.785156C0.814756 0.785156 0.634943 0.858402 0.500998 0.989235C0.435682 1.05283 0.383768 1.12886 0.348322 
1.21285C0.312874 1.29684 0.294613 1.38707 0.294613 1.47823C0.294613 1.5694 0.312874 1.65963 0.348322 
1.74362C0.383768 1.82761 0.435682 1.90364 0.500997 1.96724L8.4765 9.74024C8.61656 9.87676 8.80441 9.95316 
9 9.95316C9.19559 9.95316 9.38344 9.87676 9.5235 9.74024L17.499 1.96724C17.5643 1.90364 17.6162 1.82761 
17.6517 1.74362C17.6871 1.65963 17.7054 1.5694 17.7054 1.47824C17.7054 1.38707 17.6871 1.29684 17.6517 
1.21285C17.6162 1.12886 17.5643 1.05283 17.499 0.989236L17.5005 0.989236Z" fill="#454C47"></path>
  </symbol>
  <symbol fill="none" xmlns="http://www.w3.org/2000/svg" viewBox="0 0 120 120" id="mail">
    <path d="M88.125 116.25C103.658 116.25 116.25 103.658 116.25 88.125C116.25 
72.592 103.658 60 88.125 60C72.592 60 60 72.592 60 88.125C60 103.658 
72.592 116.25 88.125 116.25Z" fill="#F48734"></path>
    <path opacity="0.25" d="M88.1248 60C83.9771 59.9795 79.8762 60.8766 76.116 
62.6271C72.3558 64.3775 69.0292 66.938 66.3748 70.125C71.7063 65.157 
78.7581 62.4524 86.0443 62.581C93.3306 62.7095 100.283 65.6612 105.436 
70.8142C110.589 75.9672 113.54 82.9191 113.669 90.2054C113.797 97.4917 
111.093 104.543 106.125 109.875C110.621 106.189 113.864 101.201 115.409 
95.5959C116.953 89.9911 116.723 84.0454 114.749 78.5769C112.775 73.1084 
109.156 68.3859 104.388 65.0592C99.62 61.7325 93.9384 59.965 88.1248 60Z" fill="white"></path>
    <path d="M88.125 60C94.2126 59.9864 100.138 61.9615 105 
65.625V22.5H3.75V90H60.1875C60.1875 89.4375 60 88.6875 60 88.125C60 
80.6658 62.9632 73.5121 68.2376 68.2376C73.5121 62.9632 80.6658 60 88.125 
60Z" fill="#FEF6F6"></path>
    <path opacity="0.14" d="M48.75 90H60.1875C60.1875 89.4375 60 88.6875 60 
88.125C59.9978 82.4435 61.7164 76.8945 64.9295 72.2088C68.1426 67.5231 
72.6994 63.9203 78 61.875H76.875C69.4158 61.875 62.2621 64.8382 56.9876 
70.1126C51.7132 75.3871 48.75 82.5408 48.75 90Z" fill="#000064"></path>
    <path opacity="0.14" d="M3.75 22.5L54.375 61.125L105 22.5V25.3125L48.75 
75L3.75 30.9375V22.5Z" fill="#000064"></path>
    <path d="M60 90H3.75V22.5H105V65.625" stroke="#F48734" stroke-width="3.75" stroke-miterlimit="10"
      stroke-linecap="round" stroke-linejoin="round"></path>
    <path d="M99.375 82.5L84.375 97.5L76.875 90M3.75 22.5L54.375 61.125L105 
22.5H3.75Z" stroke="white" stroke-width="3.75" stroke-miterlimit="10" stroke-linecap="round" stroke-linejoin="round">
    </path>
    <path d="M88.125 116.25C103.658 116.25 116.25 103.658 116.25 88.125C116.25 
72.592 103.658 60 88.125 60C72.592 60 60 72.592 60 88.125C60 103.658 
72.592 116.25 88.125 116.25Z" stroke="white" stroke-width="3.75" stroke-miterlimit="10" stroke-linecap="round"
      stroke-linejoin="round"></path>
  </symbol>
  <symbol fill="none" xmlns="http://www.w3.org/2000/svg" viewBox="0 0 16 16" id="facebook">
    <path fill-rule="evenodd" clip-rule="evenodd" d="M0 8.04467C0 12.022 
2.88867 15.3293 6.66667 16V10.222H4.66667V8H6.66667V6.222C6.66667 4.222 
7.95533 3.11133 9.778 3.11133C10.3553 3.11133 10.978 3.2 11.5553 
3.28867V5.33333H10.5333C9.55533 5.33333 9.33333 5.822 9.33333 
6.44467V8H11.4667L11.1113 10.222H9.33333V16C13.1113 15.3293 16 12.0227 16 
8.04467C16 3.62 12.4 0 8 0C3.6 0 0 3.62 0 8.04467Z" fill="#1F2722"></path>
  </symbol>
  <symbol fill="none" xmlns="http://www.w3.org/2000/svg" viewBox="0 0 14 14" id="google">
    <path d="M13.8983 5.78766H7.53499V8.51516H11.1417C10.565 10.3335 9.14082 
10.9393 7.50582 10.9393C6.87224 10.9401 6.24781 10.7881 5.68551 
10.4961C5.12322 10.2041 4.63965 9.78079 4.27584 9.26207C3.91203 8.74334 
3.67871 8.14452 3.59568 7.51639C3.51264 6.88827 3.58235 6.24938 3.79888 
5.65394C4.01541 5.05851 4.37237 4.52408 4.83949 4.09602C5.3066 3.66795 
5.87007 3.35888 6.4821 3.19502C7.09413 3.03115 7.73666 3.01734 8.35517 
3.15475C8.97368 3.29216 9.54991 3.57673 10.035 3.98433L12.0167 
2.09683C11.2186 1.36169 10.2532 0.832452 9.20423 0.555052C8.15526 0.277652 
7.05443 0.260477 5.99732 0.505018C4.9402 0.749558 3.95875 1.24842 3.13817 
1.9583C2.31758 2.66819 1.68266 3.56763 1.28853 4.57854C0.894402 5.58946 
0.752973 6.6813 0.876522 7.75928C1.00007 8.83725 1.38486 9.86878 1.9975 
10.7643C2.61013 11.6598 3.43208 12.3923 4.392 12.8981C5.35192 13.4039 
6.42079 13.6678 7.50582 13.6668C11.1817 13.6668 14.5058 11.2427 13.8983 
5.78766Z" fill="#1F2722"></path>
  </symbol>


  <symbol fill="none" xmlns="http://www.w3.org/2000/svg" viewBox="0 0 24 24" id="add_user">
    <path d="M3 19C3 16.7909 5.68629 15 9 15C12.3137 15 15 16.7909 15 19" stroke="#1A0E2C" stroke-width="2"
      stroke-linecap="round" stroke-linejoin="round"></path>
    <path d="M19 16V10" stroke="#1A0E2C" stroke-width="2" stroke-linecap="round" stroke-linejoin="round"></path>
    <path d="M16 13L22 13" stroke="#1A0E2C" stroke-width="2" stroke-linecap="round" stroke-linejoin="round"></path>
    <path d="M9 12C11.2091 12 13 10.2091 13 8C13 5.79086 11.2091 4 9 4C6.79086 
4 5 5.79086 5 8C5 10.2091 6.79086 12 9 12Z" stroke="#1A0E2C" stroke-width="2" stroke-linecap="round"
      stroke-linejoin="round"></path>
  </symbol>
  <symbol fill="none" xmlns="http://www.w3.org/2000/svg" viewBox="0 0 119 32" id="logo">
    <path
      d="M0 0L0 31.469H5.79594V16.7596C5.79594 15.6267 6.04183 14.6178 6.53361 13.7327C7.02539 12.8477 7.71036 12.1574 8.58853 11.6617C9.46671 11.1661 10.4678 10.9183 11.5919 10.9183C13.278 10.9183 14.6479 11.467 15.7017 12.5645C16.7907 13.6619 17.3351 15.0603 17.3351 16.7596V31.469H23.1311V15.4851C23.1311 13.5026 22.7096 11.7679 21.8665 10.2811C21.0235 8.7588 19.8643 7.57284 18.3889 6.7232C16.9136 5.87356 15.2275 5.44874 13.3307 5.44874C11.4689 5.44874 9.78285 5.89126 8.27239 6.7763C7.3133 7.32864 6.48782 8.02311 5.79594 8.8597V0H0Z"
      fill="black"></path>
    <path
      d="M95.5528 0V31.469H101.349V18.9716L111.623 31.469H119L107.817 18.2009L118.473 5.97977H111.571L101.349 17.9646V0H95.5528Z"
      fill="black"></path>
    <path d="M29.0736 5.97977V31.469H34.8695V5.97977H29.0736Z" fill="black"></path>
    <path d="M49.906 31.469L38.3668 5.97977H44.7951L51.7032 22.2803L58.6526 5.97977H64.8174L53.2782 31.469H49.906Z"
      fill="black"></path>
    <path fill-rule="evenodd" clip-rule="evenodd"
      d="M72.3069 30.3007C74.3442 31.4336 76.6275 32 79.1566 32C80.9829 32 82.7184 31.6796 84.3631 31.0388V24.9022C83.8561 25.2775 83.2974 25.5901 82.6869 25.8401C81.5979 26.3003 80.4036 26.5304 79.1039 26.5304C77.5935 26.5304 76.2586 26.2118 75.0994 25.5746C73.9403 24.902 73.0445 23.9638 72.4122 22.7602C72.1101 22.1851 71.8802 21.5655 71.7225 20.9016H90.5904C90.6958 20.3706 90.7661 19.8926 90.8012 19.4678C90.8714 19.0076 90.9066 18.5651 90.9066 18.1402C90.9066 15.6975 90.3797 13.5203 89.3259 11.6086C88.3072 9.69694 86.8845 8.19237 85.0579 7.09492C83.2665 5.99747 81.194 5.44874 78.8405 5.44874C76.4167 5.44874 74.2037 6.03287 72.2015 7.20112C70.2344 8.36938 68.6712 9.96245 67.512 11.9804C66.3528 13.9628 65.7732 16.2109 65.7732 18.7244C65.7732 21.2379 66.3528 23.5036 67.512 25.5215C68.7063 27.5394 70.3046 29.1325 72.3069 30.3007ZM71.7404 16.1223C71.8879 15.5282 72.0942 14.9795 72.3596 14.4762C72.9567 13.3079 73.7998 12.4052 74.8887 11.7679C75.9776 11.1307 77.2598 10.8121 78.7351 10.8121C80.1402 10.8121 81.3169 11.0953 82.2653 11.6617C83.2489 12.2282 84.0041 13.0424 84.531 14.1045C84.8262 14.6993 85.0497 15.372 85.2015 16.1223H71.7404Z"
      fill="black"></path>
  </symbol>



  <symbol fill="none" xmlns="http://www.w3.org/2000/svg" viewBox="0 0 24 24" id="close">
    <path
      d="M12 12.0008L6.75704 17.2438M6.75704 6.75781L12 12.0008L6.75704 6.75781ZM17.243 17.2438L12 11.9998L17.243 17.2438ZM12 11.9998L17.243 6.75781L12 11.9998Z"
      stroke="#1F2721" stroke-width="1.5" stroke-linecap="round" stroke-linejoin="round"></path>
  </symbol>
  <symbol fill="none" xmlns="http://www.w3.org/2000/svg" viewBox="0 0 24 24" id="rarr">
    <path d="M9 5L16 12L9 19" stroke="#1A0E2C" stroke-width="2" stroke-linecap="round" stroke-linejoin="round"></path>
  </symbol>
  <symbol fill="none" xmlns="http://www.w3.org/2000/svg" viewBox="0 0 21 14" id="rise">
    <path d="M1.01257 13C1.92992 11.9157 4.90721 8.72772 6.50885 7L12.5048 
10L19.5 1" stroke="#13B440" stroke-width="2" stroke-linecap="round"></path>
  </symbol>

  <symbol fill="none" xmlns="http://www.w3.org/2000/svg" viewBox="0 0 24 24" id="bin">
    <path d="M14 10V18" stroke-width="2" stroke-linecap="round" stroke-linejoin="round"></path>
    <path d="M10 10V18" stroke-width="2" stroke-linecap="round" stroke-linejoin="round"></path>
    <path d="M19 5H5V20.8667C5 21.4926 5.52233 22 6.16667 22H17.8333C18.4777 
22 19 21.4926 19 20.8667V5Z" stroke-width="2" stroke-linecap="round" stroke-linejoin="round"></path>
    <path d="M3 5H21" stroke-width="2" stroke-linecap="round" stroke-linejoin="round"></path>
    <path d="M15 2H9C8.44772 2 8 2.44772 8 3V5H16V3C16 2.44772 15.5523 2 15 
2Z" stroke-width="2" stroke-linecap="round" stroke-linejoin="round"></path>
  </symbol>
  <symbol fill="none" xmlns="http://www.w3.org/2000/svg" viewBox="0 0 25 24" id="receive">
    <path fill-rule="evenodd" clip-rule="evenodd" d="M3.1665 20.25C3.1665 
20.4489 3.24552 20.6397 3.38617 20.7803C3.52683 20.921 3.71759 21 3.9165 
21H12.9165C13.1154 21 13.3062 20.921 13.4468 20.7803C13.5875 20.6397 
13.6665 20.4489 13.6665 20.25C13.6665 20.0511 13.5875 19.8603 13.4468 
19.7197C13.3062 19.579 13.1154 19.5 12.9165 19.5H5.727L20.9475 
4.281C21.0883 4.14017 21.1674 3.94916 21.1674 3.75C21.1674 3.55084 21.0883 
3.35983 20.9475 3.219C20.8067 3.07817 20.6157 2.99905 20.4165 
2.99905C20.2173 2.99905 20.0263 3.07817 19.8855 3.219L4.6665 
18.4395V11.25C4.6665 11.0511 4.58749 10.8603 4.44683 10.7197C4.30618 
10.579 4.11542 10.5 3.9165 10.5C3.71759 10.5 3.52683 10.579 3.38617 
10.7197C3.24552 10.8603 3.1665 11.0511 3.1665 11.25V20.25Z" fill="black"></path>
  </symbol>
  <symbol fill="none" xmlns="http://www.w3.org/2000/svg" viewBox="0 0 19 18" id="send">
    <path fill-rule="evenodd" clip-rule="evenodd" d="M18.5 0.75C18.5 0.551088 
18.421 0.360323 18.2803 0.219669C18.1397 0.0790176 17.9489 0 17.75 
0H8.75C8.55109 0 8.36032 0.0790176 8.21967 0.219669C8.07902 0.360323 8 
0.551088 8 0.75C8 0.948914 8.07902 1.13968 8.21967 1.28033C8.36032 1.42098 
8.55109 1.5 8.75 1.5H15.9395L0.719002 16.719C0.578171 16.8598 0.499054 
17.0508 0.499054 17.25C0.499054 17.4492 0.578171 17.6402 0.719002 
17.781C0.859831 17.9218 1.05084 18.0009 1.25 18.0009C1.44917 18.0009 
1.64017 17.9218 1.781 17.781L17 2.5605V9.75C17 9.94891 17.079 10.1397 
17.2197 10.2803C17.3603 10.421 17.5511 10.5 17.75 10.5C17.9489 10.5 
18.1397 10.421 18.2803 10.2803C18.421 10.1397 18.5 9.94891 18.5 
9.75V0.75Z" fill="black"></path>
  </symbol>
  <symbol fill="none" xmlns="http://www.w3.org/2000/svg" viewBox="0 0 64 64" id="no_commodity">
    <path d="M0 32C0 40.4869 3.37142 48.6263 9.37258 54.6274C15.3737 60.6286 23.5131 64 32 64C40.4869 64 48.6263 60.6286 54.6274 54.6274C60.6286 
48.6263 64 40.4869 64 32C64 23.5131 60.6286 15.3737 54.6274 9.37258C48.6263 3.37142 40.4869 0 32 0C23.5131 0 15.3737 3.37142 9.37258 
9.37258C3.37142 15.3737 0 23.5131 0 32Z" fill="#F1F2F6"></path>
    <path d="M4.5466 11.5662L37.3942 1.92107L49.9751 44.7666L17.1275 54.4117L4.5466 11.5662Z" fill="white"
      stroke="#1D1E2C" stroke-width="1.3175" stroke-linecap="round" stroke-linejoin="round"></path>
    <path d="M11.0403 4.77014H45.2754V49.4237H11.0403V4.77014Z" fill="white" stroke="#1D1E2C" stroke-width="1.3175"
      stroke-linecap="round" stroke-linejoin="round"></path>
    <path d="M15.5063 9.23627H40.8103V13.7019H15.5063V9.23627Z" fill="#E5E9F2" stroke="#1D1E2C" stroke-width="1.3175"
      stroke-linecap="round" stroke-linejoin="round"></path>
    <path d="M24.4364 21.143H30.3908" stroke="#1D1E2C" stroke-width="1.3175" stroke-linecap="round"
      stroke-linejoin="round"></path>
    <path d="M24.4364 24.1207H37.8332" stroke="#1D1E2C" stroke-width="1.3175" stroke-linecap="round"
      stroke-linejoin="round"></path>
    <path d="M24.4364 27.0975H34.1228" stroke="#1D1E2C" stroke-width="1.3175" stroke-linecap="round"
      stroke-linejoin="round"></path>
    <path d="M24.4364 36.0281H31.8788" stroke="#1D1E2C" stroke-width="1.3175" stroke-linecap="round"
      stroke-linejoin="round"></path>
    <path d="M24.4364 39.0048H39.3212" stroke="#1D1E2C" stroke-width="1.3175" stroke-linecap="round"
      stroke-linejoin="round"></path>
    <path d="M24.4364 41.9825H36.3444" stroke="#1D1E2C" stroke-width="1.3175" stroke-linecap="round"
      stroke-linejoin="round"></path>
    <path d="M16.919 26.6038V24.63H16.3199V24.1385H16.919V23.5087H16.3199V23.0172H16.919V21.1202H17.7177L18.4473 
23.0172H19.3535V21.1202H19.9602V23.0172H20.5593V23.5087H19.9602V24.1385H20.5593V24.63H19.9602V26.6038H19.1538L18.4242 
24.63H17.518V26.6038H16.919ZM17.5026 23.0172H17.8252L17.5026 22.0649H17.4719L17.5026 23.0172ZM17.518 24.1385H18.2399L18.0095 
23.5087H17.5026L17.518 24.1385ZM18.8543 24.1385H19.3689L19.3535 23.5087H18.6239L18.8543 24.1385ZM19.3535 25.5209H19.3842L19.3612 
24.63H19.0386L19.3535 25.5209Z" fill="#1D1E2C"></path>
    <path d="M16.919 41.9634V39.9896H16.3199V39.4981H16.919V38.8683H16.3199V38.3768H16.919V36.4799H17.7177L18.4473 
38.3768H19.3535V36.4799H19.9602V38.3768H20.5593V38.8683H19.9602V39.4981H20.5593V39.9896H19.9602V41.9634H19.1538L18.4242 
39.9896H17.518V41.9634H16.919ZM17.5026 38.3768H17.8252L17.5026 37.4245H17.4719L17.5026 38.3768ZM17.518 39.4981H18.2399L18.0095 
38.8683H17.5026L17.518 39.4981ZM18.8543 39.4981H19.3689L19.3535 38.8683H18.6239L18.8543 39.4981ZM19.3535 40.8805H19.3842L19.3612 
39.9896H19.0386L19.3535 40.8805Z" fill="#1D1E2C"></path>
    <path d="M60.7755 56.1768C61.0387 56.4332 61.2483 56.7393 61.3923 57.0774C61.5362 57.4155 61.6115 57.7788 61.6139 58.1463C61.6163 58.5137 61.5458 
58.878 61.4063 59.2179C61.2668 59.5579 61.0612 59.8667 60.8014 60.1266C60.5416 60.3864 60.2327 60.5921 59.8928 60.7317C59.5529 60.8712 59.1887 
60.9419 58.8212 60.9396C58.4538 60.9372 58.0904 60.862 57.7523 60.7181C57.4142 60.5743 57.108 60.3647 56.8515 60.1016L49.4915 52.7416L53.4163 
48.8168L60.7755 56.1768Z" fill="#E5E9F2"></path>
    <path d="M60.7755 56.1768C61.0387 56.4332 61.2483 56.7393 61.3923 57.0774C61.5362 57.4155 61.6115 57.7788 61.6139 58.1463C61.6163 58.5137 61.5458 
58.878 61.4063 59.2179C61.2668 59.5579 61.0612 59.8667 60.8014 60.1266C60.5416 60.3864 60.2327 60.5921 59.8928 60.7317C59.5529 60.8712 59.1887 
60.9419 58.8212 60.9396C58.4538 60.9372 58.0904 60.862 57.7523 60.7181C57.4142 60.5743 57.108 60.3647 56.8515 60.1016L49.4915 52.7416L53.4163 
48.8168L60.7755 56.1768Z" stroke="#1D1E2C" stroke-width="1.3175" stroke-linecap="round" stroke-linejoin="round"></path>
    <path d="M45.5657 46.856L47.5278 44.8933L52.4346 49.7988L50.4725 51.7615L45.5657 46.856Z" fill="white"
      stroke="#1D1E2C" stroke-width="1.3175" stroke-linecap="round" stroke-linejoin="round"></path>
    <path d="M48.0209 29.6846C49.7675 31.4312 50.957 33.6565 51.4389 36.0791C51.9208 38.5017 51.6735 41.0128 50.7283 43.2949C49.783 45.5769 48.1823 
47.5274 46.1285 48.8997C44.0747 50.272 41.6601 51.0045 39.1901 51.0045C36.72 51.0045 34.3054 50.272 32.2516 48.8997C30.1978 47.5274 28.5971 
45.5769 27.6519 43.2949C26.7067 41.0128 26.4594 38.5017 26.9413 36.0791C27.4232 33.6565 28.6126 31.4312 30.3593 29.6846C32.7016 27.343 35.878 
26.0275 39.1901 26.0275C42.5021 26.0275 45.6786 27.343 48.0209 29.6846Z" fill="white" stroke="#1D1E2C"
      stroke-width="1.3175" stroke-linecap="round" stroke-linejoin="round"></path>
    <path d="M45.5663 32.1383C46.8276 33.3997 47.6866 35.0068 48.0346 36.7563C48.3826 38.5059 48.204 40.3193 47.5213 41.9673C46.8387 43.6154 45.6827 
45.024 44.1995 46.015C42.7163 47.006 40.9725 47.535 39.1887 47.535C37.4049 47.535 35.6611 47.006 34.1779 46.015C32.6947 45.024 31.5387 43.6154 
30.8561 41.9673C30.1734 40.3193 29.9948 38.5059 30.3428 36.7563C30.6908 35.0068 31.5498 33.3997 32.8111 32.1383C33.6486 31.3007 34.6428 30.6363 
35.7371 30.1829C36.8314 29.7296 38.0042 29.4963 39.1887 29.4963C40.3732 29.4963 41.546 29.7296 42.6403 30.1829C43.7346 30.6363 44.7288 31.3007 
45.5663 32.1383Z" fill="#E5E9F2"></path>
    <path d="M45.5663 32.1383C46.8276 33.3997 47.6866 35.0068 48.0346 36.7563C48.3826 38.5059 48.204 40.3193 47.5213 41.9673C46.8387 43.6154 45.6827 
45.024 44.1995 46.015C42.7163 47.006 40.9725 47.535 39.1887 47.535C37.4049 47.535 35.6611 47.006 34.1779 46.015C32.6947 45.024 31.5387 43.6154 
30.8561 41.9673C30.1734 40.3193 29.9948 38.5059 30.3428 36.7563C30.6908 35.0068 31.5498 33.3997 32.8111 32.1383C33.6486 31.3007 34.6428 30.6363 
35.7371 30.1829C36.8314 29.7296 38.0042 29.4963 39.1887 29.4963C40.3732 29.4963 41.546 29.7296 42.6403 30.1829C43.7346 30.6363 44.7288 31.3007 
45.5663 32.1383Z" stroke="#1D1E2C" stroke-width="1.3175" stroke-linecap="round" stroke-linejoin="round"></path>
    <path
      d="M20.6187 59.9848C20.6187 60.4297 21.9146 60.8564 24.2215 61.171C26.5283 61.4856 29.6571 61.6624 32.9195 61.6624C36.1818 61.6624 39.3106 
61.4856 41.6174 61.171C43.9243 60.8564 45.2203 60.4297 45.2203 59.9848C45.2203 59.5399 43.9243 59.1132 41.6174 58.7985C39.3106 58.4839 36.1818 
58.3072 32.9195 58.3072C29.6571 58.3072 26.5283 58.4839 24.2215 58.7985C21.9146 59.1132 20.6187 59.5399 20.6187 59.9848Z"
      fill="#E5E9F2"></path>
  </symbol>
  <symbol fill="none" xmlns="http://www.w3.org/2000/svg" viewBox="0 0 29 19" id="back">
    <path fill-rule="evenodd" clip-rule="evenodd" d="M29 9.9998C29 10.265 28.8946 10.5194 28.7071 
10.7069C28.5196 10.8944 28.2652 10.9998 28 10.9998L4.414 10.9998L10.708 17.2918C10.8958 17.4796 11.0013 
17.7342 11.0013 17.9998C11.0013 18.2653 10.8958 18.52 10.708 18.7078C10.5202 18.8956 10.2655 19.0011 10 
19.0011C9.73445 19.0011 9.47977 18.8956 9.292 18.7078L1.292 10.7078C1.19887 10.6149 1.12499 10.5046 
1.07458 10.3831C1.02416 10.2616 0.998212 10.1313 0.998212 9.9998C0.998212 9.86826 1.02416 9.73802 1.07458 
9.61653C1.12499 9.49504 1.19887 9.38469 1.292 9.2918L9.292 1.2918C9.47977 1.10402 9.73445 0.998534 10 
0.998534C10.2656 0.998534 10.5202 1.10402 10.708 1.2918C10.8958 1.47957 11.0013 1.73425 11.0013 
1.9998C11.0013 2.26535 10.8958 2.52002 10.708 2.7078L4.414 8.9998L28 8.9998C28.2652 8.9998 28.5196 
9.10516 28.7071 9.29269C28.8946 9.48023 29 9.73458 29 9.9998Z" fill="black"></path>
  </symbol>
  <symbol fill="none" xmlns="http://www.w3.org/2000/svg" viewBox="0 0 24 24" id="clipboard">
    <path d="M18 19.5C18 20.2956 17.6839 21.0587 17.1213 21.6213C16.5587 22.1839 15.7956 22.5 15 
22.5H4.5C3.70435 22.5 2.94129 22.1839 2.37868 21.6213C1.81607 21.0587 1.5 20.2956 1.5 19.5V9C1.5 8.20435 
1.81607 7.44129 2.37868 6.87868C2.94129 6.31607 3.70435 6 4.5 6V7.5C4.10218 7.5 3.72064 7.65804 3.43934 
7.93934C3.15804 8.22064 3 8.60218 3 9V19.5C3 19.8978 3.15804 20.2794 3.43934 20.5607C3.72064 20.842 
4.10218 21 4.5 21H15C15.3978 21 15.7794 20.842 16.0607 20.5607C16.342 20.2794 16.5 19.8978 16.5 19.5H18Z"
      fill="#177A2F"></path>
    <path d="M9 3C8.60218 3 8.22064 3.15804 7.93934 3.43934C7.65804 3.72064 7.5 4.10218 7.5 4.5V15C7.5 
15.3978 7.65804 15.7794 7.93934 16.0607C8.22064 16.342 8.60218 16.5 9 16.5H19.5C19.8978 16.5 20.2794 
16.342 20.5607 16.0607C20.842 15.7794 21 15.3978 21 15V4.5C21 4.10218 20.842 3.72064 20.5607 
3.43934C20.2794 3.15804 19.8978 3 19.5 3H9ZM9 1.5H19.5C20.2956 1.5 21.0587 1.81607 21.6213 
2.37868C22.1839 2.94129 22.5 3.70435 22.5 4.5V15C22.5 15.7956 22.1839 16.5587 21.6213 17.1213C21.0587 
17.6839 20.2956 18 19.5 18H9C8.20435 18 7.44129 17.6839 6.87868 17.1213C6.31607 16.5587 6 15.7956 6 
15V4.5C6 3.70435 6.31607 2.94129 6.87868 2.37868C7.44129 1.81607 8.20435 1.5 9 1.5Z" fill="#177A2F"></path>
  </symbol>
  <symbol fill="none" xmlns="http://www.w3.org/2000/svg" viewBox="0 0 17 16" id="clock">
    <path fill-rule="evenodd" clip-rule="evenodd" d="M8.12492 13.3334C11.0704 13.3334 13.4583 10.9456 
13.4583 
8.00004C13.4583 5.05452 11.0704 2.66671 8.12492 2.66671C5.1794 2.66671 2.79159 5.05452 2.79159 
8.00004C2.79159 10.9456 5.1794 13.3334 8.12492 13.3334ZM8.12492 14.6667C11.8068 14.6667 14.7916 11.6819 
14.7916 8.00004C14.7916 4.31814 11.8068 1.33337 8.12492 1.33337C4.44302 1.33337 1.45825 4.31814 1.45825 
8.00004C1.45825 11.6819 4.44302 14.6667 8.12492 14.6667Z" fill="#777E91"></path>
    <path fill-rule="evenodd" clip-rule="evenodd" d="M8.12492 4C8.49311 4 8.79159 4.29848 8.79159 
4.66667V7.72386L10.263 9.19526C10.5233 9.45561 10.5233 9.87772 10.263 10.1381C10.0026 10.3984 9.58053 
10.3984 9.32018 10.1381L7.65351 8.4714C7.52849 8.34638 7.45825 8.17681 7.45825 8V4.66667C7.45825 4.29848 
7.75673 4 8.12492 4Z" fill="#777E91"></path>
  </symbol>
  <symbol fill="none" xmlns="http://www.w3.org/2000/svg" viewBox="0 0 24 24" id="down">
    <path d="M19 9L12 16L5 9" stroke="#1A0E2C" stroke-width="2" stroke-linecap="round" stroke-linejoin="round"></path>
  </symbol>
  <symbol fill="none" xmlns="http://www.w3.org/2000/svg" viewBox="0 0 24 24" id="eye">
    <path fill-rule="evenodd" clip-rule="evenodd" d="M12 18C16.1255 18 19.0592 15.4076 20.7773 
13.2486C21.3732 12.4998 21.3732 11.5002 20.7773 10.7514C19.0592 8.59239 16.1255 6 12 6C7.87451 6 4.9408 
8.59238 3.22274 10.7514C2.62684 11.5002 2.62684 12.4998 3.22274 13.2486C4.9408 15.4076 7.8745 18 12 
18ZM22.3422 14.494C23.5182 13.0163 23.5182 10.9837 22.3422 9.506C20.4739 7.15826 17.0265 4 12 4C6.97347 4 
3.52606 7.15826 1.65778 9.506C0.48183 10.9837 0.481829 13.0163 1.65778 14.494C3.52606 16.8417 6.97347 20 
12 20C17.0265 20 20.4739 16.8417 22.3422 14.494Z" fill="#777E91"></path>
    <path fill-rule="evenodd" clip-rule="evenodd" d="M14 12C14 13.1046 13.1046 14 12 14C10.8954 14 10 
13.1046 
10 12C10 11.9716 10.0006 11.9434 10.0018 11.9153C10.1577 11.9701 10.3253 12 10.5 12C11.3284 12 12 11.3284 
12 10.5C12 10.3253 11.9701 10.1577 11.9153 10.0018C11.9434 10.0006 11.9716 10 12 10C13.1046 10 14 10.8954 
14 12ZM16 12C16 14.2091 14.2091 16 12 16C9.79086 16 8 14.2091 8 12C8 9.79086 9.79086 8 12 8C14.2091 8 16 
9.79086 16 12Z" fill="#777E91"></path>
  </symbol>
  <symbol xmlns="http://www.w3.org/2000/svg" viewBox="0 0 169 33" id="logopoko">
    <path fill-rule="evenodd" clip-rule="evenodd" d="M22.3289 24.0215C21.0372 24.0215 20.0833 23.201 
19.549 
22.0792C19.0141 20.9559 19.3902 19.5904 20.303 18.6721C20.872 18.0994 21.6214 17.7833 22.5042 
17.7833H29.85C30.1319 17.7833 30.3165 17.9679 30.3165 18.2499V23.4968C30.3165 23.7631 30.2012 24.0215 
29.9667 24.0215H22.3293H22.3289ZM17.7815 20.757C17.7815 21.6228 17.8997 22.2688 18.2462 22.974C18.4742 
23.4382 18.6491 23.6574 18.9606 24.0086C19.0653 24.1267 19.1092 24.2236 19.2287 24.3238C20.0824 25.0381 
21.0681 25.5961 22.6201 25.5961H28.6834V29.7355C28.6834 30.7078 27.9653 31.4845 26.9925 
31.4845H3.20632C2.2783 31.4845 1.51548 30.7143 1.51548 29.7936V12.0126C1.51548 11.4597 1.80114 11.0093 
2.11448 10.7463C2.33737 10.5585 2.44304 10.5188 2.71347 10.4389L26.6427 10.3217C27.3336 10.3217 27.6921 
10.4168 28.0839 10.7458C28.4171 11.0255 28.6829 11.4856 28.6829 12.0703V16.0929C28.6829 16.1681 28.7508 
16.2166 28.5043 16.2549C27.6289 16.3915 22.4244 16.0657 21.2846 16.3901C20.0197 16.7501 19.1636 17.3703 
18.4691 18.4718C18.327 18.697 18.2379 18.8821 18.1313 19.1253C17.9643 19.5074 17.7811 20.2097 17.7811 
20.757H17.7815ZM13.817 8.8058C13.9541 8.68674 14.2092 8.6355 14.4003 8.57274L18.6634 7.12234C19.4931 
6.84592 20.267 6.56764 21.0972 6.29121C23.8947 5.35904 23.6316 5.15692 23.969 6.17447C24.0954 6.55657 
24.8148 8.55013 24.8361 8.80532H13.8175L13.817 8.8058ZM11.1021 6.38259C11.7764 5.9788 17.1382 2.54682 
17.548 2.45129C17.7584 2.5925 17.7091 2.52606 17.8443 2.73834L19.4138 5.25013L14.961 6.74392C13.493 
7.23355 12.0565 7.77301 10.5659 8.2368C8.34298 8.92854 9.67619 8.80625 7.22946 8.80625L11.1026 
6.38306L11.1021 6.38259ZM0 11.8958V30.0853C0 30.4711 0.177666 30.9455 0.310109 31.232C0.753585 32.1914 
1.89805 32.9999 2.91468 32.9999H27.2256C28.4919 32.9999 29.7355 31.9967 30.0955 30.6815C30.3373 29.7982 
30.1989 26.8287 30.1989 25.5961C30.8177 25.2993 31.2187 25.3464 31.659 24.4908C31.7591 24.2961 31.8315 
24.0916 31.8315 23.7889V18.0754C31.8315 17.1391 31.0263 16.337 30.1993 16.2678C30.1993 15.2092 30.3258 
11.6309 30.024 10.905C29.97 10.7758 29.8846 10.5497 29.8117 10.4177C29.7323 10.2747 29.6174 10.1487 
29.5168 10.013C29.4005 9.8561 29.3419 9.76703 29.1845 9.64567C29.0198 9.51922 28.9432 9.42601 28.7987 
9.33187C28.1282 8.89486 27.6266 8.80532 26.5269 8.80532C26.2348 8.25248 26.0673 7.38491 25.9782 
7.19109C25.9718 7.17724 25.9487 7.13665 25.9413 7.12142L25.5449 5.99817C25.3169 5.38857 25.2237 4.63084 
24.4484 4.17952C23.3626 3.54776 22.0501 4.45041 20.872 4.72452C20.8088 4.48686 20.3999 3.91093 20.249 
3.65619L18.8655 1.48404C18.8526 1.47251 18.8148 1.44205 18.8018 1.43098L18.4008 1.1324C18.0335 0.924733 
17.7746 0.934895 17.374 0.934895C16.7164 0.934895 15.6477 1.72862 15.0537 2.1121L12.8608 3.4753C12.0999 
3.93954 11.4035 4.36087 10.6587 4.82973C8.80815 5.99449 6.4731 7.35769 4.68858 8.53768C4.46938 8.68258 
4.34985 8.80165 4.02821 8.80949C3.33369 8.82657 2.9479 8.77026 2.37844 8.9087C1.55055 9.10945 0.772046 
9.70844 0.369641 10.4565C0.157825 10.8501 0.00138577 11.3125 0.00138577 11.8954L0 11.8958Z" fill="white"></path>
    <path fill-rule="evenodd" clip-rule="evenodd" d="M20.8716 20.8738C20.8716 22.7196 23.0493 23.7298 
24.472 
22.3173C24.8038 21.9878 25.096 21.4054 25.0544 20.8895C24.8205 17.9789 20.8712 18.3573 20.8712 
20.8738H20.8716Z" fill="white"></path>
    <path d="M38.881 29V14.1813H45.2954C46.6221 14.1813 47.7652 14.4 48.7249 14.8375C49.6846 15.2609 
50.4255 
15.8748 50.9477 16.6793C51.4699 17.4837 51.731 18.4434 51.731 19.5583C51.731 20.6592 51.4699 21.6118 
50.9477 22.4162C50.4255 23.2207 49.6846 23.8417 48.7249 24.2792C47.7652 24.7026 46.6221 24.9143 45.2954 
24.9143H40.7863L42.3105 23.3689V29H38.881ZM42.3105 23.7499L40.7863 22.1199H45.1049C46.1634 22.1199 
46.9537 21.8941 47.4759 21.4424C47.9981 20.9908 48.2592 20.3628 48.2592 19.5583C48.2592 18.7398 47.9981 
18.1047 47.4759 17.6531C46.9537 17.2015 46.1634 16.9756 45.1049 16.9756H40.7863L42.3105 
15.3456V23.7499ZM59.3453 29.1694C58.1316 29.1694 57.0519 28.9153 56.1063 28.4073C55.1749 27.8992 54.4339 
27.2076 53.8835 26.3326C53.3472 25.4435 53.0791 24.4344 53.0791 23.3054C53.0791 22.1622 53.3472 21.1531 
53.8835 20.2781C54.4339 19.389 55.1749 18.6974 56.1063 18.2035C57.0519 17.6954 58.1316 17.4414 59.3453 
17.4414C60.5449 17.4414 61.6175 17.6954 62.5631 18.2035C63.5087 18.6974 64.2496 19.3819 64.7859 
20.2569C65.3222 21.132 65.5903 22.1481 65.5903 23.3054C65.5903 24.4344 65.3222 25.4435 64.7859 
26.3326C64.2496 27.2076 63.5087 27.8992 62.5631 28.4073C61.6175 28.9153 60.5449 29.1694 59.3453 
29.1694ZM59.3453 26.4596C59.8957 26.4596 60.3897 26.3326 60.8272 26.0786C61.2647 25.8246 61.6104 25.4647 
61.8645 24.9989C62.1185 24.5191 62.2455 23.9546 62.2455 23.3054C62.2455 22.6421 62.1185 22.0775 61.8645 
21.6118C61.6104 21.1461 61.2647 20.7862 60.8272 20.5321C60.3897 20.2781 59.8957 20.1511 59.3453 
20.1511C58.7949 20.1511 58.3009 20.2781 57.8634 20.5321C57.4259 20.7862 57.0731 21.1461 56.8049 
21.6118C56.5509 22.0775 56.4239 22.6421 56.4239 23.3054C56.4239 23.9546 56.5509 24.5191 56.8049 
24.9989C57.0731 25.4647 57.4259 25.8246 57.8634 26.0786C58.3009 26.3326 58.7949 26.4596 59.3453 
26.4596ZM73.3019 29.1694C72.074 29.1694 70.9803 28.9224 70.0206 28.4284C69.0609 27.9203 68.3058 27.2218 
67.7554 26.3326C67.2191 25.4435 66.951 24.4344 66.951 23.3054C66.951 22.1622 67.2191 21.1531 67.7554 
20.2781C68.3058 19.389 69.0609 18.6974 70.0206 18.2035C70.9803 17.6954 72.074 17.4414 73.3019 
17.4414C74.5015 17.4414 75.5458 17.6954 76.435 18.2035C77.3241 18.6974 77.9804 19.4102 78.4037 
20.3416L75.8422 21.7176C75.5458 21.1813 75.1719 20.7862 74.7202 20.5321C74.2827 20.2781 73.8029 20.1511 
73.2807 20.1511C72.7162 20.1511 72.2081 20.2781 71.7565 20.5321C71.3049 20.7862 70.945 21.1461 70.6768 
21.6118C70.4228 22.0775 70.2958 22.6421 70.2958 23.3054C70.2958 23.9687 70.4228 24.5332 70.6768 
24.9989C70.945 25.4647 71.3049 25.8246 71.7565 26.0786C72.2081 26.3326 72.7162 26.4596 73.2807 
26.4596C73.8029 26.4596 74.2827 26.3397 74.7202 26.0998C75.1719 25.8457 75.5458 25.4435 75.8422 
24.8931L78.4037 26.2903C77.9804 27.2076 77.3241 27.9203 76.435 28.4284C75.5458 28.9224 74.5015 29.1694 
73.3019 29.1694ZM82.9741 26.6713L83.0588 22.6491L88.3723 17.6107H92.3099L87.208 22.7973L85.4933 
24.1945L82.9741 26.6713ZM80.2432 29V13.2921H83.5457V29H80.2432ZM88.7322 29L84.8793 24.2157L86.954 
21.6541L92.7333 29H88.7322ZM99.3953 29.1694C98.0969 29.1694 96.9537 28.9153 95.9658 28.4073C94.992 
27.8992 94.2369 27.2076 93.7006 26.3326C93.1643 25.4435 92.8962 24.4344 92.8962 23.3054C92.8962 22.1622 
93.1573 21.1531 93.6795 20.2781C94.2158 19.389 94.9426 18.6974 95.8599 18.2035C96.7773 17.6954 97.8146 
17.4414 98.9719 17.4414C100.087 17.4414 101.089 17.6813 101.978 18.1611C102.881 18.6269 103.594 19.3043 
104.116 20.1934C104.638 21.0684 104.899 22.1199 104.899 23.3477C104.899 23.4747 104.892 23.6229 104.878 
23.7923C104.864 23.9475 104.85 24.0957 104.836 24.2368H95.5847V22.3104H103.1L101.83 22.882C101.83 22.2892 
101.71 21.7741 101.47 21.3366C101.23 20.8991 100.898 20.5604 100.475 20.3205C100.052 20.0664 99.5576 
19.9394 98.993 19.9394C98.4285 19.9394 97.9275 20.0664 97.49 20.3205C97.0666 20.5604 96.7349 20.9061 
96.495 21.3578C96.2551 21.7953 96.1351 22.3175 96.1351 22.9243V23.4324C96.1351 24.0534 96.2692 24.6038 
96.5374 25.0836C96.8196 25.5494 97.2077 25.9092 97.7017 26.1633C98.2098 26.4032 98.8025 26.5232 99.4799 
26.5232C100.087 26.5232 100.616 26.4314 101.068 26.2479C101.533 26.0645 101.957 25.7893 102.338 
25.4223L104.095 27.3276C103.573 27.9203 102.916 28.379 102.126 28.7036C101.336 29.0141 100.426 29.1694 
99.3953 29.1694ZM111.755 29.1694C110.415 29.1694 109.37 28.8306 108.622 28.1532C107.874 27.4617 107.5 
26.4385 107.5 25.0836V15.0916H110.803V25.0413C110.803 25.5211 110.93 25.8951 111.184 26.1633C111.438 
26.4173 111.784 26.5443 112.221 26.5443C112.743 26.5443 113.188 26.4032 113.555 26.1209L114.444 
28.4496C114.105 28.6895 113.696 28.873 113.216 29C112.75 29.1129 112.263 29.1694 111.755 29.1694ZM105.743 
20.4051V17.8648H113.639V20.4051H105.743ZM116.531 29V14.1813H123.771C125.634 14.1813 127.031 14.5341 
127.962 15.2397C128.908 15.9454 129.381 16.8769 129.381 18.0341C129.381 18.8104 129.19 19.4878 128.809 
20.0664C128.428 20.6309 127.906 21.0684 127.242 21.3789C126.579 21.6894 125.817 21.8447 124.956 
21.8447L125.358 20.9767C126.29 20.9767 127.115 21.132 127.835 21.4424C128.555 21.7388 129.112 22.1834 
129.508 22.7761C129.917 23.3689 130.121 24.0957 130.121 24.9566C130.121 26.2268 129.62 27.2218 128.618 
27.9415C127.616 28.6472 126.142 29 124.194 29H116.531ZM119.939 26.4173H123.94C124.829 26.4173 125.499 
26.2762 125.951 25.9939C126.417 25.6975 126.65 25.2318 126.65 24.5967C126.65 23.9757 126.417 23.5171 
125.951 23.2207C125.499 22.9102 124.829 22.755 123.94 22.755H119.685V20.2569H123.347C124.18 20.2569 
124.815 20.1158 125.252 19.8335C125.704 19.5372 125.93 19.0926 125.93 18.4999C125.93 17.9212 125.704 
17.4908 125.252 17.2085C124.815 16.9121 124.18 16.764 123.347 16.764H119.939V26.4173Z" fill="white"></path>
    <path fill-rule="evenodd" clip-rule="evenodd" d="M139.826 26.1089C138.106 26.1089 136.836 25.0167 
136.124 
23.5225C135.411 22.0265 135.912 20.2086 137.127 18.9862C137.885 18.224 138.883 17.8024 140.058 
17.8024H149.84C150.215 17.8024 150.461 18.0481 150.461 18.4235V25.4103C150.461 25.7644 150.308 26.1089 
149.995 26.1089H139.826ZM150.306 15.7845H147.901C147.329 15.8356 146.044 15.8115 144.586 
15.7845H139.808C139.207 15.8139 138.723 15.865 138.435 15.9469C136.751 16.4259 135.611 17.2522 134.687 
18.7188C134.497 19.019 134.379 19.2652 134.237 19.589C134.014 20.0978 133.77 21.033 133.77 21.762C133.77 
22.9145 133.928 23.775 134.389 24.7136C134.693 25.3313 134.926 25.6233 135.34 26.0911C135.48 26.2482 
135.538 26.3773 135.697 26.5103C136.835 27.4619 138.147 28.2048 140.213 
28.2048H148.286V28.2154H150.305V28.2048C151.129 27.8093 151.663 27.8719 152.249 26.7334C152.382 26.4737 
152.478 26.2014 152.478 25.7982V18.1907C152.478 16.9438 151.406 15.8761 150.305 15.7845H150.306Z" fill="#F48734">
    </path>
    <path fill-rule="evenodd" clip-rule="evenodd" d="M137.885 21.9166C137.885 24.3754 140.785 25.7196 
142.679 
23.8391C143.121 23.4006 143.51 22.6249 143.455 21.9378C143.143 18.0621 137.885 18.5661 137.885 21.9166Z"
      fill="#F48734"></path>
    <path d="M159.803 29H156.627V13.2921H159.803V21.3578L163.338 17.5896H167.339L162.999 22.2045L167.509 
29H163.74L160.84 24.6391L159.803 25.7187V29Z" fill="white"></path>
  </symbol>
  <symbol xmlns="http://www.w3.org/2000/svg" viewBox="0 0 25 24" id="noti">
    <path fill-rule="evenodd" clip-rule="evenodd" d="M11.1997 20.106C11.7177 20.683 12.3827 21 13.0727 
21H13.0737C13.7667 21 14.4347 20.683 14.9537 20.105C15.2317 19.798 15.7057 19.773 16.0127 20.05C16.3207 
20.327 16.3457 20.802 16.0687 21.109C15.2607 22.006 14.1977 22.5 13.0737 22.5H13.0717C11.9507 22.499 
10.8897 22.005 10.0847 21.108C9.80771 20.801 9.83271 20.326 10.1407 20.05C10.4487 19.772 10.9227 19.797 
11.1997 20.106ZM13.1225 1C17.5675 1 20.5535 4.462 20.5535 7.695C20.5535 9.358 20.9765 10.063 21.4255 
10.811C21.8695 11.549 22.3725 12.387 22.3725 13.971C22.0235 18.018 17.7985 18.348 13.1225 18.348C8.44651 
18.348 4.22051 18.018 3.8755 14.035C3.87251 12.387 4.37551 11.549 4.81951 10.811L4.97626 10.5472C5.36219 
9.88386 5.69151 9.16235 5.69151 7.695C5.69151 4.462 8.67751 1 13.1225 1ZM13.1225 2.5C9.62751 2.5 7.19151 
5.238 7.19151 7.695C7.19151 9.774 6.61451 10.735 6.10451 11.583C5.69551 12.264 5.37251 12.802 5.37251 
13.971C5.53951 15.857 6.78451 16.848 13.1225 16.848C19.4255 16.848 20.7095 15.813 20.8755 13.906C20.8725 
12.802 20.5495 12.264 20.1405 11.583C19.6305 10.735 19.0535 9.774 19.0535 7.695C19.0535 5.238 16.6175 2.5 
13.1225 2.5Z"></path>
  </symbol>
  <symbol fill="none" xmlns="http://www.w3.org/2000/svg" viewBox="0 0 14 14" id="question">
    <path d="M7.00004 0.333374C3.32404 0.333374 0.333374 3.32404 0.333374 7.00004C0.333374 10.676 3.32404 
13.6667 7.00004 13.6667C10.676 13.6667 13.6667 10.676 13.6667 7.00004C13.6667 3.32404 10.676 0.333374 
7.00004 0.333374ZM7.66671 11H6.33337V9.66671H7.66671V11ZM8.31737 7.74337C8.18671 7.84871 8.06071 7.94937 
7.96071 8.04937C7.68871 8.32071 7.66737 8.56737 7.66671 8.57804V8.66671H6.33337V8.55537C6.33337 8.47671 
6.35271 7.77071 7.01737 7.10604C7.14737 6.97604 7.30871 6.84404 7.47804 6.70671C7.96737 6.31004 8.28871 
6.02071 8.28871 5.62204C8.28096 5.28525 8.14171 4.96487 7.90075 4.72945C7.65979 4.49403 7.33626 4.36227 
6.99938 4.36235C6.66251 4.36244 6.33904 4.49437 6.0982 4.72992C5.85737 4.96547 5.71828 5.28592 5.71071 
5.62271H4.37737C4.37737 4.17671 5.55404 3.00004 7.00004 3.00004C8.44604 3.00004 9.62271 4.17671 9.62271 
5.62271C9.62271 6.68737 8.83671 7.32271 8.31737 7.74337Z" fill="#59605B"></path>
  </symbol>
  <symbol fill="none" xmlns="http://www.w3.org/2000/svg" viewBox="0 0 16 16" id="plus">
    <path d="M7.33337 
7.33301V3.33301H8.66671V7.33301H12.6667V8.66634H8.66671V12.6663H7.33337V8.66634H3.33337V7.33301H7.33337Z" fill="white">
    </path>
  </symbol>
  <symbol fill="none" xmlns="http://www.w3.org/2000/svg" viewBox="0 0 30 30" id="search">
    <path
      d="M13.6071 25.2143C20.0176 25.2143 25.2143 20.0176 25.2143 13.6071C25.2143 7.19669 20.0176 2 13.6071 2C7.19669 2 2 7.19669 2 13.6071C2 20.0176 7.19669 25.2143 13.6071 25.2143Z"
      stroke="#B2B2B2" stroke-width="2.5" stroke-linecap="round" stroke-linejoin="round"></path>
    <path d="M24.2869 24.2857L28.0012 28" stroke="#B2B2B2" stroke-width="2.5" stroke-linecap="round"
      stroke-linejoin="round"></path>
  </symbol>
  <symbol fill="none" xmlns="http://www.w3.org/2000/svg" viewBox="0 0 24 24" id="swap">
    <path fill-rule="evenodd" clip-rule="evenodd" d="M1.40859 6.3105L6.21909 1.5L7.27959 1.5L12.0901 
6.3105L11.0296 7.371L7.49859 3.8415L7.49859 22.5L5.99859 22.5L5.99859 3.84L2.46909 7.371L1.40859 
6.3105ZM11.9086 17.6895L16.7191 22.5L17.7796 22.5L22.5901 17.6895L21.5296 16.629L18.0001 20.1585L18.0001 
1.5L16.5001 1.5L16.5001 20.16L12.9691 16.629L11.9086 17.6895Z" fill="#454C47"></path>
  </symbol>
  <symbol fill="none" xmlns="http://www.w3.org/2000/svg" viewBox="0 0 24 24" id="transfer">
    <path fill-rule="evenodd" clip-rule="evenodd" d="M1.40847 6.3105L6.21897 1.5L7.27947 1.5L12.09 
6.3105L11.0295 7.371L7.49847 3.8415L7.49846 22.5L5.99847 22.5L5.99847 3.84L2.46897 7.371L1.40847 
6.3105ZM11.9085 17.6895L16.719 22.5L17.7795 22.5L22.59 17.6895L21.5295 16.629L18 20.1585L18 1.5L16.5 
1.5L16.5 20.16L12.969 16.629L11.9085 17.6895Z" fill="#141E17"></path>
  </symbol>
  <symbol fill="none" xmlns="http://www.w3.org/2000/svg" viewBox="0 0 17 16" id="updown">
    <path fill-rule="evenodd" clip-rule="evenodd" d="M4.98701 6.80478C5.24736 7.06513 5.66947 7.06513 
5.92982 
6.80478L7.79175 4.94285L9.65368 6.80478C9.91403 7.06513 10.3361 7.06513 10.5965 6.80478C10.8568 6.54443 
10.8568 6.12232 10.5965 5.86197L8.26315 3.52864C8.0028 3.26829 7.58069 3.26829 7.32034 3.52864L4.98701 
5.86197C4.72666 6.12232 4.72666 6.54443 4.98701 6.80478Z" fill="#59605B"></path>
    <path fill-rule="evenodd" clip-rule="evenodd" d="M4.98701 9.1951C5.24736 8.93475 5.66947 8.93475 
5.92982 
9.1951L7.79175 11.057L9.65368 9.1951C9.91403 8.93475 10.3361 8.93475 10.5965 9.1951C10.8568 9.45545 
10.8568 9.87756 10.5965 10.1379L8.26315 12.4712C8.0028 12.7316 7.58069 12.7316 7.32034 12.4712L4.98701 
10.1379C4.72666 9.87756 4.72666 9.45545 4.98701 9.1951Z" fill="#59605B"></path>
  </symbol>
  <symbol fill="none" xmlns="http://www.w3.org/2000/svg" viewBox="0 0 24 24" id="check">
    <path d="M21.4286 0H2.57143C1.88944 0 1.23539 0.270918 0.753154 0.753154C0.270918 1.23539 0 1.88944 0 
2.57143L0 21.4286C0 22.1106 0.270918 22.7646 0.753154 23.2468C1.23539 23.7291 1.88944 24 2.57143 
24H21.4286C22.1106 24 22.7646 23.7291 23.2468 23.2468C23.7291 22.7646 24 22.1106 24 21.4286V2.57143C24 
1.88944 23.7291 1.23539 23.2468 0.753154C22.7646 0.270918 22.1106 0 21.4286 0ZM20.3202 8.88964L10.463 
18.7468C10.3023 18.9074 10.0844 18.9976 9.85714 18.9976C9.62991 18.9976 9.41198 18.9074 9.25125 
18.7468L3.67982 13.1754C3.60021 13.0958 3.53705 13.0013 3.49397 12.8973C3.45088 12.7932 3.4287 12.6818 
3.4287 12.5692C3.4287 12.4566 3.45088 12.3451 3.49397 12.2411C3.53705 12.1371 3.60021 12.0426 3.67982 
11.963L4.89161 10.7513C4.9712 10.6716 5.0657 10.6085 5.16971 10.5654C5.27371 10.5223 5.38519 10.5001 
5.49777 10.5001C5.61035 10.5001 5.72182 10.5223 5.82583 10.5654C5.92983 10.6085 6.02433 10.6716 6.10393 
10.7513L9.85714 14.5045L17.8961 6.46554C17.9757 6.38592 18.0702 6.32277 18.1742 6.27968C18.2782 6.23659 
18.3897 6.21442 18.5022 6.21442C18.6148 6.21442 18.7263 6.23659 18.8303 6.27968C18.9343 6.32277 19.0288 
6.38592 19.1084 6.46554L20.3202 7.67732C20.3998 7.75692 20.4629 7.85142 20.506 7.95542C20.5491 8.05943 
20.5713 8.1709 20.5713 8.28348C20.5713 8.39606 20.5491 8.50754 20.506 8.61154C20.4629 8.71555 20.3998 
8.81005 20.3202 8.88964Z" fill="#58BD7D"></path>
  </symbol>
  <symbol fill="none" xmlns="http://www.w3.org/2000/svg" viewBox="0 0 20 20" id="drop_down">
    <path fill-rule="evenodd" clip-rule="evenodd" d="M9.99991 14.0967L4.35151 8.4483L6.04831 
6.7515L9.99991 
10.7031L13.9515 6.7515L15.6483 8.4483L9.99991 14.0967ZM9.9999 0.399902C4.6983 0.399902 0.399902 4.6971 
0.399902 9.9999C0.399902 15.3015 4.6983 19.5999 9.9999 19.5999C15.3015 19.5999 19.5999 15.3015 19.5999 
9.9999C19.5999 4.6971 15.3015 0.399902 9.9999 0.399902Z" fill="#8BBC97"></path>
  </symbol>
  <symbol fill="none" xmlns="http://www.w3.org/2000/svg" viewBox="0 0 18 10" id="drop">
    <path d="M17.5005 0.989236C17.3666 0.858402 17.1867 0.785156 16.9995 0.785156C16.8123 0.785156 
16.6324 
0.858402 16.4985 0.989236L9 8.29874L1.503 0.989235C1.36905 0.858402 1.18924 0.785156 1.002 
0.785156C0.814756 0.785156 0.634943 0.858402 0.500998 0.989235C0.435682 1.05283 0.383768 1.12886 0.348322 
1.21285C0.312874 1.29684 0.294613 1.38707 0.294613 1.47823C0.294613 1.5694 0.312874 1.65963 0.348322 
1.74362C0.383768 1.82761 0.435682 1.90364 0.500997 1.96724L8.4765 9.74024C8.61656 9.87676 8.80441 9.95316 
9 9.95316C9.19559 9.95316 9.38344 9.87676 9.5235 9.74024L17.499 1.96724C17.5643 1.90364 17.6162 1.82761 
17.6517 1.74362C17.6871 1.65963 17.7054 1.5694 17.7054 1.47824C17.7054 1.38707 17.6871 1.29684 17.6517 
1.21285C17.6162 1.12886 17.5643 1.05283 17.499 0.989236L17.5005 0.989236Z" fill="#454C47"></path>
  </symbol>
  <symbol fill="none" xmlns="http://www.w3.org/2000/svg" viewBox="0 0 120 120" id="mail">
    <path d="M88.125 116.25C103.658 116.25 116.25 103.658 116.25 88.125C116.25 
72.592 103.658 60 88.125 60C72.592 60 60 72.592 60 88.125C60 103.658 
72.592 116.25 88.125 116.25Z" fill="#F48734"></path>
    <path opacity="0.25" d="M88.1248 60C83.9771 59.9795 79.8762 60.8766 76.116 
62.6271C72.3558 64.3775 69.0292 66.938 66.3748 70.125C71.7063 65.157 
78.7581 62.4524 86.0443 62.581C93.3306 62.7095 100.283 65.6612 105.436 
70.8142C110.589 75.9672 113.54 82.9191 113.669 90.2054C113.797 97.4917 
111.093 104.543 106.125 109.875C110.621 106.189 113.864 101.201 115.409 
95.5959C116.953 89.9911 116.723 84.0454 114.749 78.5769C112.775 73.1084 
109.156 68.3859 104.388 65.0592C99.62 61.7325 93.9384 59.965 88.1248 60Z" fill="white"></path>
    <path d="M88.125 60C94.2126 59.9864 100.138 61.9615 105 
65.625V22.5H3.75V90H60.1875C60.1875 89.4375 60 88.6875 60 88.125C60 
80.6658 62.9632 73.5121 68.2376 68.2376C73.5121 62.9632 80.6658 60 88.125 
60Z" fill="#FEF6F6"></path>
    <path opacity="0.14" d="M48.75 90H60.1875C60.1875 89.4375 60 88.6875 60 
88.125C59.9978 82.4435 61.7164 76.8945 64.9295 72.2088C68.1426 67.5231 
72.6994 63.9203 78 61.875H76.875C69.4158 61.875 62.2621 64.8382 56.9876 
70.1126C51.7132 75.3871 48.75 82.5408 48.75 90Z" fill="#000064"></path>
    <path opacity="0.14" d="M3.75 22.5L54.375 61.125L105 22.5V25.3125L48.75 
75L3.75 30.9375V22.5Z" fill="#000064"></path>
    <path d="M60 90H3.75V22.5H105V65.625" stroke="#F48734" stroke-width="3.75" stroke-miterlimit="10"
      stroke-linecap="round" stroke-linejoin="round"></path>
    <path d="M99.375 82.5L84.375 97.5L76.875 90M3.75 22.5L54.375 61.125L105 
22.5H3.75Z" stroke="white" stroke-width="3.75" stroke-miterlimit="10" stroke-linecap="round" stroke-linejoin="round">
    </path>
    <path d="M88.125 116.25C103.658 116.25 116.25 103.658 116.25 88.125C116.25 
72.592 103.658 60 88.125 60C72.592 60 60 72.592 60 88.125C60 103.658 
72.592 116.25 88.125 116.25Z" stroke="white" stroke-width="3.75" stroke-miterlimit="10" stroke-linecap="round"
      stroke-linejoin="round"></path>
  </symbol>

  <symbol fill="none" xmlns="http://www.w3.org/2000/svg" viewBox="0 0 94 94" id="uplooad_proj">
    <path opacity="0.1"
      d="M82.875 0H10.625C4.75697 0 0 4.75697 0 10.625V65.875C0 71.743 4.75697 76.5 10.625 76.5H82.875C88.743 76.5 93.5 71.743 93.5 65.875V10.625C93.5 4.75697 88.743 0 82.875 0Z"
      fill="black"></path>
    <path
      d="M48.5011 56.1722C48.3253 55.9422 48.106 55.7491 47.8556 55.6039C47.6052 55.4587 47.3286 55.3643 47.0416 55.326C46.7547 55.2877 46.4631 55.3063 46.1833 55.3808C45.9036 55.4553 45.6413 55.5841 45.4114 55.76C45.256 55.8782 45.1173 56.0169 44.9991 56.1722L21.6241 90.1722C21.4051 90.4913 21.2773 90.8641 21.2546 91.2505C21.2319 91.6368 21.3152 92.022 21.4954 92.3645C21.6756 92.707 21.946 92.9938 22.2772 93.1939C22.6085 93.394 22.9881 93.4998 23.3751 93.5H70.1251C70.5121 93.4998 70.8917 93.394 71.223 93.1939C71.5543 92.9938 71.8246 92.707 72.0048 92.3645C72.185 92.022 72.2683 91.6368 72.2456 91.2505C72.2229 90.8641 72.0952 90.4913 71.8761 90.1722L48.5011 56.1722Z"
      fill="black"></path>
  </symbol>





  <symbol fill="none" xmlns="http://www.w3.org/2000/svg" viewBox="0 0 24 24" id="attach">
    <path
      d="M4.53564 11.4645L11.4299 4.57016C13.4802 2.51991 16.8043 2.51991 18.8546 4.57016C20.9048 6.62041 20.9048 9.94453 18.8546 11.9948L10.8996 19.9497C9.53277 21.3166 7.31669 21.3166 5.94986 19.9497C4.58302 18.5829 4.58302 16.3668 5.94986 15L13.9048 7.04503C14.5882 6.36162 15.6963 6.36162 16.3797 7.04503C17.0631 7.72845 17.0631 8.83649 16.3797 9.51991L9.48539 16.4142"
      stroke="#1A0E2C" stroke-width="2" stroke-linecap="round" stroke-linejoin="round"></path>
  </symbol>
  <symbol fill="none" xmlns="http://www.w3.org/2000/svg" viewBox="0 0 24 24" id="code">
    <path d="M15 7L20 12L15 17" stroke="#1A0E2C" stroke-width="2" stroke-linecap="round" stroke-linejoin="round"></path>
    <path d="M9 17L4 12L9 7" stroke="#1A0E2C" stroke-width="2" stroke-linecap="round" stroke-linejoin="round"></path>
  </symbol>
  <symbol fill="none" xmlns="http://www.w3.org/2000/svg" viewBox="0 0 24 24" id="retry">
    <path d="M10 8H5V3" stroke="#1A0E2C" stroke-width="2" stroke-linecap="round" stroke-linejoin="round"></path>
    <path
      d="M5.29053 16.3571C6.22236 17.792 7.58966 18.8904 9.19169 19.4909C10.7937 20.0915 12.5461 20.1627 14.1916 19.6939C15.837 19.2252 17.2889 18.2413 18.3339 16.8867C19.379 15.5321 19.9623 13.8781 19.9981 12.1675C20.034 10.457 19.5205 8.78004 18.533 7.38284C17.5456 5.98564 16.1362 4.94181 14.5118 4.4046C12.8874 3.86738 11.1336 3.86509 9.50784 4.39805C7.88206 4.93101 6.46997 5.97114 5.47887 7.36575"
      stroke="#1A0E2C" stroke-width="2" stroke-linecap="round" stroke-linejoin="round"></path>
  </symbol>
  <symbol fill="none" xmlns="http://www.w3.org/2000/svg" viewBox="0 0 24 24" id="link">
    <path d="M9.17188 14.8287L14.8287 9.17188" stroke="#1A0E2C" stroke-width="2" stroke-linecap="round"
      stroke-linejoin="round"></path>
    <path
      d="M7.05014 11.293L5.63593 12.7072C4.07383 14.2693 4.07383 16.8019 5.63593 18.364C7.19803 19.9261 9.73069 19.9261 11.2928 18.364L12.707 16.9498"
      stroke="#1A0E2C" stroke-width="2" stroke-linecap="round" stroke-linejoin="round"></path>
    <path
      d="M11.293 7.05014L12.7072 5.63593C14.2693 4.07383 16.8019 4.07383 18.364 5.63593C19.9261 7.19803 19.9261 9.73069 18.364 11.2928L16.9498 12.707"
      stroke="#1A0E2C" stroke-width="2" stroke-linecap="round" stroke-linejoin="round"></path>
  </symbol>
  <symbol fill="none" xmlns="http://www.w3.org/2000/svg" viewBox="0 0 24 24" id="doc">
    <path
      d="M18 21H6C5.44772 21 5 20.5523 5 20L5 4C5 3.44772 5.44772 3 6 3L13.5631 3C13.8416 3 14.1076 3.11619 14.2968 3.32059L18.7338 8.11246C18.9049 8.29731 19 8.53995 19 8.79187L19 20C19 20.5523 18.5523 21 18 21Z"
      stroke="#fff" stroke-width="2" stroke-linecap="round" stroke-linejoin="round"></path>
    <path d="M9 17H15" stroke="#fff" stroke-width="2" stroke-linecap="round" stroke-linejoin="round"></path>
    <path d="M9 14H15" stroke="#fff" stroke-width="2" stroke-linecap="round" stroke-linejoin="round"></path>
    <path d="M19 9L14 9C13.4477 9 13 8.55228 13 8L13 3" stroke="#fff" stroke-width="2" stroke-linecap="round"
      stroke-linejoin="round"></path>
  </symbol>
  <symbol xmlns="http://www.w3.org/2000/svg" viewBox="0 
0 24 24" id="git">
    <path d="M12 0c-6.626 0-12 5.373-12 12 0 5.302 3.438 9.8 8.207 
11.387.599.111.793-.261.793-.577v-2.234c-3.338.726-4.033-1.416-4.033-1.416-.546-1.387-1.333-1.756-1.333-1.756-1.089-.745.083-.729.083-.729 
1.205.084 1.839 1.237 1.839 1.237 1.07 1.834 2.807 1.304 
3.492.997.107-.775.418-1.305.762-1.604-2.665-.305-5.467-1.334-5.467-5.931 
0-1.311.469-2.381 1.236-3.221-.124-.303-.535-1.524.117-3.176 0 0 
1.008-.322 3.301 1.23.957-.266 1.983-.399 3.003-.404 1.02.005 2.047.138 
3.006.404 2.291-1.552 3.297-1.23 3.297-1.23.653 1.653.242 2.874.118 
3.176.77.84 1.235 1.911 1.235 3.221 0 4.609-2.807 5.624-5.479 
5.921.43.372.823 1.102.823 2.222v3.293c0 .319.192.694.801.576 4.765-1.589 
8.199-6.086 8.199-11.386 0-6.627-5.373-12-12-12z"></path>
  </symbol>
  <symbol xmlns="http://www.w3.org/2000/svg" fill="none" viewBox="0 0 243 240" id="empty">
    <path
      d="M65.4132 151.42C53.2189 161.148 44.7222 174.67 41.3091 189.78C41.3091 191.21 40.798 193.06 41.9904 193.986C43.1829 194.911 45.3974 193.986 46.8453 192.976C49.1812 191.245 51.3484 189.301 53.3185 187.172C58.9203 180.9 63.5944 173.876 67.2018 166.31C69.1512 163.078 70.3443 159.456 70.6939 155.71C70.8139 154.161 70.3259 152.625 69.3311 151.42C68.7922 150.911 68.0753 150.627 67.3296 150.627C66.5839 150.627 65.8669 150.911 65.328 151.42"
      fill="white"></path>
    <path
      d="M43.4384 195.164C42.6758 195.159 41.933 194.924 41.309 194.491C40.6657 193.783 40.2304 192.916 40.0503 191.982C39.8702 191.047 39.952 190.083 40.287 189.191C43.6972 174.01 52.189 160.407 64.3911 150.579C64.7027 150.242 65.0855 149.977 65.5123 149.803C65.9392 149.628 66.3996 149.549 66.8611 149.57V149.57C68.0121 149.572 69.1149 150.026 69.9273 150.831C71.0902 152.187 71.6709 153.938 71.5456 155.711C71.2674 159.485 70.1008 163.143 68.1387 166.394C64.5069 174.089 59.774 181.228 54.0851 187.593C52.057 189.752 49.8332 191.723 47.4415 193.481C46.3225 194.449 44.9201 195.038 43.4384 195.164ZM66.3501 151.42C54.2427 161.095 45.856 174.573 42.5866 189.612C42.5866 191.294 42.5866 192.388 42.5866 192.808C42.5866 193.229 45.4825 192.219 46.0788 191.799C48.364 190.1 50.5009 188.215 52.4668 186.163C58.0133 179.946 62.6311 172.977 66.1797 165.469C68.0937 162.417 69.2333 158.954 69.5015 155.374C69.5875 154.167 69.224 152.97 68.4794 152.009C68.292 151.818 68.0667 151.667 67.8176 151.566C67.5684 151.464 67.3008 151.415 67.0314 151.42H66.3501Z"
      fill="#B8B8B8"></path>
    <path
      d="M74.4418 132.072C73.1899 132.09 71.9549 132.361 70.8125 132.867C69.6702 133.373 68.6445 134.105 67.7983 135.016C65.9925 136.45 64.3631 138.087 62.9434 139.895C61.5146 141.715 60.8169 143.992 60.9844 146.289C61.2126 147.569 61.6137 148.814 62.1768 149.99C63.0286 151.925 64.3913 154.112 66.5207 154.028C67.3151 153.981 68.0812 153.719 68.7352 153.271C72.3882 151.406 75.3644 148.466 77.2525 144.858C78.1999 143.082 78.695 141.104 78.695 139.096C78.695 137.088 78.1999 135.11 77.2525 133.334C76.7374 132.273 75.819 131.457 74.6973 131.062"
      fill="white"></path>
    <path
      d="M66.4358 155.122C64.3064 155.122 62.603 153.524 61.155 150.411C60.4459 149.177 59.929 147.844 59.6219 146.457C59.3598 143.865 60.1228 141.273 61.7512 139.223C63.2049 137.339 64.8932 135.643 66.7765 134.176C68.5369 132.413 70.8472 131.287 73.3348 130.979C73.3508 130.837 73.3997 130.701 73.4776 130.582C73.5555 130.462 73.6603 130.361 73.7839 130.288C73.9075 130.215 74.0466 130.171 74.1903 130.159C74.334 130.148 74.4785 130.169 74.6124 130.222C75.3233 130.425 75.9809 130.779 76.5397 131.258C77.0985 131.738 77.5453 132.331 77.849 132.998C78.8785 134.93 79.4165 137.081 79.4165 139.265C79.4165 141.449 78.8785 143.6 77.849 145.532C75.7689 149.172 72.6212 152.105 68.8206 153.944C68.0195 154.439 67.1182 154.755 66.1803 154.87L66.4358 155.122ZM73.7607 133.082C71.7757 133.389 69.9492 134.335 68.5651 135.774C66.7895 137.149 65.1881 138.731 63.7954 140.485C62.5091 142.11 61.8726 144.146 62.0068 146.205C62.2325 147.368 62.6045 148.498 63.114 149.57C64.1361 151.841 65.2433 153.019 66.4358 153.019C67.0231 152.883 67.5941 152.685 68.1392 152.43C71.7179 150.739 74.6892 148.009 76.6566 144.607C77.5154 142.969 77.9636 141.151 77.9636 139.307C77.9636 137.463 77.5154 135.645 76.6566 134.007C76.3841 133.489 76.0073 133.031 75.5493 132.661C75.4096 132.816 75.2392 132.94 75.0487 133.027C74.8583 133.114 74.6518 133.161 74.4421 133.166L73.7607 133.082Z"
      fill="#B8B8B8"></path>
    <path
      d="M76.0596 133.669C76.0596 133.669 57.8325 155.877 77.5928 193.48C97.353 231.082 125.801 231.755 140.451 210.304C155.101 188.853 170.347 153.942 155.867 134.006C141.388 114.069 76.0596 133.669 76.0596 133.669Z"
      fill="white"></path>
    <path
      d="M116.091 225.951H114.388C100.249 225.11 86.8766 213.838 76.6558 194.321C68.672 180.76 65.664 164.896 68.1384 149.4C69.1382 143.524 71.4673 137.945 74.9523 133.081C74.9523 133.081 74.9523 133.081 75.4634 133.081C78.1889 132.239 141.558 113.564 156.463 133.838C171.369 154.111 154.164 192.723 141.047 211.903C138.349 216.064 134.668 219.516 130.321 221.963C125.974 224.41 121.091 225.779 116.091 225.951V225.951ZM76.6558 134.595C73.5229 139.182 71.4042 144.37 70.4381 149.821C68.1568 164.826 71.1637 180.15 78.9555 193.228C88.8356 212.155 101.612 223.007 114.984 223.848C119.912 223.89 124.765 222.663 129.067 220.288C133.368 217.913 136.969 214.472 139.514 210.305C152.375 191.882 170.006 155.121 154.93 134.595C141.473 116.34 81.681 133.081 76.6558 134.595Z"
      fill="#B8B8B8"></path>
    <path
      d="M46.9307 189.863C47.8273 186.239 49.0238 182.694 50.5079 179.264C53.3266 173.345 56.7211 167.71 60.6436 162.439"
      fill="white"></path>
    <path
      d="M46.9306 190.872C46.6768 190.779 46.4626 190.604 46.3233 190.374C46.1839 190.145 46.1278 189.876 46.1641 189.611C47.1491 185.937 48.4016 182.338 49.9117 178.843C52.7099 172.895 56.1358 167.256 60.1325 162.019C60.3152 161.854 60.5485 161.754 60.7951 161.736C61.0418 161.717 61.2877 161.781 61.4935 161.916C61.6994 162.052 61.8533 162.251 61.9308 162.483C62.0083 162.715 62.0049 162.966 61.9212 163.196C58.0232 168.318 54.6561 173.813 51.8707 179.6C50.4197 182.985 49.224 186.472 48.2934 190.031C48.2635 190.177 48.2039 190.315 48.1182 190.437C48.0326 190.559 47.9226 190.662 47.7951 190.741C47.6676 190.82 47.5252 190.872 47.3766 190.895C47.2279 190.917 47.0762 190.91 46.9306 190.872V190.872Z"
      fill="#B8B8B8"></path>
    <path
      d="M162.682 139.223C159.272 139.632 156.036 140.94 153.313 143.008C150.656 145.101 148.892 148.103 148.372 151.42C148.191 153.799 148.725 156.177 149.907 158.257C151.089 160.338 152.866 162.027 155.016 163.113C157.192 164.167 159.609 164.644 162.028 164.497C164.447 164.349 166.786 163.583 168.814 162.272C170.953 160.976 172.519 158.931 173.198 156.545C173.876 154.159 173.619 151.608 172.477 149.401C170.898 145.297 167.874 141.892 163.959 139.812"
      fill="white"></path>
    <path
      d="M160.978 165.72C158.739 165.726 156.527 165.238 154.505 164.29C152.141 163.096 150.19 161.235 148.901 158.943C147.611 156.651 147.042 154.032 147.265 151.419C147.476 149.595 148.052 147.83 148.958 146.228C149.865 144.625 151.084 143.215 152.546 142.081C155.432 139.876 158.882 138.507 162.511 138.128C162.64 138.09 162.776 138.08 162.909 138.099C163.042 138.118 163.17 138.165 163.283 138.237C163.396 138.309 163.492 138.404 163.565 138.515C163.637 138.627 163.685 138.753 163.704 138.885H164.47C168.585 141.115 171.757 144.725 173.413 149.063C174.14 150.841 174.441 152.76 174.293 154.672C174.146 156.583 173.553 158.435 172.562 160.083C171.722 161.316 170.616 162.35 169.325 163.112C166.87 164.787 163.962 165.695 160.978 165.72V165.72ZM162.937 140.483C159.685 140.831 156.592 142.053 153.994 144.016C151.494 145.963 149.872 148.804 149.48 151.924C149.317 154.094 149.803 156.263 150.878 158.163C151.953 160.062 153.57 161.607 155.527 162.607C157.528 163.591 159.758 164.031 161.988 163.883C164.218 163.735 166.368 163.005 168.218 161.766C169.295 161.158 170.226 160.326 170.943 159.326C171.73 157.953 172.185 156.418 172.274 154.843C172.363 153.267 172.082 151.692 171.454 150.241C170.033 146.355 167.214 143.121 163.533 141.156C163.431 141.136 163.335 141.096 163.249 141.038C163.163 140.981 163.09 140.906 163.034 140.82C162.979 140.733 162.941 140.636 162.924 140.535C162.908 140.434 162.912 140.33 162.937 140.231V140.483Z"
      fill="#B8B8B8"></path>
    <path
      d="M170.347 164.795C169.666 163.786 167.451 162.692 166.344 163.281C165.773 163.575 165.278 163.992 164.894 164.502C164.511 165.012 164.249 165.601 164.129 166.225C161.404 199.369 172.647 207.445 176.565 214.006C176.949 214.531 177.466 214.947 178.063 215.213C178.661 215.478 179.319 215.585 179.971 215.521C180.823 215.521 181.164 214.343 181.419 213.586C182.741 207.174 182.741 200.565 181.419 194.154C181.043 188.845 180.188 183.581 178.864 178.423C177.355 173.19 174.406 168.473 170.347 164.795"
      fill="white"></path>
    <path
      d="M179.461 216.615C178.698 216.593 177.952 216.39 177.285 216.024C176.618 215.658 176.05 215.14 175.628 214.512C175.032 213.502 174.18 212.409 173.243 211.063C168.559 204.754 160.723 194.238 163.107 166.142C163.215 165.339 163.519 164.574 163.994 163.915C164.469 163.255 165.101 162.72 165.833 162.356C167.537 161.431 170.177 162.861 171.114 164.123C175.206 167.91 178.154 172.744 179.631 178.087C181.158 183.276 182.156 188.602 182.612 193.986C183.971 200.536 183.971 207.289 182.612 213.839C182.501 214.435 182.24 214.994 181.853 215.464C181.466 215.934 180.966 216.301 180.398 216.531L179.461 216.615ZM167.111 164.123C166.685 164.313 166.315 164.605 166.032 164.972C165.749 165.339 165.564 165.77 165.492 166.226C162.937 193.481 170.347 203.324 174.947 210.306C175.892 211.444 176.746 212.654 177.502 213.923C177.755 214.257 178.093 214.519 178.482 214.681C178.871 214.844 179.297 214.902 179.716 214.848C179.716 214.848 179.716 214.848 180.398 213.671C181.718 207.4 181.718 200.929 180.398 194.659C179.937 189.392 178.967 184.181 177.502 179.096C176.061 174.102 173.263 169.592 169.41 166.058V166.058C168.922 165.146 168.099 164.454 167.111 164.123V164.123Z"
      fill="#B8B8B8"></path>
    <path d="M167.536 173.795C167.652 184.247 170.31 194.518 175.287 203.742Z" fill="white"></path>
    <path
      d="M175.287 204.753C175.1 204.754 174.916 204.708 174.753 204.62C174.589 204.532 174.45 204.404 174.35 204.249C169.325 194.883 166.611 184.478 166.429 173.881C166.429 173.591 166.545 173.312 166.753 173.107C166.961 172.902 167.242 172.787 167.536 172.787V172.787C167.807 172.787 168.067 172.893 168.259 173.083C168.45 173.272 168.558 173.529 168.558 173.797C168.725 184.071 171.352 194.16 176.224 203.239C176.349 203.487 176.375 203.772 176.296 204.037C176.217 204.302 176.039 204.528 175.798 204.669L175.287 204.753Z"
      fill="#B8B8B8"></path>
    <path
      d="M116.091 154.027C143.233 154.027 165.237 132.145 165.237 105.152C165.237 78.1594 143.233 56.2773 116.091 56.2773C88.9493 56.2773 66.9463 78.1594 66.9463 105.152C66.9463 132.145 88.9493 154.027 116.091 154.027Z"
      fill="white"></path>
    <path
      d="M116.091 155.121C106.067 155.204 96.244 152.344 87.8681 146.905C79.4923 141.465 72.9414 133.69 69.0468 124.568C65.1521 115.445 64.0893 105.385 65.9931 95.6643C67.8968 85.9438 72.6815 77.001 79.7398 69.9706C86.7981 62.9403 95.8119 58.1393 105.637 56.1769C115.463 54.2146 125.657 55.1792 134.927 58.9485C144.196 62.7179 152.123 69.1219 157.701 77.3481C163.28 85.5742 166.258 95.2516 166.258 105.152C166.304 118.346 161.046 131.018 151.641 140.386C142.235 149.755 129.449 155.054 116.091 155.121ZM116.091 57.2868C106.488 57.2035 97.0768 59.9398 89.0512 65.1484C81.0255 70.357 74.7476 77.803 71.0141 86.5416C67.2806 95.2802 66.2599 104.917 68.0815 114.23C69.9031 123.542 74.4849 132.11 81.2454 138.847C88.0059 145.583 96.6403 150.184 106.053 152.065C115.465 153.946 125.231 153.023 134.112 149.413C142.992 145.803 150.587 139.668 155.931 131.788C161.275 123.908 164.129 114.637 164.129 105.152C164.174 92.5167 159.141 80.3796 150.135 71.4055C141.128 62.4314 128.885 57.3536 116.091 57.2868V57.2868Z"
      fill="#B8B8B8"></path>
    <path
      d="M143.475 136.768C150.747 122.908 141.1 103.719 121.929 93.9084C102.758 84.0981 81.3227 87.3812 74.0514 101.242C66.7802 115.102 76.4268 134.291 95.5977 144.101C114.769 153.911 136.204 150.628 143.475 136.768Z"
      fill="#B8B8B8"></path>
    <path
      d="M141.133 148.055C140.883 148.133 140.616 148.133 140.366 148.055C140.169 147.852 140.058 147.58 140.058 147.298C140.058 147.016 140.169 146.745 140.366 146.541C144.969 143.04 148.022 137.915 148.884 132.24C148.758 131.066 148.758 129.882 148.884 128.707V127.445C148.919 123.739 148.373 120.051 147.265 116.51C146.102 112.898 144.531 109.427 142.581 106.163C140.691 102.957 138.24 100.108 135.341 97.7503L129.635 92.9554C129.454 92.7433 129.355 92.4752 129.355 92.1983C129.355 91.9214 129.454 91.6533 129.635 91.4412C129.841 91.2458 130.115 91.1367 130.401 91.1367C130.687 91.1367 130.961 91.2458 131.168 91.4412L136.874 96.2361C139.931 98.5511 142.53 101.403 144.54 104.648C146.625 108.025 148.284 111.641 149.48 115.416C150.665 119.172 151.24 123.091 151.183 127.025C151.226 127.444 151.226 127.867 151.183 128.287C151.098 129.379 151.098 130.475 151.183 131.567C150.271 137.955 146.843 143.73 141.644 147.635C141.531 147.832 141.35 147.982 141.133 148.055Z"
      fill="#B8B8B8"></path>
    <path
      d="M130.656 210.978H129.974C129.776 210.775 129.666 210.503 129.666 210.221C129.666 209.939 129.776 209.668 129.974 209.464C137.174 200.96 142.927 191.357 147.009 181.031C147.056 180.901 147.129 180.783 147.224 180.682C147.319 180.581 147.434 180.501 147.562 180.446C147.689 180.391 147.827 180.362 147.966 180.361C148.106 180.361 148.244 180.388 148.372 180.442C148.511 180.476 148.641 180.541 148.751 180.633C148.861 180.724 148.949 180.839 149.006 180.97C149.064 181.1 149.09 181.241 149.084 181.383C149.077 181.525 149.038 181.664 148.968 181.788C144.91 192.305 139.157 202.105 131.933 210.81C131.772 210.979 131.557 211.087 131.325 211.118C131.092 211.149 130.856 211.099 130.656 210.978Z"
      fill="#B8B8B8"></path>
    <path
      d="M117.539 136.615C114.132 132.072 109.022 125.679 103.826 119.79C98.6306 113.902 93.5202 107.172 90.1133 102.966L91.1354 102.209C94.5423 106.752 99.6527 113.145 104.848 119.033C110.044 124.922 115.154 131.568 118.561 135.858L117.539 136.615Z"
      fill="white"></path>
    <path
      d="M85.1738 127.108V126.183C91.8445 123.966 98.1993 120.913 104.082 117.098L106.467 115.752C109.108 114.153 111.833 112.892 114.559 111.546L120.265 108.77L120.862 109.947L114.899 112.807C112.174 114.069 109.448 115.415 106.808 116.929L104.508 118.275C98.4718 122.023 91.9741 124.991 85.1738 127.108V127.108Z"
      fill="white"></path>
    <path
      d="M126.483 46.4362H125.972C125.716 46.3093 125.52 46.0895 125.424 45.8228C125.329 45.5562 125.342 45.2635 125.461 45.0061C127.343 41.1699 130.115 37.8265 133.552 35.248C135.404 33.6751 137.686 32.6798 140.111 32.3878C141.093 32.1759 142.109 32.1759 143.092 32.3878L144.114 31.6307C146.693 30.1186 149.631 29.3061 152.631 29.2753C156.033 29.0909 159.444 29.374 162.767 30.1165C163.038 30.1723 163.275 30.3321 163.427 30.5609C163.579 30.7896 163.632 31.0686 163.576 31.3363C163.519 31.604 163.358 31.8386 163.126 31.9885C162.894 32.1384 162.612 32.1912 162.341 32.1355C159.209 31.4662 156.001 31.2116 152.801 31.3784C150.192 31.3797 147.632 32.0772 145.391 33.3973V33.3973C146.087 33.8974 146.644 34.5629 147.01 35.3321C147.348 36.0128 147.524 36.761 147.524 37.5193C147.524 38.2775 147.348 39.0257 147.01 39.7064C146.727 40.2973 146.312 40.8167 145.795 41.2249C145.278 41.6331 144.674 41.9194 144.029 42.0618C143.622 42.1762 143.195 42.1987 142.779 42.1275C142.363 42.0564 141.968 41.8936 141.624 41.6511C141.281 41.4086 140.997 41.0927 140.794 40.7269C140.59 40.3611 140.473 39.9548 140.451 39.5382C140.152 37.6212 140.61 35.664 141.729 34.0703H140.536C138.521 34.352 136.629 35.1986 135.085 36.5098C131.911 38.9875 129.397 42.1927 127.76 45.8473C127.665 46.0887 127.479 46.2845 127.241 46.3942C127.003 46.5038 126.732 46.5188 126.483 46.4362V46.4362ZM143.517 35.1638C142.993 35.7583 142.601 36.4548 142.366 37.2082C142.132 37.9617 142.059 38.7555 142.155 39.5382C142.093 39.7869 142.093 40.0466 142.155 40.2953C142.402 40.3854 142.674 40.3854 142.921 40.2953C143.315 40.2982 143.702 40.1886 144.034 39.9797C144.367 39.7708 144.631 39.4714 144.795 39.1176C144.984 38.7232 145.083 38.2922 145.083 37.8557C145.083 37.4193 144.984 36.9883 144.795 36.5939C144.513 36.034 144.105 35.545 143.603 35.1638H143.517Z"
      fill="#B8B8B8"></path>
    <path
      d="M75.208 46.8559C75.0012 46.8506 74.801 46.7834 74.6337 46.6632C74.4664 46.5431 74.34 46.3756 74.2711 46.183C72.5701 42.2798 70.5177 38.5354 68.1386 34.9947C67.9648 34.7961 67.8691 34.5423 67.8691 34.2797C67.8691 34.0171 67.9648 33.7633 68.1386 33.5647C68.3534 33.3866 68.6248 33.2891 68.9052 33.2891C69.1856 33.2891 69.457 33.3866 69.6717 33.5647C72.3381 37.2849 74.6748 41.2252 76.656 45.3417C76.7481 45.611 76.7384 45.9041 76.6288 46.167C76.5193 46.4298 76.3171 46.6446 76.0598 46.7718L75.208 46.8559Z"
      fill="#B8B8B8"></path>
    <path
      d="M172.135 82.6077C171.887 82.691 171.617 82.691 171.369 82.6077C171.171 82.404 171.061 82.1328 171.061 81.8506C171.061 81.5684 171.171 81.2971 171.369 81.0935C175.826 76.6634 181.329 73.3969 187.381 71.5877C187.652 71.5343 187.932 71.5823 188.168 71.7223C188.405 71.8623 188.58 72.0842 188.659 72.3448C188.698 72.4718 188.712 72.6053 188.699 72.7375C188.686 72.8698 188.647 72.9982 188.584 73.1154C188.52 73.2326 188.434 73.3364 188.33 73.4207C188.226 73.505 188.106 73.5681 187.978 73.6066C182.427 75.1989 177.345 78.0838 173.157 82.0188L172.135 82.6077Z"
      fill="#B8B8B8"></path>
    <path
      d="M88.1543 183.133V173.543C88.1543 172.955 88.1543 172.786 88.9209 172.87C89.6583 172.824 90.3979 172.824 91.1354 172.87C91.1354 172.87 91.7316 172.87 92.2426 173.375C93.1884 173.076 94.2029 173.06 95.158 173.329C96.113 173.599 96.9658 174.142 97.6086 174.889C98.517 174.293 99.5837 173.974 100.675 173.974C101.766 173.974 102.833 174.293 103.741 174.889C104.568 175.21 105.27 175.782 105.745 176.523C106.22 177.265 106.443 178.136 106.381 179.011V184.227C106.381 184.9 106.381 185.152 105.615 185.068H102.889V179.18C102.899 178.643 102.716 178.121 102.373 177.706C102.03 177.29 101.549 177.008 101.015 176.908C100.77 176.895 100.524 176.934 100.295 177.024C100.066 177.113 99.8593 177.251 99.6893 177.427C99.5193 177.602 99.3899 177.813 99.3101 178.043C99.2303 178.273 99.2019 178.517 99.2269 178.759C99.2269 180.61 99.2269 182.376 99.2269 184.227H95.5644V178.591C95.5453 178.098 95.3441 177.629 94.9989 177.272C94.6537 176.916 94.1883 176.697 93.6906 176.656C93.4555 176.602 93.211 176.604 92.9768 176.661C92.7425 176.718 92.5253 176.829 92.3427 176.985C92.1601 177.141 92.0173 177.337 91.9259 177.558C91.8345 177.778 91.7971 178.017 91.8168 178.254V183.386C91.8566 183.552 91.8566 183.725 91.8168 183.89L88.1543 183.133Z"
      fill="#B8B8B8"></path>
    <path
      d="M112.344 175.562C113.361 175.05 114.535 174.93 115.637 175.225C116.739 175.521 117.69 176.21 118.306 177.16C119.142 178.265 119.594 179.608 119.594 180.988C119.594 182.368 119.142 183.71 118.306 184.815C117.449 185.633 116.304 186.089 115.112 186.089C113.92 186.089 112.775 185.633 111.918 184.815V188.853H108.767C108.767 188.853 108.767 188.264 108.767 188.012V177.497C108.809 176.881 108.809 176.262 108.767 175.646C108.767 174.889 108.767 174.721 109.704 174.805C110.64 174.889 110.896 174.805 111.492 174.805L112.344 175.562ZM111.662 180.357C111.655 181.026 111.892 181.675 112.33 182.185C112.768 182.695 113.378 183.032 114.047 183.133C115.325 183.133 116.262 182.208 116.262 180.693C116.289 180.042 116.067 179.404 115.642 178.906C115.216 178.408 114.617 178.085 113.962 178.001C113.649 177.989 113.337 178.041 113.047 178.156C112.756 178.271 112.494 178.446 112.276 178.669C112.059 178.891 111.892 179.157 111.786 179.448C111.68 179.739 111.638 180.049 111.662 180.357V180.357Z"
      fill="#B8B8B8"></path>
    <path
      d="M117.369 174.301L115.496 173.796C115.496 173.796 115.496 173.291 115.496 173.039C115.496 172.786 115.496 172.618 115.496 172.366C115.449 171.862 115.449 171.355 115.496 170.852H117.114H119.243C119.201 171.215 119.201 171.582 119.243 171.945V173.543C119.202 173.738 119.202 173.938 119.243 174.132L117.369 174.301Z"
      fill="#B8B8B8"></path>
    <path
      d="M122.65 183.301C124.524 183.301 124.183 183.301 124.183 185.32C124.183 187.339 124.183 186.666 122.821 186.498C120.351 186.498 120.265 186.498 120.606 183.638C120.606 183.638 120.606 183.133 121.202 183.133L122.65 183.301Z"
      fill="#B8B8B8"></path>
    <div xmlns="" id="divScriptsUsed"></div>
  </symbol>
</svg>