<svg width="0" height="0" class="hidden">
  <symbol fill="none" xmlns="http://www.w3.org/2000/svg" viewBox="0 0 24 24" id="assignees">
    <path d="M7 20C7 18.3431 9.23858 17 12 17C14.7614 17 17 18.3431 17 20" stroke="#1A0E2C" stroke-width="2" stroke-linecap="round" stroke-linejoin="round"></path>
    <path d="M18 14.2495C19.7659 14.7124 21 15.7697 21 16.9999" stroke="#1A0E2C" stroke-width="2" stroke-linecap="round" stroke-linejoin="round"></path>
    <path d="M6 14.2495C4.2341 14.7124 3 15.7697 3 16.9999" stroke="#1A0E2C" stroke-width="2" stroke-linecap="round" stroke-linejoin="round"></path>
    <path d="M12 14C13.6569 14 15 12.6569 15 11C15 9.34315 13.6569 8 12 8C10.3431 8 9 9.34315 9 11C9 12.6569 10.3431 14 12 14Z" stroke="#1A0E2C" stroke-width="2" stroke-linecap="round" stroke-linejoin="round"></path>
    <path d="M18 10.2361C18.6137 9.68679 19 8.8885 19 8C19 6.34315 17.6569 5 16 5C15.2316 5 14.5308 5.28885 14 5.76389" stroke="#1A0E2C" stroke-width="2" stroke-linecap="round" stroke-linejoin="round"></path>
    <path d="M6 10.2361C5.38625 9.68679 5 8.8885 5 8C5 6.34315 6.34315 5 8 5C8.76835 5 9.46924 5.28885 10 5.76389" stroke="#1A0E2C" stroke-width="2" stroke-linecap="round" stroke-linejoin="round"></path>
  </symbol>
  <symbol fill="none" xmlns="http://www.w3.org/2000/svg" viewBox="0 0 20 20" id="commodity">
    <path d="M12.5 12.9167C12.5 15.9083 10.075 18.3333 7.08332 18.3333C4.09166 18.3333 1.66666 15.9083 
1.66666 12.9167C1.66666 9.925 4.09166 7.5 7.08332 7.5C7.22499 7.5 7.37499 7.50833 7.51666 7.51667C10.1583 
7.725 12.275 9.84167 12.4833 12.4833C12.4917 12.625 12.5 12.775 12.5 12.9167Z" fill="white"></path>
    <path d="M18.3333 7.08329C18.3333 9.79996 16.3333 12.0416 13.7333 12.4333V12.3833C13.475 9.14996 10.85 
6.52496 7.59168 6.26663H7.56668C7.95835 3.66663 10.2 1.66663 12.9167 1.66663C15.9083 1.66663 18.3333 
4.09163 18.3333 7.08329Z" fill="white"></path>
    <path d="M4.65832 1.66663H2.49999C2.04166 1.66663 1.66666 2.04163 1.66666 2.49996V4.65829C1.66666 5.39996 
2.56666 5.77496 3.09166 5.24996L5.24999 3.09163C5.76666 2.56663 5.39999 1.66663 4.65832 1.66663Z" fill="white"></path>
    <path d="M15.3417 18.3333H17.5C17.9583 18.3333 18.3333 17.9583 18.3333 17.5V15.3417C18.3333 14.6 17.4333 
14.225 16.9083 14.75L14.75 16.9083C14.2333 17.4333 14.6 18.3333 15.3417 18.3333Z" fill="white"></path>
  </symbol>
  <symbol fill="none" xmlns="http://www.w3.org/2000/svg" viewBox="0 0 24 24" id="assignment">
    <path d="M21 8L12 2L3 8L12 14L21 8Z" stroke="#1A0E2C" stroke-width="2" stroke-linecap="round" stroke-linejoin="round"></path>
    <path d="M21 12L12 18L3 12" stroke="#1A0E2C" stroke-width="2" stroke-linecap="round" stroke-linejoin="round"></path>
    <path d="M21 16L12 22L3 16" stroke="#1A0E2C" stroke-width="2" stroke-linecap="round" stroke-linejoin="round"></path>
  </symbol>
  <symbol fill="none" xmlns="http://www.w3.org/2000/svg" viewBox="0 0 24 24" id="dashboard">
    <path d="M19 20H20" stroke="#1A0E2C" stroke-width="2" stroke-linecap="round" stroke-linejoin="round"></path>
    <path d="M14 20H16" stroke="#1A0E2C" stroke-width="2" stroke-linecap="round" stroke-linejoin="round"></path>
    <path d="M17 17L20 17" stroke="#1A0E2C" stroke-width="2" stroke-linecap="round" stroke-linejoin="round"></path>
    <path d="M14 17L14 20" stroke="#1A0E2C" stroke-width="2" stroke-linecap="round" stroke-linejoin="round"></path>
    <path d="M20 14L20 17" stroke="#1A0E2C" stroke-width="2" stroke-linecap="round" stroke-linejoin="round"></path>
    <path d="M19 14L20 14" stroke="#1A0E2C" stroke-width="2" stroke-linecap="round" stroke-linejoin="round"></path>
    <path d="M14 14H16" stroke="#1A0E2C" stroke-width="2" stroke-linecap="round" stroke-linejoin="round"></path>
    <path d="M9 14H5C4.44772 14 4 14.4477 4 15V19C4 19.5523 4.44772 20 5 20H9C9.55228 20 10 19.5523 10 19V15C10 14.4477 9.55228 14 9 14Z" stroke="#1A0E2C" stroke-width="2" stroke-linecap="round" stroke-linejoin="round"></path>
    <path d="M19 4H15C14.4477 4 14 4.44772 14 5V9C14 9.55228 14.4477 10 15 10H19C19.5523 10 20 9.55228 20 9V5C20 4.44772 19.5523 4 19 4Z" stroke="#1A0E2C" stroke-width="2" stroke-linecap="round" stroke-linejoin="round"></path>
    <path d="M9 4H5C4.44772 4 4 4.44772 4 5V9C4 9.55228 4.44772 10 5 10H9C9.55228 10 10 9.55228 10 9V5C10 4.44772 9.55228 4 9 4Z" stroke="#1A0E2C" stroke-width="2" stroke-linecap="round" stroke-linejoin="round"></path>
  </symbol>
  <symbol fill="none" xmlns="http://www.w3.org/2000/svg" viewBox="0 0 24 24" id="my_project">
    <path d="M17 6C17 6.35064 16.9398 6.68722 16.8293 7L20 7C20.5523 7 21 7.44772 21 8V11.1707C20.6872 11.0602 20.3506 11 20 11C18.3431 11 17 12.3431 17 14C17 15.6569 18.3431 17 20 17C20.3506 17 20.6872 16.9398 21 16.8293V20C21 20.5523 20.5523 21 20 21H8C7.44772 21 7 20.5523 7 20V16.8293C6.68722 16.9398 6.35064 17 6 17C4.34315 17 3 15.6569 3 14C3 12.3431 4.34315 11 6 11C6.35064 11 6.68722 11.0602 7 11.1707V8C7 7.44772 7.44772 7 8 7L11.1707 7C11.0602 6.68722 11 6.35064 11 6C11 4.34315 12.3431 3 14 3C15.6569 3 17 4.34315 17 6Z" stroke="#1A0E2C" stroke-width="2" stroke-linecap="round" stroke-linejoin="round"></path>
  </symbol>
  <symbol fill="none" xmlns="http://www.w3.org/2000/svg" viewBox="0 0 24 24" id="new_project">
    <path d="M5 20L19 20C19.5523 20 20 19.5523 20 19L20 5C20 4.44771 19.5523 4 19 4L5 4C4.44772 4 4 4.44772 4 5L4 19C4 19.5523 4.44772 20 5 20Z" stroke="#1A0E2C" stroke-width="2" stroke-linecap="round" stroke-linejoin="round"></path>
    <path d="M8 12H16" stroke="#1A0E2C" stroke-width="2" stroke-linecap="round" stroke-linejoin="round"></path>
    <path d="M12 16L12 8" stroke="#1A0E2C" stroke-width="2" stroke-linecap="round" stroke-linejoin="round"></path>
  </symbol>
  <symbol fill="none" xmlns="http://www.w3.org/2000/svg" viewBox="0 0 24 24" id="pools">
    <path d="M15 15V18C15 19.6569 16.3431 21 18 21C19.6569 21 21 19.6569 21 18C21 16.3431 19.6569 15 18 15H15Z" stroke="#1A0E2C" stroke-width="2" stroke-linecap="round" stroke-linejoin="round"></path>
    <path d="M9 15V18C9 19.6569 7.65685 21 6 21C4.34315 21 3 19.6569 3 18C3 16.3431 4.34315 15 6 15H9Z" stroke="#1A0E2C" stroke-width="2" stroke-linecap="round" stroke-linejoin="round"></path>
    <path d="M15 9H9V15H15V9Z" stroke="#1A0E2C" stroke-width="2" stroke-linecap="round" stroke-linejoin="round"></path>
    <path d="M15 9V6C15 4.34315 16.3431 3 18 3C19.6569 3 21 4.34315 21 6C21 7.65685 19.6569 9 18 9H15Z" stroke="#1A0E2C" stroke-width="2" stroke-linecap="round" stroke-linejoin="round"></path>
    <path d="M9 9V6C9 4.34315 7.65685 3 6 3C4.34315 3 3 4.34315 3 6C3 7.65685 4.34315 9 6 9H9Z" stroke="#1A0E2C" stroke-width="2" stroke-linecap="round" stroke-linejoin="round"></path>
  </symbol>
  <symbol fill="none" xmlns="http://www.w3.org/2000/svg" viewBox="0 0 20 20" id="portfolio">
    <path d="M12.475 18.9583H7.475C2.95 18.9583 1.01666 17.025 1.01666 12.5V7.49996C1.01666 2.97496 2.95 
1.04163 7.475 1.04163H12.475C17 1.04163 18.9333 2.97496 18.9333 7.49996V12.5C18.9333 17.025 17.0083 
18.9583 12.475 18.9583ZM7.475 2.29163C3.63333 2.29163 2.26666 3.65829 2.26666 7.49996V12.5C2.26666 
16.3416 3.63333 17.7083 7.475 17.7083H12.475C16.3167 17.7083 17.6833 16.3416 17.6833 12.5V7.49996C17.6833 
3.65829 16.3167 2.29163 12.475 2.29163H7.475Z" fill="white"></path>
    <path d="M9.54166 15.0499C9.34166 15.0499 8.85833 14.9749 8.57499 14.2499L7.62499 11.8499C7.49166 11.5083 
7.01666 11.1916 6.65833 11.1916L1.65833 11.2083C1.31666 11.2083 1.03333 10.9333 1.03333 10.5833C1.03333 
10.2416 1.30833 9.95828 1.65833 9.95828L6.65833 9.94161H6.66666C7.54166 9.94161 8.47499 10.5749 8.79999 
11.3916L9.55833 13.3083L11.275 8.95828C11.5333 8.30828 11.9917 8.21661 12.1833 8.19995C12.375 8.19161 
12.8417 8.23328 13.1667 8.84994L14.0333 10.4916C14.1833 10.7749 14.6333 11.0499 14.9583 
11.0499H18.3417C18.6833 11.0499 18.9667 11.3333 18.9667 11.6749C18.9667 12.0166 18.6833 12.2999 18.3417 
12.2999H14.9583C14.1667 12.2999 13.3 11.7749 12.9333 11.0749L12.2833 9.84161L10.5333 14.2499C10.225 
14.9666 9.73333 15.0499 9.54166 15.0499Z" fill="white"></path>
  </symbol>
  <symbol fill="none" xmlns="http://www.w3.org/2000/svg" viewBox="0 0 24 24" id="projects">
    <path d="M4 20L20 20C20.5523 20 21 19.5523 21 19L21 7C21 6.44772 20.5523 6 20 6L3 6L3 19C3 19.5523 3.44772 20 4 20Z" stroke="#1A0E2C" stroke-width="2" stroke-linecap="round" stroke-linejoin="round"></path>
    <path d="M12 6L10.2929 4.29289C10.1054 4.10536 9.851 4 9.58579 4H4C3.44772 4 3 4.44772 3 5V6" stroke="#1A0E2C" stroke-width="2" stroke-linecap="round" stroke-linejoin="round"></path>
  </symbol>
  <symbol fill="none" xmlns="http://www.w3.org/2000/svg" viewBox="0 0 24 24" id="settings">
    <path d="M12 16C14.2091 16 16 14.2091 16 12C16 9.79086 14.2091 8 12 8C9.79086 8 8 9.79086 8 12C8 14.2091 9.79086 16 12 16Z" stroke="#1A0E2C" stroke-width="2" stroke-linecap="round" stroke-linejoin="round"></path>
    <path d="M19.1671 7.94004L19.1013 7.82619C18.9199 7.51217 18.8273 7.15475 18.8334 6.79216L18.8634 5.01333C18.8695 4.64981 18.6778 4.3116 18.3628 4.13007L15.6261 2.55307C15.3119 2.372 14.9243 2.37524 14.6131 2.56155L13.094 3.47113C12.7836 3.65704 12.4285 3.75522 12.0666 3.75522H11.9349C11.5722 3.75522 11.2164 3.65661 10.9055 3.46994L9.3794 2.55377C9.06716 2.36632 8.6777 2.36344 8.36272 2.54625L5.63473 4.12954C5.32124 4.31149 5.13075 4.64883 5.13685 5.01125L5.16681 6.79216C5.17291 7.15475 5.08031 7.51217 4.89892 7.82619L4.83403 7.93852C4.65254 8.25271 4.389 8.5116 4.07164 8.68748L2.51675 9.54914C2.19805 9.72576 2.00064 10.0617 2.00147 10.4261L2.00863 13.5779C2.00945 13.9401 2.20601 14.2735 2.52248 14.4495L4.0699 15.3104C4.38835 15.4875 4.65235 15.7483 4.83337 16.0646L4.9029 16.186C5.08174 16.4985 5.17293 16.8534 5.16685 17.2133L5.13692 18.9865C5.13078 19.35 5.32245 19.6882 5.63749 19.8698L8.37412 21.4468C8.68835 21.6278 9.07598 21.6246 9.38713 21.4383L10.9062 20.5287C11.2167 20.3428 11.5718 20.2446 11.9337 20.2446H12.0654C12.428 20.2446 12.7838 20.3432 13.0948 20.5299L14.6208 21.4461C14.9331 21.6335 15.3226 21.6364 15.6375 21.4536L18.3655 19.8703C18.679 19.6884 18.8695 19.351 18.8634 18.9886L18.8334 17.2077C18.8273 16.8451 18.9199 16.4877 19.1013 16.1737L19.1662 16.0613C19.3477 15.7471 19.6112 15.4882 19.9286 15.3124L21.4835 14.4507C21.8022 14.2741 21.9996 13.9381 21.9988 13.5738L21.9916 10.4219C21.9908 10.0598 21.7942 9.72638 21.4778 9.55032L19.9266 8.68741C19.6105 8.51156 19.348 8.25327 19.1671 7.94004Z" stroke="#1A0E2C" stroke-width="2" stroke-linecap="round" stroke-linejoin="round"></path>
  </symbol>
  <symbol fill="none" xmlns="http://www.w3.org/2000/svg" viewBox="0 0 20 20" id="transaction">
    <path d="M9.58353 18.9584C8.92519 18.9584 8.3002 18.6167 7.86686 18.0334L7.01685 16.9167C6.84185 16.6834 
6.60853 16.55 6.35853 16.5334C6.11686 16.5167 5.85855 16.6334 5.65022 16.8417C4.93355 17.6084 4.23351 
17.9751 3.57517 17.9584C3.12517 17.9417 2.73351 17.7417 2.43351 17.375C2.40018 17.3334 2.36686 17.2751 
2.34186 17.2167C2.01686 16.5167 1.86685 15.5667 1.86685 14.1417V5.87505C1.86685 4.45005 2.01686 3.50838 
2.34186 2.80005C2.36686 2.75005 2.39185 2.70005 2.43351 2.65838C2.72518 2.28338 3.11688 2.08338 3.56688 
2.05838C4.23355 2.03338 4.94188 2.41672 5.64188 3.16672C5.85021 3.39172 6.10019 3.50005 6.35019 
3.48338C6.60019 3.46672 6.8335 3.33338 7.0085 3.10005L7.85852 1.97505C8.29185 1.39172 8.91685 1.05005 
9.57518 1.05005C10.2335 1.05005 10.8585 1.39172 11.2918 1.97505L12.1335 3.09172C12.3085 3.33338 12.5502 
3.46672 12.8085 3.48338C13.0502 3.50005 13.3085 3.38338 13.5168 3.16672C14.2002 2.43338 14.8752 2.05838 
15.5252 2.05838C15.9919 2.05838 16.4252 2.26672 16.7252 2.65838C16.7585 2.70005 16.7919 2.75005 16.8169 
2.80838C17.1419 3.50838 17.2919 4.45838 17.2919 5.88338V14.15C17.2919 15.575 17.1419 16.5167 16.8169 
17.225C16.7835 17.3 16.7419 17.3667 16.6835 17.4251C16.4252 17.7584 16.0002 17.9667 15.5252 
17.9667C14.8752 17.9667 14.2002 17.5917 13.5168 16.8584C13.3168 16.6417 13.0419 16.525 12.8085 
16.5417C12.5502 16.5584 12.3169 16.6917 12.1335 16.9334L11.2918 18.0501C10.8668 18.6167 10.2419 18.9584 
9.58353 18.9584ZM6.31687 15.2751C6.35021 15.2751 6.39188 15.2751 6.42521 15.2751C7.04188 15.3084 7.61685 
15.6334 8.00851 16.1584L8.85853 17.2834C9.26686 17.8334 9.88351 17.8334 10.2918 17.2917L11.1335 
16.175C11.5335 15.6417 12.1169 15.325 12.7336 15.2917C13.3502 15.2584 13.9668 15.5167 14.4168 
16.0001C15.0335 16.6584 15.4085 16.7084 15.5085 16.7084C15.5752 16.7084 15.6335 16.6917 15.6919 
16.6417C15.9252 16.1167 16.0252 15.3251 16.0252 14.1417V5.87505C16.0252 4.70838 15.9169 3.91672 15.6919 
3.39172C15.6252 3.31672 15.5585 3.30838 15.5085 3.30838C15.4085 3.30838 15.0335 3.35838 14.4168 
4.01672C13.9668 4.50005 13.3502 4.75838 12.7336 4.72505C12.1086 4.69172 11.5252 4.36672 11.1252 
3.84172L10.2835 2.72505C9.87522 2.17505 9.25852 2.17505 8.85019 2.72505L8.00017 3.85838C7.60851 4.38338 
7.03354 4.70005 6.41687 4.73338C5.8002 4.76672 5.18352 4.50838 4.73352 4.03338C4.22519 3.48338 3.83355 
3.30005 3.61688 3.30838C3.56688 3.30838 3.50853 3.32505 3.44186 3.39172C3.21686 3.91672 3.10851 4.70838 
3.10851 5.87505V14.1417C3.10851 15.3167 3.21686 16.1084 3.44186 16.6334C3.51686 16.7 3.56688 16.7084 
3.61688 16.7167C3.82522 16.725 4.21685 16.5417 4.72518 16.0001C5.16685 15.5251 5.74187 15.2751 6.31687 
15.2751Z" fill="white"></path>
    <path d="M13.3333 9.16663H6.66666C6.32499 9.16663 6.04166 8.88329 6.04166 8.54163C6.04166 8.19996 6.32499 
7.91663 6.66666 7.91663H13.3333C13.675 7.91663 13.9583 8.19996 13.9583 8.54163C13.9583 8.88329 13.675 
9.16663 13.3333 9.16663Z" fill="white"></path>
    <path d="M11.6667 12.0834H6.66666C6.32499 12.0834 6.04166 11.8 6.04166 11.4584C6.04166 11.1167 6.32499 
10.8334 6.66666 10.8334H11.6667C12.0083 10.8334 12.2917 11.1167 12.2917 11.4584C12.2917 11.8 12.0083 
12.0834 11.6667 12.0834Z" fill="white"></path>
  </symbol>
  <symbol fill="none" xmlns="http://www.w3.org/2000/svg" viewBox="0 0 24 24" id="upload_projects">
    <path fill-rule="evenodd" clip-rule="evenodd" d="M19 19C21.2091 19 23 17.2091 23 15C23 12.7909 21.2091 11 19 11C18.9764 11 18.9528 11.0002 18.9292 11.0006C18.4442 7.60802 15.5267 5 12 5C9.20335 5 6.78975 6.64004 5.6685 9.01082C3.06162 9.18144 1 11.35 1 14C1 16.7614 3.23858 19 6 19H19Z" stroke="#1A0E2C" stroke-width="2" stroke-linecap="round" stroke-linejoin="round"></path>
    <path d="M12 16L12 10" stroke="#1A0E2C" stroke-width="2" stroke-linecap="round" stroke-linejoin="round"></path>
    <path d="M9 12L12 10L15 12" stroke="#1A0E2C" stroke-width="2" stroke-linecap="round" stroke-linejoin="round"></path>
  </symbol>
</svg>